<?xml version="1.0" encoding="utf-8"?>
<!-- Generator: Adobe Illustrator 27.7.0, SVG Export Plug-In . SVG Version: 6.00 Build 0)  -->
<svg version="1.1"
	 id="svg2" xmlns:svg="http://www.w3.org/2000/svg" xmlns:sodipodi="http://sodipodi.sourceforge.net/DTD/sodipodi-0.dtd" xmlns:inkscape="http://www.inkscape.org/namespaces/inkscape" inkscape:version="1.1.1 (3bf5ae0d25, 2021-09-20)" sodipodi:docname="Bezalel_academy_of_arts_and_design_new_logo.svg"
	 xmlns="http://www.w3.org/2000/svg" xmlns:xlink="http://www.w3.org/1999/xlink" x="0px" y="0px" width="1701.1px"
	 height="258.4px" viewBox="0 0 1701.1 258.4" style="enable-background:new 0 0 1701.1 258.4;" xml:space="preserve">
<sodipodi:namedview  bordercolor="#999999" borderopacity="1" fit-margin-bottom="0" fit-margin-left="0" fit-margin-right="0" fit-margin-top="0" id="namedview4" inkscape:current-layer="g8" inkscape:cx="1158.1659" inkscape:cy="287.06676" inkscape:pagecheckerboard="0" inkscape:pageopacity="0" inkscape:pageshadow="0" inkscape:window-height="1001" inkscape:window-maximized="1" inkscape:window-width="1920" inkscape:window-x="-9" inkscape:window-y="-9" inkscape:zoom="0.65664168" pagecolor="#ffffff" showgrid="false">
	</sodipodi:namedview>
<g id="g8" transform="matrix(1.3333333,0,0,-1.3333333,-429.46012,842.71105)" inkscape:groupmode="layer" inkscape:label="Bezalel_academy_of_arts_and_design_new_logo">
	<g id="g10" transform="translate(642.6387,609.9678)">
		<path id="path12" d="M0,0h0.4l5.1-16.7H-5.2L0,0z M-6.3-20.4H6.5l1.9-6.2h5.4L3.3,4.8l-5.7-0.2l-10.8-31.2h5.1L-6.3-20.4z"/>
	</g>
	<path id="path24" d="M669.6,582.8c2.2,0,4.9,0.2,7.1,1.1l0.2,4c-1.9-0.5-4-0.9-5.8-0.9c-4.3,0-8,2.6-8,9.2c0,3.7,1,6.1,2.4,7.6
		c1.2,0.9,2.7,1.3,4.6,1.3c2.1,0,4.1-0.4,6.1-0.9l0.3,3.9c-1.7,0.8-3.8,1.1-6,1.1c-7.4,0-12.4-5.1-12.4-13.6
		C658.2,587.1,663.7,582.8,669.6,582.8"/>
	<path id="path28" d="M696.5,589.9c-1.9-2-4.2-2.9-6.3-2.9c-2.9,0-4.5,1.7-4.5,4.2c0,1.2,0.2,2.3,0.8,3.3c1.9,1.1,4.2,1.1,6.4,1.1
		c1.3,0,2.4-0.1,3.5-0.2V589.9z M693.5,598.8c-2.8,0-6.1-0.2-8.3-1.4c-2.6-1.2-4.1-3.8-4.1-7.1c0-3.3,2.2-7.4,7.7-7.4
		c3,0,5.6,1.2,7.8,3.3l0.3-0.1l0.4-2.9h4.1v16.7c0,6.3-3.4,9.2-9.6,9.2c-3,0-6-0.6-8.8-1.4l-0.3-3.9c2.8,0.8,5.9,1.3,8.3,1.3
		c4.7,0,5.6-2,5.6-6v-0.5C695.6,598.8,694.7,598.8,693.5,598.8"/>
	<path id="path32" d="M723.9,589.7c-2.4-2.5-4.6-2.8-5.7-2.8c-4.2,0-6.3,3.3-6.3,9c0,3.6,0.9,6.6,2.8,8.2c1.6,0.8,3.1,1.1,5,1.1
		c1.4,0,2.9-0.2,4.2-0.6V589.7z M728.6,619.4l-4.8-0.6v-10.1c-1.3,0.4-2.5,0.5-3.8,0.5c-6.9,0-13.1-4.6-13.1-14.1
		c0-7.9,4.1-12.2,9.7-12.2c2.4,0,5.1,0.8,7.3,3.1l0.4-0.2l0.4-2.6h4L728.6,619.4z"/>
	<path id="path36" d="M741.9,604c1.3,1.1,3.1,1.5,4.6,1.5c3.6,0,5.4-2.4,5.6-7.2h-12.3C740,601.1,740.9,602.8,741.9,604
		 M747.1,582.8c2.1,0,5.2,0.4,7.9,1.4l0.3,3.6c-2.7-0.8-5.4-1.1-7.5-1.1c-5,0-7.9,2.4-8.2,8.4h16.7c0.3,1.4,0.3,2.6,0.3,3.9
		c0,6.7-3.9,10.2-10,10.2c-7.7,0-11.8-5.8-11.8-13.5C734.8,587.5,739.5,582.8,747.1,582.8"/>
	<path id="path40" d="M767.2,603c2.6,1.5,4.9,2,6.6,2c3,0,4.5-1.3,4.5-4.6v-17.1h4.8v17.9c0,0.7,0,1.2-0.1,1.7
		c2.7,1.4,4.9,1.9,6.8,1.9c3,0,4.4-1.3,4.4-4.6v-17.1h4.8v18c0,5.5-2.5,7.8-7.1,7.8c-3.7,0-7-1.5-9.5-3l-0.4,0.2
		c-1.1,2-3.2,2.8-6.1,2.8c-3.3,0-6.2-1.3-8.5-2.9l-0.4,0.1l-0.2,2.7l-4.5-0.6v-25.1h4.8V603z"/>
	<path id="path44" d="M826,608.5h-5l-5.9-20.4h-0.4l-6.6,20.4h-5.3l9.6-24.9v-0.4l-4.9-9.7h5.1l4.8,10.3L826,608.5z"/>
	<path id="path48" d="M845.5,603.2c1.4,1.5,2.8,2.1,5.2,2.1c4,0,7-2.8,7-9.2c0-3.2-0.6-5.6-1.6-7.4c-1.4-1.4-3.1-2.1-5.2-2.1
		c-4.6,0-7.2,3.1-7.2,9.3C843.7,598.9,844.3,601.3,845.5,603.2 M850.2,582.8c7.5,0,12.4,5.4,12.4,14c0,7.7-5,12.5-11.3,12.5
		c-7.8,0-12.6-5.4-12.6-13.9C838.7,587.6,843.7,582.8,850.2,582.8"/>
	<path id="path52" d="M869.9,583.4h4.8v21.4h7l0.3,3.7h-7.3v3.7c0,1,0.1,1.8,0.3,2.6c0.7,0.6,1.7,0.9,3.2,0.9c1.6,0,3.1-0.2,4.4-0.4
		l0.7,3.8c-1.6,0.4-3.3,0.5-4.7,0.5c-5.3,0-8.6-2.2-8.6-8v-3.1l-4.2-0.4l-0.2-3.4h4.4L869.9,583.4z"/>
	<path id="path56" d="M906.8,610h0.4l5.1-16.7h-10.6L906.8,610z M900.5,589.6h12.8l1.9-6.2h5.4L910,614.7l-5.7-0.2l-10.8-31.2h5.1
		L900.5,589.6z"/>
	<path id="path60" d="M929,602.2c2.1,1.7,3.9,2.3,5.9,2.3c0.9,0,1.7-0.1,2.7-0.3l0.4,4.3c-0.9,0.4-1.8,0.5-2.7,0.5
		c-2.1,0-4.1-1.1-6.2-3.4l-0.3,0.1l-0.1,3.3l-4.5-0.6v-25.1h4.8V602.2z"/>
	<path id="path64" d="M944.1,588.1c0-3.5,1.5-5.1,5.8-5.1c1.4,0,3,0.3,4.5,0.7l0.1,3.8c-1.5-0.3-2.6-0.3-3.5-0.3
		c-0.7,0-1.4,0.1-2.1,0.2v17.4h5.7l0.3,3.7l-6,0.1v6.6l-3.9-0.5l-0.6-6.1l-3.8-0.2l-0.2-3.6h3.8L944.1,588.1z"/>
	<path id="path68" d="M966.6,586.5c-1.9,0-4.5,0.6-7.3,1.9l-0.9-3.8c2.4-1.2,4.8-1.8,7.6-1.8c6.5,0,9.8,3.5,9.8,7.5
		c0,7.6-12.5,8.6-12.5,12.7c0,0.8,0.4,1.4,1,1.9c0.8,0.4,2.2,0.7,3.7,0.7c1.6,0,3.9-0.4,6.3-1.5l0.8,3.8c-2.4,0.9-4.6,1.3-6.8,1.3
		c-5.5,0-9.6-2.6-9.6-6.8c0-7.4,12.3-7.8,12.3-12.8c0-0.9-0.4-1.6-0.9-2.2C969.3,586.8,968,586.5,966.6,586.5"/>
	<path id="path72" d="M996.6,598.3l-4.5-0.3c-0.3-3-0.5-5.8-0.5-8.1v-6.6h5V598.3z"/>
	<path id="path76" d="M1008.1,605.9c0.2-1.4,0.2-3,0.2-4.6v-17.9h5v18.5c0,7.3-1.9,8.4-12.2,8.4c-3.4,0-7.1-0.2-10.3-0.5l0.3-4
		c3.3,0.3,7.3,0.4,10.3,0.4C1004.1,606.2,1006.3,606.1,1008.1,605.9"/>
	<path id="path80" d="M1021.5,606v-11.7h5v11.5c0,3.7-1.1,4.3-5,4.3c-1.2,0-2.8,0-4-0.1l0.4-4.1H1021.5z"/>
	<path id="path84" d="M1037.1,583.4l1.7,20.9c3.2,1.4,6.3,1.7,8.7,1.7c1.2,0,2.1-0.1,3-0.2c0.3-2,0.3-4,0.3-6.1v-12h-7.6v-4.3h12.5
		v17.1c0,8-1.4,9.8-7.3,9.8c-3.7,0-6.9-0.8-10.6-2.8l-1,2.9l-4.6-0.3l1.9-5.9l-2.1-20.8H1037.1z"/>
	<path id="path88" d="M1073.1,606c-0.4-3-0.6-6-0.6-10.8v-11.9h5.1v22.5l3.6,0.4v3.8H1060l0.3-4H1073.1z"/>
	<path id="path92" d="M1104.6,605.6l-8.3-22.2h5.1l8,22.8l-0.5,3.9h-22.9l0.3-4.1h18.2L1104.6,605.6z"/>
	<path id="path96" d="M1091.4,599.3l-4.4-0.1c-0.4-3.1-0.5-6.7-0.5-9.1v-16.7h5L1091.4,599.3z"/>
	<path id="path100" d="M1135.7,602.7l0.7,7.4h-5l-0.4-6.3c-0.1-2.8-0.9-5.7-1.8-7.4l-0.4-0.2c-3.7,4.5-7.6,9.5-11.6,14.1l-5.5-0.4
		c2-2.1,4-4.5,6-6.8v-0.3c-1.9-2.5-3.2-5.8-3.6-9.9l-0.9-9.6h5l0.5,8.1c0.2,2.9,0.7,5.7,1.6,8l0.3,0.1c3.8-4.7,8.2-10.4,12.3-16.2
		h5.2v0.6c-2.2,3.2-4.3,6.1-6.5,9C1133.9,595.2,1135.4,598.8,1135.7,602.7"/>
	<path id="path104" d="M419.3,518.4c-1.5,0-3.1-0.2-4.4-0.7c0.1-1.4,0.5-2.8,0.9-4.3l3.9,0.6L419.3,518.4z"/>
	<path id="path108" d="M411.4,518.4c-1.5,0-3.1-0.2-4.4-0.7c0.1-1.4,0.5-2.8,0.9-4.3l3.9,0.6L411.4,518.4z"/>
	<path id="path112" d="M505.4,544.8l-0.4,4.5c-1.5,0-3.1-0.2-4.4-0.7c0.1-1.4,0.5-2.8,0.9-4.3L505.4,544.8z"/>
	<path id="path116" d="M513.1,544.8l-0.4,4.5c-1.5,0-3.1-0.2-4.4-0.7c0.1-1.4,0.5-2.8,0.9-4.3L513.1,544.8z"/>
	<path id="path120" d="M476.5,526.3c-2,0-4.6,0.1-7.4,0.8l-0.1,0.4c5.6,7.3,9.6,10.8,12.8,10.8c4.6,0,7.5-4.9,7.5-9.1
		C485.9,527.2,480.5,526.3,476.5,526.3 M438.9,526.5c-2.5,0-5.3,0.7-7.3,2.6c2,6.1,3.8,8.8,6.7,8.8c2.9,0,4.6-2.5,6.6-9
		C443.3,527.3,441.1,526.5,438.9,526.5 M391.2,526.1c-2.8,0-5.9,0.6-8.2,1.2c1.4,6,3.4,10.1,6.9,10.1c3.4,0,4.5-3.5,6.8-10
		C394.9,526.4,393,526.1,391.2,526.1 M523.5,524.6c1.6,1.2,2.6,3,2.7,6.2l0.4,29.2l-5-0.5l0.3-30.9c-1.7-1.2-3.2-1.5-5.4-1.5h0h0
		c-2.8,0-5.5,0.6-7.4,1.6l0.4,11.9l-4.6-0.3l-0.5-11.7c-2-1.1-4-1.6-7.3-1.6c0,0,0,0,0,0c0,0,0,0,0,0c-1.2,0-2.6,0.2-4.2,0.5
		c0.4,0.7,0.6,1.6,0.6,2.7c0,5.4-3.9,12.9-10.6,12.9c-5.1,0-10.9-5.4-17.4-14.8l-2.7,1.4l1.3,7.5l-4.3-0.2l-0.9-5.9
		c-0.6-3.3-2.3-4-5.9-4.1c0,0,0,0,0,0c0,0,0,0,0,0c-2.4,0-3.4,1.6-4.2,3.8c-2.2,6.5-3.9,11.9-9.6,11.9c-5.4,0-8-5-11-13.1
		c-1.1-2-2.6-2.6-4.3-2.6c-2.8,0-5.5,0.6-7.4,1.6l0.4,11.9l-4.6-0.3l-0.5-11.7c-2-1.1-4-1.6-7.3-1.6h0h0c-2.8,0-3.8,1.6-4.3,3.1
		c-1.8,5.3-3.8,12.2-9.6,12.2c-5.7,0-8.7-6.3-10.8-14.1c-0.6,0.2-1.1,0.2-1.4,0.2c-1.3-0.2-2.6-1.7-2.6-3.1c0-1.5,0.1-3,0.1-5.1
		l0.6-12.9h4.7l-1.4,16.4l0.3,0.2c3-1.2,7-2.1,10.7-2.1c3.7,0,6.1,0.9,7.8,2.5h0.3c1.2-1.3,2.9-1.9,5.6-1.9c0,0,0,0,0,0c0,0,0,0,0,0
		c3.4,0,6.9,0.8,9.6,2.9h0.4c2.5-2,5.8-2.9,9.4-2.9c2.6,0.1,4.2,0.6,6,3h0.4c2.1-2,4.9-3.5,8.5-3.5c2.6,0,5.2,0.8,7.7,3.7h0.4
		c1.6-2.4,3.6-3.2,6.1-3.2c0,0,0,0,0,0s0,0,0,0c3.4,0,6.3,0.9,8.1,3.5h0.4c4.2-2.9,9.6-3.8,14.4-3.8c5.2,0,10.1,1,13.4,2.6h0.4
		c2.7-1.7,5.2-2.2,7.5-2.2c0,0,0,0,0,0c0,0,0,0,0,0c3.4,0,6.9,0.8,9.6,2.9h0.4c2.5-2,5.8-2.9,9.4-2.9c0,0,0,0,0,0l0,0
		C519.3,522.2,521.7,523.1,523.5,524.6"/>
	<path id="path124" d="M536.2,522.2h4.4l0.3,37.5l-4.9-0.5L536.2,522.2z"/>
	<path id="path128" d="M558,526.9c-4.2,0-6.1,1.4-6.4,2.7c0.1,3,2.6,7.3,5.9,7.3c3.2,0,5.5-3.6,5.8-9.2
		C561.9,527.2,560,526.9,558,526.9 M554.3,515.9c-1.6,0-3.7,0.2-5.7,0.9l-0.6-4.1c1.7-0.8,4.1-1.4,6.5-1.4c8.1,0,12.8,6.7,12.8,15.8
		c0,9.1-4.7,14.6-9.4,14.6c-5,0-9.9-6.3-9.9-11.7c0-4.9,3.9-7.2,8.8-7.2c1.8,0,4.2,0.3,6.4,1.2C562.8,518.7,560,515.9,554.3,515.9"
		/>
	<path id="path132" d="M604.3,536.4l1.7-14.3c-2.4-3.3-5.9-4.6-10-4.6c-6.2,0-9.3,2.9-9.3,8.8c0,2.2,0.4,4.5,1.1,7l-3.6,0.8
		c-1.3-3.5-1.8-6.5-1.8-9c0-8.1,5.3-12.4,13-12.4c7.7,0,14.3,4.3,14.3,11.9c0,2-0.4,7.3-1,12.4L604.3,536.4z"/>
	<path id="path136" d="M597.8,539.8l-0.4,4.5c-1.5,0-3.1-0.2-4.4-0.7c0.1-1.4,0.5-2.8,0.9-4.3L597.8,539.8z"/>
	<path id="path140" d="M646.5,544.2l3.9,0.6l-0.4,4.5c-1.5,0-3.1-0.2-4.4-0.7C645.7,547.2,646.1,545.8,646.5,544.2"/>
	<path id="path144" d="M668.6,549.7l3.9,0.6l-0.4,4.5c-1.5,0-3.1-0.2-4.4-0.7C667.8,552.7,668.2,551.3,668.6,549.7"/>
	<path id="path148" d="M669.6,529.2c-3,1.7-5.1,4.2-5.4,6.9c0.6,2.6,3.3,5,5.9,5c2.7,0,5.3-1.5,6.2-6.5c-1.3-2.3-3.4-3.9-6.3-5.3
		H669.6z M626.8,526.6c-4.2,0-7.2,0.7-7.6,3.3c0.3,2.8,2.2,6.6,5.4,6.6c3.5,0,5.8-4.5,6-9.9H626.8z M708.1,524.6
		c1.6,1.2,2.6,3,2.7,6.2l0.4,29.2l-5-0.5l0.3-30.9c-1.7-1.2-3.2-1.5-5.4-1.5h0h0c-2.6,0-5,0.6-6.8,1.7l0.3,31.2l-5-0.5l0.2-30.7
		c-1.8-1.2-3.7-1.7-6.7-1.7h0h0H679c-1.5,0-3.1,0.2-4.6,0.5l-0.2,0.2c3.3,2.4,5.4,5.2,5.4,8c0,4.6-3.7,10.2-9.1,10.2
		c-5.1,0-9.9-5.5-9.9-10.3c0-2.6,1.4-5.4,4-7.7l-0.2-0.2c-2.1-0.4-4.4-0.6-7-0.6c-2.8,0-5.5,0.6-7.4,1.6l0.4,11.9l-4.6-0.3
		l-0.5-11.7c-2-1.1-4-1.6-7.3-1.6c0,0,0,0,0,0c0,0,0,0,0,0h-3.6c-0.4,9.8-5,14.3-9.2,14.3c-5.1,0-9.7-5.8-9.7-11.5
		c0-5,3.8-7.3,10.4-7.3h4.3c-0.8-4.3-3.8-6.5-8.8-6.5c-1.6,0-3.8,0.3-5.7,0.9l-0.5-4.1c1.6-0.8,4-1.4,6.4-1.4
		c6.9,0,11.3,4.6,12.5,10.9h3.9c0,0,0,0,0,0c0,0,0,0,0,0c3.4,0,6.9,0.8,9.6,2.9h0.4c2.5-2,5.8-2.9,9.4-2.9c4,0,8,0.9,11.5,2.3h0.4
		c3.8-1.8,8.1-2.3,13.6-2.3h0c0,0,0,0,0,0c3.2,0,6.3,0.8,9,3h0.4c2.4-2,5.6-3,8.7-3c0,0,0,0,0,0c0,0,0,0,0,0
		C703.9,522.2,706.3,523.1,708.1,524.6"/>
	<path id="path152" d="M744.4,554.3l3.9,0.6l-0.4,4.4c-1.5,0-3.1-0.2-4.4-0.7C743.6,557.2,743.9,555.9,744.4,554.3"/>
	<path id="path156" d="M736.7,554.3l3.9,0.6l-0.4,4.4c-1.5,0-3.1-0.2-4.4-0.7C735.8,557.2,736.2,555.9,736.7,554.3"/>
	<path id="path160" d="M757.2,518.4c-1.5,0-3.1-0.2-4.4-0.7c0.1-1.4,0.5-2.8,0.9-4.3l3.9,0.6L757.2,518.4z"/>
	<path id="path164" d="M765.1,518.4c-1.5,0-3.1-0.2-4.4-0.7c0.1-1.4,0.5-2.8,0.9-4.3l3.9,0.6L765.1,518.4z"/>
	<path id="path168" d="M784.1,538c2.9,0,4.6-2.5,6.6-9c-1.6-1.7-3.8-2.5-6-2.5c-2.5,0-5.3,0.7-7.3,2.6
		C779.4,535.2,781.3,538,784.1,538 M736.7,532.1c-2.7,0-4.8,0.5-5.5,2.2c0.6,3.9,3.5,6.9,9.6,8.5l0.5-10.3
		C739.7,532.2,738,532.1,736.7,532.1 M792.1,525.4h0.4c1.6-2.4,3.6-3.2,6.1-3.2c0,0,0,0,0,0s0,0,0,0c4.1,0,7.7,1,9.7,2.6
		c1.6,1.2,2.5,3,2.5,6.1c0,1.8-0.3,7.6-0.7,11.4l-4.7-0.5l1.2-13.3c-2.4-1.2-4.9-1.6-8-1.6c0,0,0,0,0,0s0,0,0,0
		c-2.4,0-3.4,1.6-4.2,3.8c-2.3,6.5-3.9,11.9-9.6,11.9c-5.4,0-8-5-11-13.1c-1.1-2-2.6-2.6-4.3-2.6h0h0c-2.8,0-5.5,0.6-7.4,1.6
		l0.4,11.9l-4.6-0.3l-0.5-11.7c-2-1.1-4-1.6-7.3-1.6c-3.8,0-4.7,1-4.9,4.9l-0.6,18.6l-4.3-0.6l0.2-2.9c-10.3-3.3-12.8-9.2-12.8-13
		c0-3.4,2.8-6.2,8.6-6.2c1.4,0,3.3,0.1,5.2,0.7l0.4-0.2c0.7-4.3,3.1-6.1,8.2-6.1c3.4,0,6.9,0.8,9.6,2.9h0.4c2.5-2,5.8-2.9,9.4-2.9
		c0,0,0,0,0,0s0,0,0,0c2.6,0.1,4.2,0.6,6,3h0.4c2.1-2,4.9-3.5,8.5-3.5C787,521.7,789.6,522.6,792.1,525.4"/>
	<path id="path172" d="M807.4,517.8c0.1-1.4,0.5-2.8,0.9-4.3l3.9,0.6l-0.4,4.4C810.3,518.5,808.7,518.3,807.4,517.8"/>
	<path id="path176" d="M800.4,513.4l3.9,0.6l-0.4,4.4c-1.5,0-3.1-0.2-4.4-0.7C799.6,516.4,799.9,515,800.4,513.4"/>
	<path id="path180" d="M824.6,521.7c7.1,0,12.4,3.5,12.4,8.7c0,5.2-3.4,13.1-10.7,18.6l-3.1-3.8c5.8-4.5,9.6-10.3,10-15.8
		c-2.2-2.5-5.5-2.9-8.2-2.9c-2.7,0-5,0.6-5,2.1c0,0.3,0.1,0.8,0.1,1.3l-3.6,0.4c-0.3-1-0.5-2.1-0.5-3
		C816,522.9,820.6,521.7,824.6,521.7"/>
	<path id="path184" d="M869.7,524.8c1.8,1.1,2.9,2.5,2.9,4.7c0,3.7-3.4,11.2-10.9,17.3v0.4l12.2,8.2l-0.4,4.9l-17.1-12.5v-3.3
		l2.6-1.3c5.7-5.1,8.6-9.7,9.9-14.2c-3.6-1.9-7.8-2-14.6-2c0,0,0,0,0,0s0,0,0,0c-3.6,0-5,0.7-5,3.7v29.1l-4.9-0.5l0.5-29
		c0.1-6,2.7-8,9.5-8c0,0,0,0,0,0s0,0,0,0C861.9,522.2,866.6,522.8,869.7,524.8"/>
	<path id="path188" d="M884.5,522.2l0.2,31.4l-5.1-0.6l0.6-30.8H884.5z"/>
	<path id="path192" d="M882.5,564.3c0.9,0,1.8-0.2,2.7-0.6l0.4,3c-1,0.5-1.9,0.7-2.9,0.7c-3,0-4.9-2.4-4.9-4.7
		c0-1.3,0.7-2.5,1.9-3.5l-2.9-0.4v-2.5l10.8,1.1v2.9l-3-0.4c-2.4,0.8-4.2,1.9-4.6,3.2C880.7,563.8,881.5,564.3,882.5,564.3"/>
	<path id="path196" d="M906.6,530c0,1.2,0.2,2.4,0.8,3.3c1.9,1.1,4.2,1.1,6.4,1.1c1.3,0,2.4,0,3.5-0.2v-5.5c-1.9-2-4.2-2.9-6.3-2.9
		C908.2,525.8,906.6,527.5,906.6,530 M917.4,525.2l0.3-0.1l0.4-2.9h4.1V539c0,6.3-3.4,9.2-9.6,9.2c-3,0-6-0.6-8.8-1.4l-0.3-3.9
		c2.8,0.8,5.9,1.3,8.3,1.3c4.7,0,5.6-2,5.6-6v-0.5c-1,0.1-1.9,0.1-3,0.1c-2.8,0-6.1-0.2-8.3-1.4c-2.6-1.2-4.1-3.8-4.1-7.1
		c0-3.3,2.2-7.4,7.7-7.4C912.6,521.9,915.2,523.1,917.4,525.2"/>
	<path id="path200" d="M945.9,522.2h4.8v18c0,5.5-2.5,7.8-7.2,7.8c-3.7,0-6.7-1.4-9-2.9l-0.4,0.1l-0.2,2.7l-4.5-0.6v-25.1h4.8v19.5
		c2.8,1.6,5.1,2.1,7.1,2.1c3.1,0,4.6-1.3,4.6-4.6L945.9,522.2z"/>
	<path id="path204" d="M964,543.1c1.6,0.8,3.1,1.1,5,1.1c1.4,0,2.9-0.2,4.2-0.6v-15c-2.4-2.5-4.6-2.8-5.7-2.8c-4.2,0-6.3,3.3-6.3,9
		C961.2,538.5,962.2,541.4,964,543.1 M966,521.8c2.4,0,5.1,0.8,7.3,3.1l0.4-0.2l0.4-2.6h4v36l-4.8-0.6v-10.1
		c-1.3,0.4-2.5,0.5-3.8,0.5c-6.9,0-13.1-4.6-13.1-14.1C956.3,526.1,960.5,521.8,966,521.8"/>
	<path id="path208" d="M1001.3,549.6c1.5,0.2,2.9,0.2,4.4,0.2c6.4,0,10.4-2.8,10.4-11.3c0-6-1.8-9.6-5.6-11.9
		c-1.7-0.5-3.2-0.6-4.7-0.6c-1.5,0-3,0-4.6,0.2V549.6z M1021.4,539.1c0,12.1-8,14.8-15,14.8c-2.1,0-5.3,0-10-0.6v-31
		c3.9-0.3,6.2-0.4,9.1-0.4C1015.6,521.9,1021.4,527.7,1021.4,539.1"/>
	<path id="path212" d="M1032.9,542.9c1.3,1.1,3.1,1.5,4.6,1.5c3.6,0,5.4-2.3,5.6-7.2h-12.3C1031,539.9,1031.9,541.7,1032.9,542.9
		 M1046.3,526.7c-2.7-0.8-5.4-1.1-7.5-1.1c-5,0-7.9,2.4-8.2,8.4h16.7c0.3,1.4,0.3,2.6,0.3,3.9c0,6.7-3.9,10.2-10,10.2
		c-7.7,0-11.8-5.8-11.8-13.5c0-8.2,4.7-12.9,12.3-12.9c2.1,0,5.2,0.4,7.9,1.4L1046.3,526.7z"/>
	<path id="path216" d="M1069.3,529.2c0,7.6-12.5,8.6-12.5,12.7c0,0.8,0.4,1.4,1,1.9c0.8,0.4,2.2,0.7,3.7,0.7c1.6,0,3.9-0.4,6.3-1.5
		l0.8,3.8c-2.4,0.9-4.6,1.3-6.8,1.3c-5.5,0-9.6-2.6-9.6-6.8c0-7.4,12.3-7.8,12.3-12.8c0-0.9-0.4-1.6-0.9-2.2c-1-0.6-2.3-0.9-3.7-0.9
		c-1.9,0-4.5,0.6-7.3,1.9l-0.9-3.8c2.4-1.2,4.8-1.8,7.6-1.8C1066,521.7,1069.3,525.2,1069.3,529.2"/>
	<path id="path220" d="M1075.7,556.5c0.1-1.8,0.2-3.3,0.5-5.1l4.7,0.1l0.3,5.1C1079.2,556.8,1077.2,556.7,1075.7,556.5"/>
	<path id="path224" d="M1081.3,522.2v25.2h-8.4l-0.2-3.6l3.9-0.2v-21.4H1081.3z"/>
	<path id="path228" d="M1091.2,519.6c0,1.7,0.9,3.1,2.4,4.7l2.7-0.5c5.1-0.7,9.3-0.9,9.3-4.1c0-2.7-3.3-4.6-7.5-4.6
		C1094.3,515.1,1091.2,516.5,1091.2,519.6 M1094,543.8c1.5,0.7,2.6,0.9,3.6,0.9c3.7,0,5.3-2.1,5.3-5.3c0-2-0.7-3.4-1.8-4.3
		c-1.1-0.6-2.3-0.7-3.3-0.7c-3.9,0-5.7,2.1-5.7,5.1C1092.1,541.2,1092.9,542.6,1094,543.8 M1109.7,520.7c0,5.3-5.2,6.2-12.3,7.2
		c-1.1,0.2-2,0.3-3.8,0.6l0.7,2.8c0.8-0.2,1.8-0.3,2.7-0.3c5.7,0,10.7,2.9,10.7,8.4c0,2.2-0.8,3.8-2.5,5.1v0.4l5.4-0.2l0.3,3.4
		l-9.3-0.4c-1.2,0.2-2.3,0.4-3.6,0.4c-5.9,0-10.6-3.5-10.6-9.1c0-3,1.4-5.1,3.6-6.4v-0.4c-1-1.4-1.4-2.6-1.4-3.8
		c0-1.1,0.4-2,1.1-2.8v-0.4c-2.3-1.9-3.7-4-3.7-6.7c0-5.5,5.1-7.2,10.1-7.2C1104.7,511.4,1109.7,515.5,1109.7,520.7"/>
	<path id="path232" d="M1136.1,522.2v18c0,5.5-2.5,7.8-7.2,7.8c-3.7,0-6.6-1.4-9-2.9l-0.4,0.1l-0.2,2.7l-4.5-0.6v-25.1h4.8v19.5
		c2.8,1.6,5.1,2.1,7.1,2.1c3.1,0,4.6-1.3,4.6-4.6v-17.1L1136.1,522.2z"/>
	<path id="path236" d="M371.2,477.7l1.5-13.3c-3.5-0.2-6.8,0.6-10.2,2.1l1,9.3l-4.3-0.2l-0.9-9.8c-1.6-1-3.5-1.3-5.1-1.3
		c-1.4,0-2.7,0.2-4,0.7c-0.2,2.6-0.5,6.1-0.9,9.7l-4.5-0.6l1.7-14.3c-2.4-3.3-5.9-4.6-10-4.6c-6.2,0-9.3,2.9-9.3,8.8
		c0,2.2,0.4,4.4,1.1,7l-3.6,0.8c-1.3-3.5-1.8-6.5-1.8-9c0-8.1,5.3-12.4,13-12.4c7.1,0,13.2,3.6,14.2,10c1.2-0.4,2.5-0.7,3.8-0.7
		c2.8,0,5.6,0.9,8.1,2.9h0.4c3-1.7,5.8-2.9,9.4-2.9c2.1,0,3.5,0.5,4.1,1.1c1,0.8,1.6,2.3,1.6,4.3c0,2-0.5,8.1-1,12.8L371.2,477.7z"
		/>
	<path id="path240" d="M415.5,487.6l3.9,0.6l-0.4,4.5c-1.5,0-3.1-0.2-4.4-0.7C414.7,490.6,415,489.2,415.5,487.6"/>
	<path id="path244" d="M426.7,492.6c-1.5,0-3.1-0.2-4.4-0.7c0.1-1.4,0.5-2.8,0.9-4.3l3.9,0.6L426.7,492.6z"/>
	<path id="path248" d="M420.3,467.1c-3,1.7-5.1,4.2-5.4,6.9c0.6,2.6,3.3,5,5.9,5c2.7,0,5.3-1.5,6.2-6.5c-1.3-2.3-3.4-3.9-6.3-5.3
		H420.3z M439,466.4c-1.7-1.2-3.2-1.5-5.4-1.5h0h0h-3.9c-1.5,0-3.1,0.2-4.6,0.5l-0.2,0.2c3.3,2.4,5.4,5.2,5.4,8
		c0,4.6-3.7,10.2-9.1,10.2c-5.1,0-9.9-5.5-9.9-10.3c0-2.6,1.4-5.4,4-7.7l-0.2-0.2c-2.1-0.4-4.4-0.6-7-0.6c0,0,0,0,0,0c0,0,0,0,0,0
		c-2.2,0-4.2,0.7-5.7,5l-5.1,15.1l-4.4-0.7l6.4-17.6l-0.2-0.3c-3-1.6-5.9-2.3-9-2.3c-3.4,0-4.4,0.8-4.4,2.5c0,0.4,0,0.6,0.1,1.1
		l-3.6,0.4c-0.3-1-0.5-2.1-0.5-3.1c0-3.9,2.6-5.6,7.7-5.6c5.1,0,8.6,1.6,11.3,3.8h0.4c1.7-2.3,3.9-3.2,6.9-3.2c0,0,0,0,0,0
		c0,0,0,0,0,0c4,0,8,0.9,11.5,2.3h0.4c3.8-1.8,8.1-2.2,13.6-2.3c0,0,0,0,0,0c0,0,0,0,0,0c2.9,0,5.4,0.8,7.1,2.4
		c1.6,1.2,2.6,3,2.7,6.2l0.4,29.2l-5-0.5L439,466.4z"/>
	<path id="path252" d="M453.4,460.1h4.4l0.3,37.5l-4.9-0.5L453.4,460.1z"/>
	<path id="path256" d="M495.7,464.3h-13.1v18.5c2.6,0.2,4.7,0.3,6.3,0.3c3.1,0,5.1-0.1,6.6-0.3c0.1-1.3,0.2-2.7,0.2-4.7V464.3z
		 M488,487c-3.5,0-7.5-0.3-10.8-0.6l0.4-4v-22.3h23.2v17.4C500.8,486.1,498.9,487,488,487"/>
	<path id="path260" d="M508.9,486.9c-1.2,0-2.8,0-4,0l0.4-4.1h3.7v-11.7h5v11.5C513.9,486.3,512.8,486.9,508.9,486.9"/>
	<path id="path264" d="M522.4,486.8l-0.5,8.2l-4.5-0.5l0.4-7.7l0.6-4.1h14.2l0.1-0.4l-10.1-22.2h5.4l9.7,23l-0.5,3.7L522.4,486.8z"
		/>
	<path id="path268" d="M564.2,474.1c-0.8-8.1-4.5-10-10.9-10c-1.8,0-3.4,0-5,0.3l-0.6,5.2c4.9,0.6,8.6,2.5,9.4,7.8l1.6,9.5H554
		l-1.1-7.8c-0.6-4-2.3-5.5-5.2-6h-0.4l-1.4,13.8h-4.8l2.4-21.3c0.2-1.5,0.4-3,0.7-4.9c2.9-0.7,6.5-0.8,9.4-0.8
		c7.8,0,13.9,2.8,15.1,12.7l1.7,14.3h-5L564.2,474.1z"/>
	<path id="path272" d="M578.1,486.9c-1.3,0-2.7,0-3.9,0l0.3-4.1h3.7v-22.6h5v22.4C583.1,486.2,582,486.9,578.1,486.9"/>
	<path id="path276" d="M595.5,487c-2.9,0-5.6-0.2-8-0.4l0.3-4.1c2.5,0.3,5.3,0.4,7.7,0.4c2.5,0,4.6-0.1,5.9-0.3
		c0.2-1.4,0.2-2.7,0.2-4.3v-18.3h5V478C606.7,486,605.8,487,595.5,487"/>
	<path id="path280" d="M615.4,486.9c-1.2,0-2.8,0-4,0l0.4-4.1h3.7v-11.7h5v11.5C620.4,486.3,619.3,486.9,615.4,486.9"/>
	<path id="path284" d="M645.1,470.5c0-2-0.1-4.1-0.5-6.1c-1-0.4-1.9-0.5-3.4-0.5c-2,0-3.9,0.3-5.7,0.8l-0.3-3.8
		c1.6-0.8,3.4-1.3,5.7-1.3c2.7,0,5.1,0.5,6.6,2.1c1.8,1.9,2.5,5.5,2.5,10v19.6h-5L645.1,470.5z"/>
	<path id="path288" d="M660.9,475.1c0.3,2.8,1.2,4.5,2.2,5.7c1.3,1.1,3.1,1.5,4.6,1.5c3.6,0,5.4-2.4,5.6-7.2H660.9z M667.8,486
		c-7.7,0-11.8-5.8-11.8-13.5c0-8.2,4.7-12.9,12.3-12.9c2.1,0,5.2,0.4,7.9,1.4l0.3,3.6c-2.7-0.8-5.4-1.1-7.5-1.1
		c-5,0-7.9,2.4-8.2,8.4h16.7c0.3,1.4,0.3,2.6,0.3,3.9C677.8,482.5,673.9,486,667.8,486"/>
	<path id="path292" d="M688.5,482.4l-0.3,0.1l-0.1,3.3l-4.5-0.6v-25.1h4.8V479c2.1,1.7,3.9,2.2,5.9,2.2c0.9,0,1.7-0.1,2.7-0.3
		l0.4,4.3c-0.9,0.4-1.8,0.5-2.7,0.5C692.6,485.8,690.6,484.7,688.5,482.4"/>
	<path id="path296" d="M717.4,466.4c-2.7-2.4-4.7-2.9-6.6-2.9c-3.1,0-4.7,1.2-4.7,4.6v17.1h-4.8v-17.9c0-5.5,2.6-7.8,7.3-7.8
		c3.4,0,6.1,1.3,8.7,3.5l0.4-0.1l0.2-2.8h4.2v25.2h-4.8L717.4,466.4z"/>
	<path id="path300" d="M733,479.8c0,0.8,0.4,1.4,1,1.9c0.8,0.4,2.2,0.7,3.7,0.7c1.6,0,3.9-0.4,6.3-1.5l0.8,3.8
		c-2.4,0.9-4.6,1.3-6.8,1.3c-5.5,0-9.6-2.6-9.6-6.8c0-7.4,12.3-7.8,12.3-12.8c0-0.9-0.4-1.6-0.9-2.2c-1-0.6-2.3-0.9-3.7-0.9
		c-1.9,0-4.5,0.6-7.3,1.9l-0.9-3.8c2.4-1.2,4.8-1.8,7.6-1.8c6.5,0,9.8,3.5,9.8,7.5C745.6,474.7,733,475.7,733,479.8"/>
	<path id="path304" d="M765.1,466.6c-1.9-2-4.2-2.9-6.3-2.9c-2.9,0-4.5,1.7-4.5,4.2c0,1.2,0.2,2.4,0.8,3.3c1.9,1.1,4.2,1.1,6.4,1.1
		c1.3,0,2.4,0,3.5-0.2L765.1,466.6z M760.3,486c-3,0-6-0.6-8.8-1.4l-0.3-3.9c2.8,0.8,5.9,1.3,8.3,1.3c4.7,0,5.6-2,5.6-6v-0.5
		c-1,0.1-1.9,0.1-3,0.1c-2.8,0-6.1-0.2-8.3-1.4c-2.6-1.2-4.1-3.8-4.1-7.1c0-3.3,2.2-7.4,7.7-7.4c3,0,5.6,1.2,7.8,3.3l0.3-0.1
		l0.4-2.9h4.1v16.7C769.9,483.1,766.5,486,760.3,486"/>
	<path id="path308" d="M781.7,466.3v29.8l-4.8-0.6v-30.2c0-2,0.1-3.5,1-4.4c1-0.9,2.3-1,3.9-1c1.4,0,2.8,0.2,4,0.4l0.3,3.6l-4.3,0.3
		C781.7,464.8,781.7,465.4,781.7,466.3"/>
	<path id="path312" d="M794.3,475.1c0.3,2.8,1.2,4.5,2.2,5.7c1.3,1.1,3.1,1.5,4.6,1.5c3.6,0,5.4-2.4,5.6-7.2H794.3z M801.3,486
		c-7.7,0-11.8-5.8-11.8-13.5c0-8.2,4.7-12.9,12.3-12.9c2.1,0,5.2,0.4,7.9,1.4l0.3,3.6c-2.7-0.8-5.4-1.1-7.5-1.1
		c-5,0-7.9,2.4-8.2,8.4H811c0.3,1.4,0.3,2.6,0.3,3.9C811.3,482.5,807.4,486,801.3,486"/>
	<path id="path316" d="M846.6,485.9c-3.7,0-7-1.5-9.5-3l-0.4,0.2c-1.1,2-3.2,2.8-6.1,2.8c-3.3,0-6.2-1.3-8.5-2.9l-0.4,0.1l-0.2,2.7
		l-4.5-0.6v-25.1h4.8v19.6c2.6,1.5,4.9,2,6.6,2c3,0,4.5-1.3,4.5-4.6v-17.1h4.8v18c0,0.7,0,1.2-0.1,1.7c2.7,1.4,4.9,1.9,6.8,1.9
		c3,0,4.4-1.3,4.4-4.6v-17.1h4.8v18C853.7,483.7,851.2,485.9,846.6,485.9"/>
	<path id="path320" d="M888.2,478.8c0,7.2-1.9,8.2-10.3,8.2c-2.8,0-5.8-0.1-8.4-0.4l0.4-4.1c2.5,0.2,5.7,0.4,8.1,0.4
		c2,0,3.7-0.1,5.1-0.3c0.2-1.1,0.3-2.3,0.3-3.5v-14.6h-13.9v-4.3h22.9v4.1l-4,0.3L888.2,478.8z"/>
	<path id="path324" d="M897.8,486.9c-1.3,0-2.7,0-3.9,0l0.3-4.1h3.7v-22.6h5v22.4C902.8,486.2,901.7,486.9,897.8,486.9"/>
	<path id="path328" d="M929.7,486.8h-4.9l-3.8-13.1l-0.3,0l-9,13.4l-5.2-0.5l8.5-12.1c2.7-3.7,5.2-6.9,7.5-9.7l-0.1-0.4l-14,0.1
		v-4.4h19.8l0.6,4l-5.2,6.3v0.4C926.1,475.1,927.7,479.9,929.7,486.8"/>
	<path id="path332" d="M936.4,486.9c-1.2,0-2.8,0-4,0l0.4-4.1h3.7v-11.7h5v11.5C941.4,486.3,940.3,486.9,936.4,486.9"/>
	<path id="path336" d="M962.6,474.7c-0.2-4.7-2.1-7.2-5.6-8.7l-6.2,21.1l-5-0.4l7.1-22.2l-6.9-2.2v-4.6l9.8,3.2
		c6.3,2,10.8,5.5,11.5,12.9l1.1,13h-5.2L962.6,474.7z"/>
	<path id="path340" d="M976.3,486.9c-1.3,0-2.7,0-3.9,0l0.3-4.1h3.7v-22.6h5v22.4C981.3,486.2,980.2,486.9,976.3,486.9"/>
	<path id="path344" d="M1011.4,487c-4.5,0-9.5-0.2-13.8-0.5l0.4-4.1l4.6,0.3l0-15.2c0-2.2-0.6-3.2-3.1-3.2c-0.7,0-1.2,0-2.2,0.1v-4
		c0.9-0.3,2.2-0.4,3.4-0.4c5.5,0,6.9,2.4,6.9,6.6v16.3c1.6,0.1,3.1,0.1,4.3,0.1c2.7,0,5-0.1,6.9-0.5c0.2-1.8,0.2-3.5,0.2-5.1v-17.3
		h5v17.6C1023.9,485.9,1022.4,487,1011.4,487"/>
	<path id="path348" d="M1032.9,486.9c-1.3,0-2.7,0-3.9,0l0.3-4.1h3.7v-22.6h5v22.4C1037.9,486.2,1036.7,486.9,1032.9,486.9"/>
	<path id="path352" d="M1048.9,486.9c-1.9,0-2.8-0.1-4.1-0.1l0.3-4.1h5.3v-18.3h-6.8v-4.3h11.7v18
		C1055.3,484.7,1055.5,486.9,1048.9,486.9"/>
	<path id="path356" d="M1077.6,487c-3.7,0-6.9-0.8-10.6-2.8l-1,2.9l-4.6-0.3l1.9-5.9l-2.1-20.8h5.1l1.7,20.9
		c3.2,1.4,6.3,1.7,8.7,1.7c1.2,0,2.1,0,3-0.2c0.3-2,0.3-4,0.3-6.1v-12h-7.6v-4.3h12.5v17.1C1084.9,485.2,1083.5,487,1077.6,487"/>
	<path id="path360" d="M1112.7,479.5l0.7,7.4h-5l-0.4-6.3c-0.1-2.8-0.9-5.7-1.8-7.4l-0.4-0.2c-3.7,4.5-7.6,9.5-11.6,14.1l-5.5-0.4
		c2-2.1,4-4.5,6-6.8v-0.3c-1.9-2.5-3.2-5.8-3.6-9.9l-0.9-9.6h5l0.5,8.1c0.2,2.9,0.7,5.7,1.6,8l0.3,0c3.8-4.7,8.2-10.4,12.3-16.2h5.2
		v0.6c-2.1,3.2-4.3,6.1-6.5,9C1110.9,472,1112.4,475.5,1112.7,479.5"/>
	<path id="path364" d="M1122.4,486.8l-0.5,8.2l-4.5-0.5l0.4-7.7l0.6-4.1h14.2l0.1-0.4l-10.1-22.2h5.4l9.7,23l-0.5,3.7L1122.4,486.8z
		"/>
	<path id="path368" d="M1460.4,604.1h11.9l0.1-0.4l-8.8-19.9h9.1l8.6,21.2l-0.5,5.9h-13.2l-0.4,8.4l-7.8-0.7l0.3-7.8L1460.4,604.1z"
		/>
	<path id="path372" d="M1491.1,603.1c-2.4-2.4-3.9-6.3-4.2-11l-0.5-8.3h8.3l0.2,6.4c0.1,2.7,0.3,4.9,0.7,7.4h0.4
		c3.1-4.4,6-9.1,8.8-13.8h8.9v0.6c-2,3.5-4,6.6-6,9.7c2.8,2.7,4,7.3,4.2,11.8l0.3,5.1h-8.1l-0.2-4.6c-0.1-2.5-0.2-4.9-0.7-6.9h-0.3
		c-2.8,4-5.5,7.8-8.4,11.7l-9.5-0.7c2.2-2.6,4.2-4.9,6.1-7.3L1491.1,603.1z"/>
	<path id="path376" d="M1518,604.1h11.9l0.1-0.4l-8.8-19.9h9.1l8.6,21.2l-0.5,5.9h-13.2l-0.4,8.4l-7.8-0.7l0.3-7.8L1518,604.1z"/>
	<path id="path380" d="M1555.6,591.4l-0.1-0.4h-11.3v-7.2h21.8l1.1,6l-4.8,5.1v0.4c2.8,3.5,4,7.5,5.6,15.7h-7.9l-2-11l-0.3-0.1
		l-6.8,11.4l-8.9-0.7l6.9-10C1551.9,596.2,1553.6,594.1,1555.6,591.4"/>
	<path id="path384" d="M1581.3,604.1c1.3,0,2.6,0,3.6-0.2c0.1-0.7,0.2-1.5,0.2-2.7v-10h-11.7v-7.3h23.6v6.9l-3.4,0.3v9.7
		c0,9.2-2.8,10.5-11.5,10.5c-3,0-6-0.1-8.8-0.5l0.6-7.1C1576.2,603.9,1578.9,604.1,1581.3,604.1"/>
	<path id="path388" d="M1466.5,513.4l-0.6,6c-1.9,0.2-4.2-0.2-6-0.7c0.1-2.2,0.6-4,1.2-5.9L1466.5,513.4z"/>
	<path id="path392" d="M1474.6,519.4c-1.9,0.2-4.2-0.2-6-0.7c0.1-2.2,0.6-4,1.2-5.9l5.4,0.7L1474.6,519.4z"/>
	<path id="path396" d="M1494.3,549.9l-2.4-0.5c-2.4,0.7-4.9,1.7-5.3,2.8c0.7,0.4,1.5,0.6,2.5,0.6c0.8,0,1.7-0.2,2.5-0.5l0.7,4.8
		c-1.2,0.5-2.1,0.6-3.1,0.6c-3.6,0-6-2.9-6-6.2c0-1.1,0.7-2.2,1.8-3.3l-2.9-0.6V544l12.3,2V549.9z"/>
	<path id="path400" d="M1579.7,545.5l-0.6,6c-1.9,0.2-4.2-0.2-6-0.7c0.1-2.2,0.6-4,1.2-5.9L1579.7,545.5z"/>
	<path id="path404" d="M1566.2,544.8l5.4,0.7l-0.6,6c-1.9,0.2-4.2-0.2-6-0.7C1565.1,548.5,1565.6,546.7,1566.2,544.8"/>
	<path id="path408" d="M1586.4,518.7c0.1-2.2,0.6-4,1.2-5.9l5.4,0.7l-0.6,6C1590.4,519.6,1588.2,519.3,1586.4,518.7"/>
	<path id="path412" d="M1595.4,532.9c0,2.1-0.2,6.7-0.5,10.7l-7.7-0.8l1.4-12.5c-2-0.7-3.8-1-6.6-1c-2.2,0-4.4,0.3-6.1,1l0.4,11.3
		l-7.4-0.4l-0.4-10.9c-1.5-0.6-3.2-0.9-6-0.9c0,0,0,0,0,0c0,0,0,0,0,0c-4.5,0-4.9,1.2-5.1,3.5l-0.8,8.7l-7.4-0.7l1.1-8.5
		c0.1-1,0.3-2,0.4-3c-1-0.2-2.1-0.3-3.2-0.3c-1.6,0-3.5,0.3-5.4,0.9l1.3,8.7l-7.2,0.3l-1-9c-1.2-0.7-2.1-0.9-3.5-0.9
		c-1.7,0-3,0.3-4.5,0.9l0.5,3.1l0.8,5.6l-7-0.2l-0.7-6.4c-0.2-2.2-1.7-2.8-4.7-2.8c0,0,0,0,0,0s0,0,0,0c-2,0-4.1,0.3-5.6,1l0.5,28.7
		l-8.4-0.7l0.5-28.1c-1.3-0.6-2.8-1-5.2-1h0c0,0,0,0,0,0c-2.2,0-4.4,0.3-6.1,1l0.4,11.3l-7.4-0.4l-0.4-10.9c-1.5-0.6-3.2-0.9-6-0.9
		c0,0,0,0,0,0c0,0,0,0,0,0c-2.2,0-4.4,0.3-6.1,1l0.4,11.3l-7.4-0.4l-0.4-10.9c-1.5-0.6-3.2-0.9-6-0.9l0,0l0,0c-1.8,0-4,0.2-5.8,1
		l0.3,28.8l-8.4-0.7l0.9-35.1c-2.4-1.3-4.9-2-7.8-2c-4.9,0-6.8,2.1-6.8,6.1c0,1.8,0.3,4,1.2,6.7l-6.3,1.1c-1.6-4-2.1-7.1-2.1-9.6
		c0-7.7,4.9-12.6,13.3-12.6c7.7,0,14.3,4,15.6,11v0l0.3,0.1c1.7-1.5,4-2.2,5.8-2.2l0,0l0,0c3.3,0,6.7,0.7,9.5,2.9h0.4
		c3-2.5,6-2.9,9.6-2.9h0l0,0c3.3,0,6.6,0.7,9.5,2.9h0.4c3-2.5,6-2.9,9.6-2.9h0h0c3.1,0,6.1,0.6,9.1,2.9h0.4c2.8-2.4,6.1-2.9,8.8-2.9
		c0,0,0,0,0,0c0,0,0,0,0,0c3.2,0,6.4,0.7,8.4,2.5h0.4c2.7-2.3,5.6-2.7,7.2-2.7c2.8,0,5.3,1,7.1,2.4h0.4c1.9-1.6,4.1-2.5,7.4-2.5
		c2.8,0,5.1,0.6,7.4,2.1h0.4c1.9-1.1,4.4-1.8,7.8-1.8c0,0,0,0,0,0c0,0,0,0,0,0c3.3,0,6.7,0.7,9.5,2.9h0.4c3-2.5,6-2.9,9.6-2.9
		c3.9,0,7.4,0.8,9.3,1.8C1594.1,525.1,1595.4,528.1,1595.4,532.9"/>
	<path id="path416" d="M1443.1,465.5c-0.8-0.3-2.1-0.3-3.2-0.3c-1.1,0-1.5,0.1-2.3,0.2v7.4h2.7c2.8,0,4.2-1,4.2-4
		C1444.5,467.5,1444.2,466.5,1443.1,465.5 M1437.6,485.2c1,0.1,2,0.1,2.6,0.1c2.2,0,3.7-0.9,3.7-3.2c0-1.3-0.5-2.5-1.6-3.2
		c-0.7-0.2-1.8-0.2-3.3-0.2h-1.3V485.2z M1447.8,476.1v0.4c2.8,1.6,4.1,3.8,4.1,6.8c0,5.1-3.9,7.8-11.7,7.8c-2.3,0-7-0.2-10.7-0.8
		v-30.7c5.7-0.6,9.2-0.6,9.9-0.6c8.6,0,13.3,3.5,13.3,9.9C1452.7,472.9,1451,475.1,1447.8,476.1"/>
	<path id="path420" d="M1465.7,475.2c0.2,1.4,0.5,2.8,1.1,3.8c1.1,0.8,2.6,0.9,3.2,0.9c2.5,0,3.4-1.4,3.6-4.8L1465.7,475.2z
		 M1470.5,485.9c-8,0-12.8-5.3-12.8-13.9c0-8.7,5.2-13,13.2-13c2.6,0,5.7,0.4,8.5,1.3l0.4,5.7c-3.2-0.6-5.3-0.8-7.9-0.8
		c-3.7,0-5.7,1-6.2,5h15.2c0.5,2,0.5,3.6,0.5,5.2C1481.4,482.2,1477.3,485.9,1470.5,485.9"/>
	<path id="path424" d="M1496,466.5l10.2,13.9l-0.1,5h-19.3l-0.4-6.1h10.2l0.1-0.4l-10.5-13.7l-0.3-5.6h19.8l0.7,6.5h-10.5
		L1496,466.5z"/>
	<path id="path428" d="M1525.5,466.8c-1.7-1.3-3.3-1.5-4.2-1.5c-1.9,0-2.8,1-2.8,2.7c0,0.6,0.1,1.3,0.6,2.1c0.9,0.5,2.1,0.8,3.5,0.8
		c0.7,0,1.8-0.1,3-0.1L1525.5,466.8z M1522.5,486c-2.9,0-6.4-0.6-9.5-1.6l-0.5-6.4c2.9,0.8,6.4,1.2,8.6,1.2c4.5,0,4.6-1.7,4.5-4
		v-0.1c-0.6,0.1-1.4,0.1-2.4,0.1c-2.6,0-5.3-0.4-7.2-1.1c-3.4-1.3-5.3-4.1-5.3-7.4c0-3.1,1.8-7.6,8-7.6c2.6,0,4.8,0.9,7.1,3l0.3-0.1
		l0.8-2.5h6.4v16.9C1533.5,483,1529.3,486,1522.5,486"/>
	<path id="path432" d="M1548.4,468.5v27.7l-7.9-1.1v-27.8c0-3.3,0.4-5.4,1.7-6.6c1.4-1.2,3.2-1.4,5.1-1.4c1.8,0,3.7,0.3,4.8,0.5
		l0.5,6.1l-4,0.3C1548.4,466.8,1548.4,467.5,1548.4,468.5"/>
	<path id="path436" d="M1564.4,475.2c0.2,1.4,0.5,2.8,1.1,3.8c1.1,0.8,2.6,0.9,3.2,0.9c2.5,0,3.4-1.4,3.6-4.8L1564.4,475.2z
		 M1569.2,485.9c-8,0-12.8-5.3-12.8-13.9c0-8.7,5.2-13,13.2-13c2.6,0,5.7,0.4,8.5,1.3l0.4,5.7c-3.2-0.6-5.3-0.8-7.9-0.8
		c-3.7,0-5.7,1-6.2,5h15.2c0.5,2,0.5,3.6,0.5,5.2C1580.1,482.2,1576,485.9,1569.2,485.9"/>
	<path id="path440" d="M1593.9,466.1c-0.1,0.7-0.1,1.4-0.1,2.4v27.7l-7.9-1.1v-27.8c0-3.3,0.4-5.4,1.7-6.6c1.4-1.2,3.2-1.4,5.1-1.4
		c1.8,0,3.7,0.3,4.8,0.5l0.5,6.1L1593.9,466.1z"/>
	<path id="path444" d="M1228.1,598c0.8,0,1.4,0.6,1.4,1.4c0,0.8-0.6,1.4-1.4,1.4c-0.8,0-1.4-0.6-1.4-1.4
		C1226.8,598.6,1227.4,598,1228.1,598"/>
	<path id="path448" d="M1366.6,532.6l-3.5,0.1c0,3-0.1,7.3-0.3,9.9c-0.9,0-1.4,0-2.2-0.2c0.2-4.4,0.3-7.6,0.1-11.6l7.9-0.1
		c0,0.5-0.1,7.7-0.2,10.1l2.1,0.1c0.2-3.4,0.2-6.7,0.1-10.5c0.8-0.1,1.3-0.1,2.2-0.1c0.2,2.7-0.2,12.4-0.2,12.7l-6.3-0.4
		C1366.3,542.5,1366.6,535.5,1366.6,532.6"/>
	<path id="path452" d="M1303.9,583.5c-0.3-0.1-1.1-0.1-1.7-0.4l0.8-1.3c0.4,0.3,1.2,0.4,0.8,1.2c-0.7-0.1,0-0.6-0.8-0.6
		c-0.2,0-0.3,0.1-0.3,0.2C1302.8,583.3,1304.1,582.9,1303.9,583.5"/>
	<path id="path456" d="M1262.2,582.5c-0.8,0-0.1,0.4-0.8,0.6c-0.4-0.8,0.4-1,0.8-1.2l0.8,1.3c-0.6,0.3-1.4,0.3-1.7,0.4
		c-0.1-0.6,1.1-0.2,1.1-0.8C1262.5,582.6,1262.4,582.5,1262.2,582.5"/>
	<path id="path460" d="M1322.1,482l13.2,0c0.5,0.5,1,1,1.5,1.6l-15.4,0c-12.6,3-25.7,4.6-38.8,4.6c-13.1,0-26.2-1.5-38.8-4.6
		l-15.4,0c0.5-0.5,1-1,1.5-1.6l13.2,0v-3.7l-9.2,0c13.1-11.3,30.1-18.1,48.7-18.1c18.6,0,35.6,6.8,48.7,18.1l-9.2,0L1322.1,482z"/>
	<path id="path464" d="M1231.3,549.9c0.1-0.5,0.2-1,0.3-1.5l-21.5-21.4c-0.1,0.7-0.2,1.4-0.2,2.1L1231.3,549.9z M1211.3,550.1
		l19.2,13.3c0-0.5,0-1-0.1-1.5l-19.5-13.9C1211,548.7,1211.1,549.4,1211.3,550.1 M1220.5,573.3l13.4,5.7c-0.2-0.5-0.4-1-0.5-1.4
		l-14-6.1C1219.7,572.1,1220.1,572.7,1220.5,573.3 M1234.8,590.2l6.3,1.2c-0.3-0.4-0.6-0.8-0.9-1.2l-7-1.5
		C1233.8,589.3,1234.3,589.7,1234.8,590.2 M1334.1,544.6l0-2.3l-102.8,0v2.3L1334.1,544.6z M1272,548.7c-0.2,0-0.4,0.1-0.6,0.1
		c-0.5,5.2-1.4,9-2.9,12.1c0.2,1.6,0.2,3.8-0.3,5.8c1.6-1.8,3.4-2.9,5.4-3.6c2.4-0.8,1-1.7-0.3-1.7c-1.3,0-2.5,0.2-3.2,0.7
		c0.9-1.6,2.8-2.9,4.8-3.4c1.3-0.4,1.3-1.2,0-1.2c-0.1,0-0.1,0-0.2,0c-1.4,0.1-3.4,0.8-5.2,1.9c3.5-4.8,8.9-6.9,14.4-7.5
		c2.9-0.3,2.8-2.8-0.6-2.9c-4-0.1-7.5,0.3-11.5,2.8c2.2-2.6,7.4-4.8,11.9-5.6l-8.3,0C1275.3,546.6,1275.1,548.5,1272,548.7
		 M1272.7,574.8l-3-7.6c-0.2,0.2-0.3,0.3-0.5,0.5l-0.4,0.4l3.2,7C1272.2,575,1272.4,574.9,1272.7,574.8 M1277.8,573.3l-1.8-10.2
		c-0.1,0.2-0.3,0.4-0.5,0.5c-0.2,0.2-0.4,0.3-0.6,0.4l2.1,9.4C1277.3,573.4,1277.5,573.4,1277.8,573.3 M1283.5,553.4
		c-0.6,0.1-1.1,0.1-1.7,0.3l0.5,19.2c0.1,0,0.3,0,0.4,0c0.1,0,0.3,0,0.4,0L1283.5,553.4z M1266.4,581.4c0,1.3,0.2,2.6,0.4,3.7
		c3.9-4.4,9.6-7.1,15.9-7.1c6.3,0,11.9,2.8,15.9,7.1c0.2-1.2,0.3-2.4,0.3-3.8c-4.3-3.9-10-6.2-16.2-6.2
		C1276.4,575.2,1270.7,577.5,1266.4,581.4 M1267.9,589.2c3.2-4.7,8.6-7.8,14.7-7.8c6.1,0,11.5,3.1,14.7,7.7c0.2-0.4,0.3-0.9,0.5-1.3
		c-3.5-4.6-9-7.6-15.2-7.6c-6.2,0-11.7,3-15.2,7.6C1267.6,588.3,1267.7,588.8,1267.9,589.2 M1274.9,597.3c0.9-3.4,4-6,7.8-6
		c3.7,0,6.8,2.5,7.8,6c1.9-1.1,3.4-2.4,4.7-4.1c-2.3-4.6-7-7.7-12.4-7.7c-5.5,0-10.2,3.2-12.5,7.8
		C1271.5,594.8,1273,596.2,1274.9,597.3 M1279.1,606.6c0,0.5-0.1,1.4-0.3,1.8c1.2,0.1,2.6,0.1,3.9,0.1c1.2,0,2.6,0,3.9-0.1
		c-0.2-0.4-0.3-1.3-0.3-1.8c-1.1,0.5-2.3,0.9-3.5,0.8C1281.4,607.4,1280.2,607.1,1279.1,606.6 M1292.6,574.8
		c0.2,0.1,0.5,0.2,0.7,0.3l3.2-7l-0.4-0.4c-0.2-0.2-0.3-0.3-0.5-0.5L1292.6,574.8z M1287.6,573.3c0.3,0,0.5,0.1,0.8,0.2l2.1-9.4
		c-0.2-0.1-0.4-0.3-0.6-0.4c-0.2-0.2-0.4-0.3-0.5-0.5L1287.6,573.3z M1297.2,566.7c-0.5-2-0.6-4.2-0.3-5.8
		c-1.5-3.1-2.4-6.9-2.9-12.1c-0.2,0-0.4-0.1-0.7-0.1c-2.5-0.2-3.1-1.3-3.3-2.1c-1.4,0.2-2.9,0.4-4.2,0.6c2.3,0.8,3.9,1.6,5.2,2.4
		c1.2,0.8,2,1.5,2.6,2.1c-2-1.2-4.2-2-6.6-2.4c0.2,0.4,0.3,0.8,0.3,1.1c0,0.8-0.3,1.7-1.4,2.3c4.6,1.2,7.2,3.2,9.9,6.5
		c-1.8-1.1-3.8-1.8-5.2-1.9c-0.1,0-0.1,0-0.2,0c-1.2,0-1.3,0.8,0,1.2c2,0.6,3.8,1.9,4.8,3.4c-0.7-0.5-1.9-0.7-3.2-0.7
		c-1.3,0-2.7,0.9-0.3,1.7C1293.8,563.8,1295.7,564.9,1297.2,566.7 M1331.9,577.6c-0.2,0.5-0.4,1-0.5,1.4l13.5-5.7
		c0.4-0.6,0.8-1.2,1.1-1.9L1331.9,577.6z M1324.2,591.4l6.3-1.3c0.5-0.4,1.1-0.9,1.5-1.4l-7,1.5
		C1324.8,590.7,1324.4,591,1324.2,591.4 M1354.5,548l-19.6,13.9c0,0.5,0,1-0.1,1.5l19.2-13.3C1354.2,549.4,1354.4,548.7,1354.5,548
		 M1355.2,527l-21.5,21.4c0.1,0.5,0.2,1,0.3,1.5l21.4-20.8C1355.3,528.4,1355.3,527.6,1355.2,527 M1335,524.8l-6.9,9.8l0,2.4l0.2,0
		l8.9-12.2L1335,524.8z M1326.5,533.5l-18.6,0c-1.6,1.5-3.4,2.6-5.3,3.5l23.9,0L1326.5,533.5z M1320.7,524.8
		c-0.5,1.2-1.7,2.1-3.1,2.1c-1.4,0-2.6-0.9-3.1-2.1l-6.1,0v7.2l14.7,0l0.9-7.2L1320.7,524.8z M1315.9,517.6l0,6c0,1,0.8,1.7,1.7,1.7
		c0.9,0,1.7-0.8,1.7-1.7v-6c0-1-0.8-1.7-1.7-1.7C1316.7,515.9,1315.9,516.7,1315.9,517.6 M1325.1,516.4l1.4-10.9l-18.1,0l0,10.9
		l6.1,0c0.5-1.2,1.7-2.1,3.1-2.1c1.4,0,2.6,0.9,3,2.1L1325.1,516.4z M1327,501.8h-18.6l0,2.1l18.3,0L1327,501.8z M1331.3,494.7
		l-22.9,0v5.6l22.9,0L1331.3,494.7z M1283.4,494.7v21.7l23.5,0l0-21.7L1283.4,494.7z M1258.4,494.7v21.7l23.5,0v-21.7L1258.4,494.7z
		 M1256.8,494.7l-22.9,0l0,5.6l22.9,0V494.7z M1238.5,504l18.3,0l0-2.1h-18.6L1238.5,504z M1240.2,516.5l4.4,0
		c0.5-1.2,1.7-2.1,3.1-2.1c1.4,0,2.6,0.9,3.1,2.1l6.1,0l0-10.9l-18.1,0L1240.2,516.5z M1249.4,523.6l0-6c0-1-0.8-1.7-1.7-1.7
		c-0.9,0-1.7,0.8-1.7,1.7v6c0,1,0.8,1.7,1.7,1.7C1248.6,525.4,1249.4,524.6,1249.4,523.6 M1241.2,524.8l0.9,7.2l14.7,0l0-7.2l-6.1,0
		c-0.5,1.2-1.7,2.1-3.1,2.1c-1.4,0-2.6-0.9-3.1-2.1L1241.2,524.8z M1238.7,537l23.9,0c-1.9-0.9-3.7-2-5.3-3.5h-18.6L1238.7,537z
		 M1234.5,538.6v2.2l96.3,0l0-2.1L1234.5,538.6z M1306.9,524.8l-23.5,0l0,7.6c0.1,0.1,0.3,0.2,0.4,0.3c0.3,0.3,0.6,0.5,1,0.8
		c3,2.3,6.6,3.5,10.4,3.5l0.1,0c3.8,0,7.4-1.2,10.4-3.5c0.3-0.2,0.6-0.5,1-0.8c0.1-0.1,0.3-0.2,0.4-0.3L1306.9,524.8z M1314.3,523.2
		V518l-63.4,0v5.2L1314.3,523.2z M1277.6,537l10.1,0c-1.8-0.8-3.5-1.9-5-3.2C1281.1,535.2,1279.4,536.2,1277.6,537 M1280.5,533.5
		c0.3-0.2,0.6-0.5,1-0.8l0.4-0.3l0-7.6l-23.5,0l0,7.6c0.1,0.1,0.3,0.2,0.4,0.3c0.3,0.3,0.6,0.5,0.9,0.8c3,2.3,6.6,3.5,10.4,3.5
		l0.1,0C1273.9,537,1277.5,535.8,1280.5,533.5 M1230.3,524.8l-2.2,0l8.9,12.2l0.2,0v-2.5L1230.3,524.8z M1264.9,578.9
		c-0.5,0-1-0.1-1.6-0.4c-0.6,0.6-0.8,1.1-0.8,1.7c0.2-0.1,0.4-0.1,0.6-0.2c0.3-0.1,0.5,0.2,0.5,0.5c0,1.4,0.3,2.1,0.5,2.5
		c0.3,0,0.5,0.1,0.7,0.2c0.1,0.1,0.1,0.1,0.2,0.2C1264.8,582,1264.8,580.5,1264.9,578.9 M1257.8,585.1c0.5,2.2,2.3,2.9,3.8,2.7
		c1.5-0.1,3.1-1.2,3.2-2.8c0-0.3-0.1-0.8-0.4-1c-0.3-0.2-0.7-0.1-1,0.1C1261.8,584.7,1259.8,585.1,1257.8,585.1 M1255.5,582.1
		c0.1,0.6,0.1,1.3,0.1,2c1.5,0.2,3,0.2,4.4,0C1259.3,583.4,1258,582.3,1255.5,582.1 M1300.5,583.3c0.2-0.1,0.4-0.2,0.7-0.2
		c0.2-0.4,0.5-1.1,0.5-2.5c0-0.3,0.3-0.6,0.5-0.5c0.2,0,0.4,0.1,0.6,0.2c-0.1-0.6-0.3-1.1-0.8-1.7c-0.6,0.2-1.1,0.4-1.6,0.4
		c0.1,1.6,0.1,3.2-0.1,4.6C1300.4,583.5,1300.4,583.4,1300.5,583.3 M1303.7,587.8c0.1,0,0.3,0,0.4,0c1.1,0,2.2-0.4,2.9-1.6
		c-2.7,0-5.1-0.7-6.4-1.5c0,0.1,0,0.2,0,0.2C1300.6,586.6,1302.2,587.7,1303.7,587.8 M1307.3,585.6c0-0.2,0.1-0.4,0.2-0.6
		c-2,0-4-0.4-5.6-1c-0.3-0.1-0.7-0.2-1-0.1c-0.1,0.1-0.1,0.1-0.2,0.2C1302.1,585,1304.4,585.7,1307.3,585.6 M1309.7,584.1
		c0-0.3,0-0.7,0-1c-1.3,0.2-1.9,0.7-2.2,1.2C1308.2,584.2,1308.9,584.2,1309.7,584.1 M1309.8,582.1c-2.5,0.1-3.9,1.3-4.5,2
		c0.5,0.1,1,0.1,1.5,0.1c0.3-0.6,1.1-1.6,2.9-1.7C1309.8,582.4,1309.8,582.2,1309.8,582.1 M1208.7,523.3h35.6l0-5.3l-34.6,0
		c2.1-9,5.9-17.4,10.9-24.8l123.9,0c5.1,7.4,8.8,15.8,10.9,24.8l-34.6,0v5.2l35.7,0c0.6,3.9,0.9,7.8,0.9,11.9
		c0,32.1-20.3,59.5-48.7,70.1c-3.2,1.2-6.4,2.2-9.8,2.9c3.2-1.1,6.8-2.8,10.5-5.2c14.5-9.5,29.2-29.4,22.1-56.6
		c0-0.1-0.1-0.2-0.1-0.3l-2.1,0c0,0.1,0,0.3,0.1,0.5c0.2,0.6,0.3,1.1,0.6,2.3c-0.7-1-1.4-1.9-2.2-2.7l-3.5,0
		c0.9,1.1,1.4,2.3,1.6,3.7c-1-1.5-2.1-2.8-3.3-3.7l-2.6,0c0,0,0.1,0.1,0.1,0.1c1.2,0.8,4,3.9,3.9,7.6c-0.7-3.1-3.3-6.1-6.1-7.7
		l-2.8,0c0,0,0.1,0,0.1,0.1c1.5,0.7,4.4,2.7,5.2,4.4c-2.5-1.8-5.2-3.4-7.8-4.5l-4.3,0c3.6,1.6,6.8,3.5,8.3,6.9
		c-3.8-3.2-8.2-5.7-14.8-6.9l-10.4,0c0,0.4,0.6,0.9,1.9,1c9.2,0.8,21.4,5.1,24.2,12.9c-4.6-4.9-11.5-8.8-17.2-8.4
		c-2.1,0.2-2.7,1.8-0.3,2.2c7.7,1.2,15.1,5.7,16.1,12.7c-1.4-3.7-4.2-6.1-7.5-6.7c-1.2-0.2-2.1,0.6-0.4,1.2c2.1,0.7,4.9,2.8,5.2,5.2
		c-1-1.9-2.9-2.6-4.3-2.7c-1.1,0-1,0.5,0,0.9c0.2,0.1,0.5,0.2,0.7,0.4c1.4,1.1,2.3,3.7,2.3,7.4c0,0.3,0,0.6,0,0.9
		c-3.4-2.2-6.2-4.7-6.1-7.4c0.1-2.5-0.3-6.6-2.3-9.5c-1.2-0.4-2.5-0.7-3.8-0.9c-2.2-0.4-2.9-1.6-2.9-2.7c0.1-1.4,1.4-2.5,3.3-2.6
		c0.2,0,0.4,0,0.5,0c-1.9-0.5-3.9-0.9-5.9-1.2c0.9,7.7,2.2,11.8,5.7,16.5l-0.2,0.1c-1.1-0.9-1.9-2-2.7-3.2c-0.1,1.6,0.2,3.6,0.8,5.1
		c0.1-0.1,0.2-0.3,0.4-0.4l0.2-0.2l0.3,0.1c2.3,0.5,5.9,2.6,8.4,4.7l-0.3,0.4c-2.4-1.8-5.8-3.5-8-4c-0.9,0.8-1.9,1.8-1.3,5.1
		l-0.2,0.1c-0.4-1.1-0.6-2-0.6-2.8c-0.6,0.2-0.9,1.1-0.7,3.9c0.2,1.7,0.4,2.1,1.7,3c1.3,0.9,2.5,0.7,3.6,0.2c0.6-0.3,0.4-0.6,0-0.6
		c-0.4,0-1.3,0-1.3,0c0.8-0.4,1.2-0.7,1.5-0.9c0.3-0.2,0.3-0.6-0.4-0.5c-0.6,0.1-1.3,0.3-1.8,0.4c0.5-0.4,0.8-0.6,1.1-1
		c0.2-0.3-0.1-0.6-0.5-0.3c-0.4,0.3-1.1,0.6-1.8,0.6c0.5-0.3,0.8-0.5,1.1-0.7c0.3-0.2,0-0.5-0.3-0.3c-0.5,0.3-1.8-0.2-2.4,0.2
		l0.2-0.5c0.3-0.3,0.7-0.3,1.3-0.3l0.3,0c0.1,0,0.2,0,0.2,0c0.2-0.1,0.4-0.2,0.6-0.2c0.4,0,0.7,0.2,0.9,0.4c0.1,0,0.2,0,0.3,0
		c0.4,0,0.8,0.2,1,0.6c0.1,0.1,0.1,0.3,0.1,0.4c0.6,0,0.9,0.3,1,0.7c0.1,0.3,0.1,0.7-0.2,1.1c0.1,0.1,0.2,0.3,0.3,0.5
		c0,0.2,0.1,0.7-0.6,1.1c0.3,0.4,0.5,0.8,0.6,1.3c0.4,0,1.3,0.2,1.6,0.1c0-0.2-0.3-0.3-0.5-0.4V579c0.4,0.1,0.7,0.2,0.8,0.5
		c0.1,0.2,0.3,0.7-0.1,0.6c-0.4,0-1.2,0-1.6,0.1c0,0.1,0,0.2,0,0.4c0.2,0.2,0.3,0.4,0.4,0.6l-0.2,0.1c-0.2-0.2-0.6-0.4-1.2-0.4
		c-0.1,1.1-0.3,1.8-0.5,2.4c0.1,0,0.2,0.1,0.3,0.1c0.7,0.3,1.6,0.5,2.5,0.7c0.3-0.4,0.9-1.1,2-1.6c0.3-1.1-0.2-2.9-0.8-3.6
		c-0.2-0.1-0.4-0.2-0.6-0.3c-0.9-0.6-1.3-1.6-1.5-3c-0.5-0.1-1.1-0.4-1.4-1.1l0.2-0.1c0.2,0.5,1.2,0.6,1.9,0.4
		c0.2,1.3,0.7,2.6,1.4,3.1c0.6,0.5,1.6,0.8,2.7,0.6l0.1,0.4c-0.6,0.2-1.1,0.3-1.7,0.3c0.5,1.2,0.5,2.1,0.2,3.1
		c0.7-0.3,1.7-0.6,2.8-0.6c0.2-1.4,0.7-2.7,1.6-4l0.7,0.5l0,0v0c0.3,1.5,0.4,2.9,0.4,4.2c0,8.6-5.5,14.3-9.3,16.5
		c4.6-4,8.7-9.4,8-18.9c-0.5,1.4-0.7,2.9-0.7,4.6c0,0.2-0.2,0.4-0.4,0.4c-0.6,0.1-1.2,0.1-1.8,0.2c-0.6,2.9-2.9,3.7-4.6,3.6
		c-1.6-0.1-3.2-1.1-3.7-2.7c-1.2,6.1-4.7,10.8-10.2,13.4c-5.4,2.5-3.8,5.7-1.2,5.4c-0.7,0.9-1,2.1-0.5,3.1c0.4,0.8,1.4,1.4,3.2,1.6
		c-1.2,0.1-2.4,0.2-3.6,0.3c-1.6,0.1-3.3,0.2-5,0.2c-1.7,0-3.3-0.1-5-0.2c-1.2-0.1-2.4-0.2-3.5-0.3c1.7-0.2,2.7-0.8,3.1-1.6
		c0.5-1,0.2-2.2-0.5-3.1c2.5,0.3,4.1-2.9-1.3-5.4c-5.5-2.6-8.9-7.3-10.2-13.4c-0.5,1.6-2.2,2.5-3.8,2.7c-1.8,0.2-4.1-0.7-4.6-3.6
		c-0.6,0-1.2-0.1-1.8-0.2c-0.2,0-0.4-0.2-0.3-0.4c0-1.7-0.2-3.2-0.7-4.7c-0.7,9.5,3.4,15,8,18.9c-4.5-2.6-11.1-9.8-8.9-20.8l0.7-0.5
		c0.9,1.3,1.3,2.6,1.6,4c1.1,0.1,2.1,0.3,2.8,0.6c-0.3-1-0.3-1.9,0.1-3.1c-0.5,0-1.1-0.1-1.6-0.3l0.1-0.4c1.1,0.2,2-0.1,2.7-0.5
		c0.7-0.5,1.2-1.8,1.4-3.1c0.8,0.1,1.7,0.1,1.9-0.4l0.1,0.1c-0.3,0.6-0.9,1-1.4,1.1c-0.2,1.4-0.6,2.4-1.5,3
		c-0.2,0.1-0.4,0.2-0.6,0.3c-0.6,0.7-1.1,2.4-0.8,3.6c1,0.5,1.6,1.2,2,1.6c0.9-0.2,1.7-0.4,2.4-0.7c0.1,0,0.2-0.1,0.3-0.1
		c-0.2-0.5-0.4-1.3-0.5-2.4c-0.6,0.1-1,0.2-1.2,0.4l-0.2-0.1c0.1-0.3,0.2-0.5,0.4-0.6c0-0.1,0-0.2,0-0.4c-0.4-0.1-1.2-0.1-1.6-0.1
		c-0.4,0-0.2-0.4-0.1-0.6c0.1-0.2,0.4-0.4,0.8-0.5v0.2c-0.2,0.1-0.5,0.3-0.5,0.4c0.3,0.1,1.2,0,1.6,0c0.1-0.5,0.4-1,0.6-1.3
		c-0.6-0.4-0.6-0.9-0.5-1.1c0-0.2,0.1-0.3,0.3-0.5c-0.3-0.3-0.3-0.7-0.2-1.1c0.1-0.3,0.4-0.7,1-0.7c0-0.1,0-0.3,0.1-0.4
		c0.2-0.4,0.5-0.6,1-0.6c0.1,0,0.2,0,0.3,0c0.2-0.3,0.5-0.4,0.8-0.4c0.2,0,0.4,0.1,0.6,0.2c0,0,0.1,0,0.2,0l0.3,0
		c0.6,0,1,0.1,1.3,0.3l0.2,0.5c-0.7-0.4-1.9,0.1-2.4-0.2c-0.3-0.2-0.6,0.1-0.3,0.3c0.2,0.2,0.6,0.5,1.1,0.7
		c-0.7-0.1-1.4-0.3-1.8-0.6c-0.4-0.3-0.8,0-0.5,0.3c0.3,0.4,0.7,0.7,1.1,1c-0.4-0.1-1.1-0.3-1.8-0.4c-0.6-0.1-0.6,0.2-0.4,0.5
		c0.3,0.2,0.6,0.5,1.4,0.9c0,0-0.8,0.1-1.2,0c-0.4,0-0.6,0.3,0,0.5c1.1,0.5,2.3,0.7,3.6-0.2c1.3-1,1.5-1.3,1.7-3
		c0.3-2.8-0.1-3.7-0.7-3.9c0,0.8-0.2,1.7-0.6,2.8l-0.2-0.1c0.6-3.3-0.4-4.3-1.3-5.1c-2.2,0.5-5.7,2.1-8,4l-0.3-0.4
		c2.5-2.1,6.1-4.2,8.4-4.8l0.3-0.1l0.2,0.2c0.1,0.1,0.3,0.2,0.4,0.4c0.6-1.5,0.9-3.5,0.8-5.1c-0.8,1.2-1.6,2.2-2.7,3.2l-0.2-0.1
		c3.4-4.8,4.8-8.9,5.7-16.6c-2,0.3-4,0.6-5.9,1.2c0.2,0,0.4,0,0.5,0c1.9,0.1,3.2,1.2,3.3,2.6c0,1.1-0.7,2.3-2.9,2.7
		c-1.3,0.2-2.6,0.5-3.9,0.9c-2,2.9-2.4,7-2.3,9.5c0.1,2.7-2.7,5.2-6.1,7.4c0-0.3,0-0.6,0-0.9c0-3.7,0.9-6.3,2.3-7.4
		c0.2-0.2,0.4-0.3,0.7-0.4c1-0.4,1-1,0-0.9c-1.3,0-3.3,0.8-4.3,2.7c0.2-2.4,3.1-4.5,5.2-5.2c1.8-0.6,0.9-1.4-0.3-1.2
		c-3.3,0.5-6.1,2.9-7.5,6.7c1-7,8.4-11.4,16.1-12.7c2.4-0.4,1.8-2-0.3-2.2c-5.7-0.4-12.5,3.5-17.2,8.4c2.8-7.7,14.9-12.1,24.2-12.9
		c1.4-0.1,2-0.6,1.9-1l-10.4,0c-6.6,1.2-11,3.7-14.8,6.9c1.5-3.4,4.6-5.3,8.3-6.9l-4.3,0c-2.5,1.1-5.3,2.6-7.8,4.5
		c0.8-1.8,3.7-3.7,5.2-4.4c0,0,0.1,0,0.1-0.1l-2.8,0c-2.8,1.6-5.3,4.6-6.1,7.7c0-3.7,2.7-6.8,3.9-7.6c0,0,0.1-0.1,0.1-0.1l-2.6,0
		c-1.2,0.9-2.2,2.2-3.3,3.7c0.3-1.4,0.8-2.6,1.6-3.7l-3.5,0c-0.8,0.8-1.6,1.7-2.2,2.7c0.2-1.2,0.4-1.6,0.5-2.3
		c0.1-0.2,0.1-0.3,0.1-0.5l-2.1,0c0,0.1-0.1,0.2-0.1,0.3c-7.1,27.1,7.6,47,22.1,56.5c3.6,2.4,7.2,4.1,10.4,5.2
		c-3.3-0.8-6.6-1.7-9.8-2.9c-28.4-10.7-48.6-38.1-48.6-70.1C1207.8,531.1,1208.1,527.1,1208.7,523.3"/>
	<path id="path468" d="M1282.7,440.4c-52.2,0-94.7,42.5-94.7,94.7c0,52.2,42.5,94.7,94.7,94.7c52.2,0,94.7-42.5,94.7-94.7
		C1377.4,482.9,1334.9,440.4,1282.7,440.4 M1282.7,632c-53.4,0-96.9-43.5-96.9-96.9c0-53.4,43.5-96.9,96.9-96.9
		c53.4,0,96.9,43.5,96.9,96.9C1379.6,588.6,1336.1,632,1282.7,632"/>
	<path id="path472" d="M1233.6,611.4l1.4-2.3c3.8,2.3,8.3,4.7,11.8,6.7c1.1,0.6,1.1,0,1.5-0.9c0,0-3.3-2.8-5.2-4.5
		c-1.3-1-2.2-2.7-1-4.5l1-1.7l2.7,1.7l-1,1.8l-1.5-1c-0.4,0.6-0.5,1.3,1.8,2.9l6.2,4.6l-1.5,3.1c-1,2.1-1.5,1.9-3.2,1.2
		c-3.6-1.8-8.3-4.4-11.3-6.2l-0.6,1c-0.5,0.8-0.8,0.9-1.1,0.6c-0.9-0.5-1.5-1-2.2-1.5l1.1-1.8L1233.6,611.4z"/>
	<path id="path476" d="M1255.4,617.4c-1.5-2.1-0.4-5.1,0.5-7.8c1.4,0.6,2.2,1,3.9,1.7l-1.1,2.2l-2.2-0.9c-0.4,1.3-0.9,3.5,0.3,4.6
		c8.1-1.3,11.3-0.8,14-3.3l0.6,0.3c-0.5,1.9-1.5,2.7-3.3,3.5c1.8,1.5,3,3.8,1.9,7.2c-1.8-0.1-3.2-0.4-4.6-0.6l0.4-2.4
		c1.1,0.3,2,0.4,3.2,0.5c-0.1-1.3-0.3-2.7-2.5-3.8c-5.5,1.4-9.7,1.3-14.1,2.8l-0.4-0.4C1252.6,618.8,1253.6,618,1255.4,617.4"/>
	<path id="path480" d="M1274,625.3l0.1-2.7c4.6,0.1,9.5,0.1,13.6,0c1.3,0,0.9-0.6,0.9-1.5c0,0-4.2-0.9-6.7-1.4
		c-1.5-0.3-3.1-1.3-3.1-3.3l0-2.1c0.9,0.1,2,0.1,3.2,0c0.1,0.6,0.3,1.2,0,2.2l-1.8,0c0,0.6,0.1,1.3,3.1,1.7l7.5,0.9l0.3,3.5
		c0.1,2.3-0.4,2.4-2.3,2.6c-3.9,0.3-9.3,0.3-12.9,0.1l0,1.3c0,0.8-0.3,1-0.6,1l-2.7-0.3l0.1-2L1274,625.3z"/>
	<path id="path484" d="M1309.8,612.8c-0.6,0.9-1.1,1.4-1.8,2l2,1.8c0.8,0.6,1.2,1.5,1.5,2.6c0.4,1-0.1,1.5-0.9,1.8
		c-1.3,0.5-1.4,0.5-3.1,1l-0.9-2.7l2.7-0.9c-0.3-1-1-2.1-2-2.8l-7.2,5.8l-0.5,2.3c-1.4,0.4-2.4,0.5-4.1,0.8l-0.6-2.7l4.3-0.9
		c2.8-2.7,5.5-5.4,8.3-8.3c-4.5,1.4-9,2.6-13.5,3.5c-0.4-0.9-0.6-1.8-0.8-2.6c5-1,10.7-2.4,15.3-4.1
		C1309.2,610.5,1309.5,611.4,1309.8,612.8"/>
	<path id="path488" d="M1322.4,610.1c0,1.2-2.3,1.3-1.9-0.8C1321.5,608.5,1322.7,609,1322.4,610.1"/>
	<path id="path492" d="M1311.5,608.4c3.9-1.9,10-5.1,14-8.1l1.9,2.3c-0.6,0.5-1.4,1-2.3,1.5c2.9,0.6,3.1,0.9,4.1,2.3l1,1.4
		c1.1,1.7,0.8,2.6-0.5,3.5c-4.2,3-7.8,5-12.8,7.2l-1.3-2.4c5.1-2.2,8.1-4,12.6-7.2l-1.1-1.9c-0.8-1.2-1.4-1.4-3.4-2.1
		c-3.4,2.1-7,4.1-10.8,5.8L1311.5,608.4z"/>
	<path id="path496" d="M1367.9,522.2l1.8-0.9c-0.1-1-0.2-1.9-0.5-2.7l-1.9,0L1367.9,522.2z M1360.3,526.1c1.9-1.1,3.6-1.9,5.6-3.1
		l-0.7-4.5l-6.4-0.4l-0.3-2.3l12.5,0.8c0.4,1.7,0.7,3.6,0.8,5.8l-11.3,6L1360.3,526.1z"/>
	<path id="path500" d="M1354.4,503.2c2.8-1.5,4.8-2.3,7.1-3.5l0.9,2.1c-1.8,1-3.3,1.5-5.1,2.6c0.9,2.2,1.4,3.7,2.2,6l9.3-2.3
		l0.6,2.3l-11.4,2.8C1356.9,509.7,1355.7,506.5,1354.4,503.2"/>
	<path id="path504" d="M1347.7,491.5l1.8-1.4c1.9,2.7,3.3,5,4.7,7.4l2.7-1.4c-1.3-2.7-2.7-5-4.3-7.9l1.8-1l4.6,8.1l1.7-0.9
		c-1.4-3.5-2.5-5.1-4.3-8.3l1.7-1.1c2.3,3.3,3.8,6.4,5.6,10.4l-10.4,5.2C1351.4,497.1,1349.8,494.7,1347.7,491.5"/>
	<path id="path508" d="M1344.4,487l6.6-5.3l-6-0.4l0.8-6.3l-6.9,5.9l-1.5-1.7l9.3-7.7c0.6,0.5,1.3,1.2,1.8,1.9l-0.9,5.8l6.1,0.1
		l1.3,2l-9.3,7.3L1344.4,487z"/>
	<path id="path512" d="M1339.4,592l3.8,3.4c-0.4,0.5-0.9,1-1.5,1.7c-1.2-1.3-3.6-3.4-5.4-5.2c2.7-2.5,4.2-4.2,6-6.1l8.9,7.2
		l-1.5,1.7c-2.4-2-4.9-3.9-7.3-5.9L1339.4,592z"/>
	<path id="path516" d="M1350.8,573.1l1.8,1.3c-1.8,3.2-3.2,5.4-4.8,7.8l2.8,1.9c1.7-3,3.1-4.9,4.7-8l1.8,1l-4.7,8l1.7,1.2
		c1-1.5,3.8-5.8,4.8-8.1l1.9,1.2c-2.4,4.5-4.1,6.8-6.5,10.3l-9.5-6.9C1346.8,579.8,1348.9,576.5,1350.8,573.1"/>
	<path id="path520" d="M1362.2,572.5c1.6-2.6,2.3-4.9,2.9-6.7c0.5-1.5-1.5-1.9-1.9-0.8c-0.8,2.2-1.7,4.4-2.8,6.5L1362.2,572.5z
		 M1353.4,568l5.2,2.6c0.8-1.5,1.4-2.6,1.9-4.1l-4.8-4.2l0.9-2.4l5,4.7c1.8-3.7,6.7-1.5,5.5,2.2c-1.1,3.5-1.9,5-3.9,8.5
		c-3.4-1.5-7-3.6-10.6-5.2L1353.4,568z"/>
	<path id="path524" d="M1360,546.2c4.6,0.5,7.7,1.2,11.6,1.8l-0.4,2c-3.3-0.6-5.7-1-9.2-1.5c-0.4,1.9-0.8,4-1.3,5.9
		c2.6,1,5.5,2,8.7,2.9l-0.6,2.2c-4.3-1.4-6.4-2-10.9-3.7C1358.7,552.4,1359.4,549.1,1360,546.2"/>
	<path id="path528" d="M1325.5,468.6l-2.9-1.8l1.4-2.4l2,1.2c0.4,0.2,0.8,0.5,1.1,0l1.2-1.8l0.8,1.4l-2.2,3.2
		C1326.6,468.9,1326.3,469.1,1325.5,468.6"/>
	<path id="path532" d="M1316.7,463.9c-2.7-1.3-7.3-3.3-12.6-5l0.9-2.7c6.2,1.9,8.8,3.2,12.4,4.7c0.9,0.3,1.6,0.6,2.1-0.6l3.1-6.8
		l1.6,1.9l-3.9,7.5C1319.5,464.7,1318.3,464.7,1316.7,463.9"/>
	<path id="path536" d="M1299.4,457.8l-3.6-0.8l0.4-2.8l2.7,0.5c0.8,0.1,1.1,0.1,1.4-1c0.5-2.7,0.6-3.9,1.3-7.4l1.8,1.1l-2,8.8
		C1301,457.7,1300.4,458,1299.4,457.8"/>
	<path id="path540" d="M1292,456.5l-3.3-0.1l0.1-2.8l2.9-0.1c0-1.7-0.1-3.6-0.2-4.4c-2.6-1.9-4.7-2-6.8-1.9l-2.7,0.1
		c0.5,1.7,1.3,3.4,2.1,5.2c0.3,0.6,0.5,1,1.5,1l0.8,0l-0.1,2.8c-1.8-0.1-3.1-0.1-5.2,0l-0.1-2.8l2.2,0l-2-3.3
		c-1.6-2.5-2.1-2.6-4.8-2.3l0.2,5c0,0.4,0.1,0.8,0.8,0.8l1.4,0l-0.1,2.8c-0.9,0-3.2,0.2-5.1,0.4l-0.2-2.8l1.5-0.2l-0.5-8.3
		c3.7-0.5,9.1-0.8,12.8-0.4c2.8,1.5,3.7,2.2,5.7,4.2c0.3,1.1,0.2,3.1,0.2,5.8C1293.4,456,1293.1,456.4,1292,456.5"/>
	<path id="path544" d="M1268.8,457.3c-5.3,1.1-7,1.5-10.6,2.6l0.4,1.3c0.3,0.8-0.1,1-0.5,1.2l-2.3,0.8l-0.8-2.2l1.3-0.4l-0.8-2.6
		c4.6-1.4,9-2.4,11.7-3c1.9-0.4,1.5-0.3,1.3-1.8c0,0-4.1-0.3-6.1-0.4c-1.7-0.1-3.3-0.4-3.9-2.3l-0.6-1.9c1-0.4,1.8-0.6,3.1-0.9
		l0.6,1.9l-1.7,0.5c0.1,0.6,0.8,0.8,1.3,0.8l9-0.1l0.6,3.6C1271.3,456.6,1270.6,456.9,1268.8,457.3"/>
	<path id="path548" d="M1249.2,458.4l-1.8-3.3c-5.5,2.3-8.6,4.1-13.3,7.5l1.2,1.9c0.8,1.1,1.4,1.4,3.4,2l9.5-5.3
		C1249.6,460.4,1250,459.9,1249.2,458.4 M1249.3,463.8c-3.9,1.9-8.5,4.4-12.4,7.4l-1.9-2.3c0.6-0.5,1.4-1,2.3-1.5
		c-2.9-0.6-3.1-0.9-4.1-2.3l-2.6-3.4c6.1-4.4,10.3-6.7,17.9-10l2.6,4.9C1253.2,460.9,1253.2,461.8,1249.3,463.8"/>
	<path id="path552" d="M1216.1,483.9c-1.3,1.8-3,4.1-4,5.7c-2.4,3.5,1.1,5.1,2.7,2.7l4.3-6.2L1216.1,483.9z M1213.3,481.9
		c-2.3,2.8-3.1,4-5.1,7.1c-0.9,1.3,0.4,2.2,1.4,0.8c2-2.9,3.4-4.5,5.1-6.9L1213.3,481.9z M1209.4,492.6c-2.9,0-4.9-2.2-2.2-6.1
		c1.7-2.6,4.4-6.1,5.8-7.6l9,6.8l-5.3,8C1214.4,497,1209.8,495.4,1209.4,492.6"/>
	<path id="path556" d="M1208.3,510.3l-2-0.9c1.4-3.3,2.5-5.7,3.7-8.4l-2.8-1.4c-1.4,3-2.7,5.5-3.7,8.6l-1.9-0.9l3.6-8.6l-1.8-1
		c-0.7,1.4-3,6.7-3.7,8.9l-1.8-0.7c1.6-4.9,3-7.5,4.7-11.1c3.8,1.9,6.4,3.1,10.2,5.4C1211.3,503.3,1209.8,506.9,1208.3,510.3"/>
	<path id="path560" d="M1196.1,519.9c1.8-1,8-5.6,9.6-6.9l1.7,0.6c-1,3.5-1.8,6.9-2.4,10.8l-2.2-0.4c0.2-2.4,0.8-5.1,1.3-7.2
		l-8.7,5.9l-2-0.4c0.6-4.2,1.8-8.2,2.9-12.1l2.2,0.7C1197.5,513.7,1196.8,516.4,1196.1,519.9"/>
	<path id="path564" d="M1196.7,534.4l-1.9,1.4l0,2.3l1.9,1L1196.7,534.4z M1204.6,529.3c-2.2,1.4-3.7,2.3-5.8,4
		c0,2.6,0.2,4.6,0.3,6.7l5.5,3l0.2,2.5c-4.4-2.3-8.3-4.1-12-6.4c-0.1-1.8-0.2-2.9,0-4.1c5.2-4.2,10.2-7.6,12.1-8.5L1204.6,529.3z"/>
	<path id="path568" d="M1207.8,559.5l-6.8,2.4l-0.8-2.2l4.8-1.7c-0.7-2.2-1.4-4.7-1.9-7.2l-9.1,1.5l-0.4-2.3l11.4-1.8
		C1205.8,552.2,1206.6,555.4,1207.8,559.5"/>
	<path id="path572" d="M1214.1,574.3l-1.9,0.9c-1.7-3.1-3-5.9-4.3-9.2l-2.9,1.3c1.2,3.2,2.9,6.5,4.3,9.4l-1.9,0.9
		c-1.7-2.7-3.3-6.6-4.6-9.4l-1.4,0.7c1.4,4,2.5,6.1,4.3,9.7l-1.9,0.9c-2.1-3.7-3.9-7.8-5.5-12c3.7-1.6,7.2-3,11-4.4
		C1210.6,566.8,1212.5,570.9,1214.1,574.3"/>
	<path id="path576" d="M1222.5,586.9l-6.6,5.1l-1.3-1.9l4.8-3.5l-4-5.6l-7.7,5.1l-1.2-2c3.7-2.3,6.1-4,9.7-6.1
		C1218.2,580.9,1220.6,583.9,1222.5,586.9"/>
	<path id="path580" d="M1335,600.1c0.7,0.2,1.2,0.9,1.1,1.6c-0.2,0.7-0.9,1.2-1.6,1.1c-0.7-0.2-1.2-0.9-1.1-1.6
		C1333.5,600.4,1334.3,599.9,1335,600.1"/>
	<path id="path584" d="M1335.5,470.8c-0.8,0-1.4-0.6-1.4-1.3c0-0.8,0.6-1.4,1.3-1.4c0.8,0,1.4,0.6,1.4,1.3
		C1336.9,470.2,1336.3,470.8,1335.5,470.8"/>
	<path id="path588" d="M1225.4,474.5c-0.8-0.1-1.3-0.8-1.2-1.5c0.1-0.8,0.8-1.3,1.5-1.2c0.8,0.1,1.3,0.8,1.2,1.5
		C1226.8,474.1,1226.1,474.6,1225.4,474.5"/>
	<path id="path590" d="M1283.1,589.9h-0.9v-3h0.9V589.9z"/>
	<path id="path594" d="M1280.6,590.1l-0.8,0.2l-0.8-2.9l0.8-0.2L1280.6,590.1z"/>
	<path id="path598" d="M1276.8,588.3l1.5,2.6l-0.8,0.4l-1.5-2.6L1276.8,588.3z"/>
	<path id="path602" d="M1274.2,590.2l2.1,2.2l-0.6,0.6l-2.1-2.2L1274.2,590.2z"/>
	<path id="path606" d="M1274.3,595l-2.6-1.5l0.4-0.8l2.6,1.5L1274.3,595z"/>
	<path id="path610" d="M1286.3,587.4l-0.8,2.9l-0.8-0.2l0.8-2.9L1286.3,587.4z"/>
	<path id="path614" d="M1289.3,588.7l-1.5,2.6l-0.8-0.4l1.5-2.6L1289.3,588.7z"/>
	<path id="path618" d="M1291.8,590.8l-2.1,2.2l-0.6-0.6l2.1-2.2L1291.8,590.8z"/>
	<path id="path622" d="M1293.7,593.5l-2.6,1.5l-0.4-0.8l2.6-1.5L1293.7,593.5z"/>
</g>
</svg>
