<?xml version="1.0" encoding="utf-8"?>
<!-- Generator: Adobe Illustrator 27.7.0, SVG Export Plug-In . SVG Version: 6.00 Build 0)  -->
<svg version="1.1" id="Layer_1" xmlns="http://www.w3.org/2000/svg" xmlns:xlink="http://www.w3.org/1999/xlink" x="0px" y="0px"
	 width="1701.5px" height="258.4px" viewBox="0 0 1701.5 258.4" style="enable-background:new 0 0 1701.5 258.4;"
	 xml:space="preserve">
<style type="text/css">
	.st0{fill:#0000FF;}
</style>
<g id="g8" transform="matrix(1.3333333,0,0,-1.3333333,-429.46012,842.71105)">
	<g id="g10" transform="translate(642.6387,609.9678)">
		<path id="path12" class="st0" d="M0.2,0h0.4l5.1-16.7H-5L0.2,0z M-6.1-20.4H6.7l1.9-6.2H14L3.5,4.8l-5.7-0.2L-13-26.6h5.1
			L-6.1-20.4z"/>
	</g>
	<path id="path24" class="st0" d="M669.8,582.8c2.2,0,4.9,0.2,7.1,1.1l0.2,4c-1.9-0.5-4-0.9-5.8-0.9c-4.3,0-8,2.6-8,9.2
		c0,3.7,1,6.1,2.4,7.6c1.2,0.9,2.7,1.3,4.6,1.3c2.1,0,4.1-0.4,6.1-0.9l0.3,3.9c-1.7,0.8-3.8,1.1-6,1.1c-7.4,0-12.4-5.1-12.4-13.6
		C658.4,587.1,663.9,582.8,669.8,582.8"/>
	<path id="path28" class="st0" d="M696.7,589.9c-1.9-2-4.2-2.9-6.3-2.9c-2.9,0-4.5,1.7-4.5,4.2c0,1.2,0.2,2.3,0.8,3.3
		c1.9,1.1,4.2,1.1,6.4,1.1c1.3,0,2.4-0.1,3.5-0.2L696.7,589.9L696.7,589.9z M693.7,598.8c-2.8,0-6.1-0.2-8.3-1.4
		c-2.6-1.2-4.1-3.8-4.1-7.1s2.2-7.4,7.7-7.4c3,0,5.6,1.2,7.8,3.3l0.3-0.1l0.4-2.9h4.1v16.7c0,6.3-3.4,9.2-9.6,9.2
		c-3,0-6-0.6-8.8-1.4l-0.3-3.9c2.8,0.8,5.9,1.3,8.3,1.3c4.7,0,5.6-2,5.6-6v-0.5C695.8,598.8,694.9,598.8,693.7,598.8"/>
	<path id="path32" class="st0" d="M724.1,589.7c-2.4-2.5-4.6-2.8-5.7-2.8c-4.2,0-6.3,3.3-6.3,9c0,3.6,0.9,6.6,2.8,8.2
		c1.6,0.8,3.1,1.1,5,1.1c1.4,0,2.9-0.2,4.2-0.6V589.7z M728.8,619.4l-4.8-0.6v-10.1c-1.3,0.4-2.5,0.5-3.8,0.5
		c-6.9,0-13.1-4.6-13.1-14.1c0-7.9,4.1-12.2,9.7-12.2c2.4,0,5.1,0.8,7.3,3.1l0.4-0.2l0.4-2.6h4L728.8,619.4z"/>
	<path id="path36" class="st0" d="M742.1,604c1.3,1.1,3.1,1.5,4.6,1.5c3.6,0,5.4-2.4,5.6-7.2H740C740.2,601.1,741.1,602.8,742.1,604
		 M747.3,582.8c2.1,0,5.2,0.4,7.9,1.4l0.3,3.6c-2.7-0.8-5.4-1.1-7.5-1.1c-5,0-7.9,2.4-8.2,8.4h16.7c0.3,1.4,0.3,2.6,0.3,3.9
		c0,6.7-3.9,10.2-10,10.2c-7.7,0-11.8-5.8-11.8-13.5C735,587.5,739.7,582.8,747.3,582.8"/>
	<path id="path40" class="st0" d="M767.4,603c2.6,1.5,4.9,2,6.6,2c3,0,4.5-1.3,4.5-4.6v-17.1h4.8v17.9c0,0.7,0,1.2-0.1,1.7
		c2.7,1.4,4.9,1.9,6.8,1.9c3,0,4.4-1.3,4.4-4.6v-17.1h4.8v18c0,5.5-2.5,7.8-7.1,7.8c-3.7,0-7-1.5-9.5-3l-0.4,0.2
		c-1.1,2-3.2,2.8-6.1,2.8c-3.3,0-6.2-1.3-8.5-2.9l-0.4,0.1l-0.2,2.7l-4.5-0.6v-25.1h4.8V603H767.4z"/>
	<path id="path44" class="st0" d="M826.2,608.5h-5l-5.9-20.4h-0.4l-6.6,20.4H803l9.6-24.9v-0.4l-4.9-9.7h5.1l4.8,10.3L826.2,608.5z"
		/>
	<path id="path48" class="st0" d="M845.7,603.2c1.4,1.5,2.8,2.1,5.2,2.1c4,0,7-2.8,7-9.2c0-3.2-0.6-5.6-1.6-7.4
		c-1.4-1.4-3.1-2.1-5.2-2.1c-4.6,0-7.2,3.1-7.2,9.3C843.9,598.9,844.5,601.3,845.7,603.2 M850.4,582.8c7.5,0,12.4,5.4,12.4,14
		c0,7.7-5,12.5-11.3,12.5c-7.8,0-12.6-5.4-12.6-13.9C838.9,587.6,843.9,582.8,850.4,582.8"/>
	<path id="path52" class="st0" d="M870.1,583.4h4.8v21.4h7l0.3,3.7h-7.3v3.7c0,1,0.1,1.8,0.3,2.6c0.7,0.6,1.7,0.9,3.2,0.9
		c1.6,0,3.1-0.2,4.4-0.4l0.7,3.8c-1.6,0.4-3.3,0.5-4.7,0.5c-5.3,0-8.6-2.2-8.6-8v-3.1l-4.2-0.4l-0.2-3.4h4.4L870.1,583.4z"/>
	<path id="path56" class="st0" d="M907,610h0.4l5.1-16.7h-10.6L907,610z M900.7,589.6h12.8l1.9-6.2h5.4l-10.6,31.3l-5.7-0.2
		l-10.8-31.2h5.1L900.7,589.6z"/>
	<path id="path60" class="st0" d="M929.2,602.2c2.1,1.7,3.9,2.3,5.9,2.3c0.9,0,1.7-0.1,2.7-0.3l0.4,4.3c-0.9,0.4-1.8,0.5-2.7,0.5
		c-2.1,0-4.1-1.1-6.2-3.4l-0.3,0.1l-0.1,3.3l-4.5-0.6v-25.1h4.8L929.2,602.2L929.2,602.2z"/>
	<path id="path64" class="st0" d="M944.3,588.1c0-3.5,1.5-5.1,5.8-5.1c1.4,0,3,0.3,4.5,0.7l0.1,3.8c-1.5-0.3-2.6-0.3-3.5-0.3
		c-0.7,0-1.4,0.1-2.1,0.2v17.4h5.7l0.3,3.7l-6,0.1v6.6l-3.9-0.5l-0.6-6.1l-3.8-0.2l-0.2-3.6h3.8L944.3,588.1z"/>
	<path id="path68" class="st0" d="M966.8,586.5c-1.9,0-4.5,0.6-7.3,1.9l-0.9-3.8c2.4-1.2,4.8-1.8,7.6-1.8c6.5,0,9.8,3.5,9.8,7.5
		c0,7.6-12.5,8.6-12.5,12.7c0,0.8,0.4,1.4,1,1.9c0.8,0.4,2.2,0.7,3.7,0.7c1.6,0,3.9-0.4,6.3-1.5l0.8,3.8c-2.4,0.9-4.6,1.3-6.8,1.3
		c-5.5,0-9.6-2.6-9.6-6.8c0-7.4,12.3-7.8,12.3-12.8c0-0.9-0.4-1.6-0.9-2.2C969.5,586.8,968.2,586.5,966.8,586.5"/>
	<path id="path72" class="st0" d="M996.8,598.3l-4.5-0.3c-0.3-3-0.5-5.8-0.5-8.1v-6.6h5V598.3z"/>
	<path id="path76" class="st0" d="M1008.3,605.9c0.2-1.4,0.2-3,0.2-4.6v-17.9h5v18.5c0,7.3-1.9,8.4-12.2,8.4
		c-3.4,0-7.1-0.2-10.3-0.5l0.3-4c3.3,0.3,7.3,0.4,10.3,0.4C1004.3,606.2,1006.5,606.1,1008.3,605.9"/>
	<path id="path80" class="st0" d="M1021.7,606v-11.7h5v11.5c0,3.7-1.1,4.3-5,4.3c-1.2,0-2.8,0-4-0.1l0.4-4.1L1021.7,606L1021.7,606z
		"/>
	<path id="path84" class="st0" d="M1037.3,583.4l1.7,20.9c3.2,1.4,6.3,1.7,8.7,1.7c1.2,0,2.1-0.1,3-0.2c0.3-2,0.3-4,0.3-6.1v-12
		h-7.6v-4.3h12.5v17.1c0,8-1.4,9.8-7.3,9.8c-3.7,0-6.9-0.8-10.6-2.8l-1,2.9l-4.6-0.3l1.9-5.9l-2.1-20.8L1037.3,583.4L1037.3,583.4z"
		/>
	<path id="path88" class="st0" d="M1073.3,606c-0.4-3-0.6-6-0.6-10.8v-11.9h5.1v22.5l3.6,0.4v3.8h-21.2l0.3-4H1073.3z"/>
	<path id="path92" class="st0" d="M1104.8,605.6l-8.3-22.2h5.1l8,22.8l-0.5,3.9h-22.9l0.3-4.1h18.2L1104.8,605.6z"/>
	<path id="path96" class="st0" d="M1091.6,599.3l-4.4-0.1c-0.4-3.1-0.5-6.7-0.5-9.1v-16.7h5L1091.6,599.3z"/>
	<path id="path100" class="st0" d="M1135.9,602.7l0.7,7.4h-5l-0.4-6.3c-0.1-2.8-0.9-5.7-1.8-7.4l-0.4-0.2
		c-3.7,4.5-7.6,9.5-11.6,14.1l-5.5-0.4c2-2.1,4-4.5,6-6.8v-0.3c-1.9-2.5-3.2-5.8-3.6-9.9l-0.9-9.6h5l0.5,8.1c0.2,2.9,0.7,5.7,1.6,8
		l0.3,0.1c3.8-4.7,8.2-10.4,12.3-16.2h5.2v0.6c-2.2,3.2-4.3,6.1-6.5,9C1134.1,595.2,1135.6,598.8,1135.9,602.7"/>
	<path id="path104" class="st0" d="M419.5,518.4c-1.5,0-3.1-0.2-4.4-0.7c0.1-1.4,0.5-2.8,0.9-4.3l3.9,0.6L419.5,518.4z"/>
	<path id="path108" class="st0" d="M411.6,518.4c-1.5,0-3.1-0.2-4.4-0.7c0.1-1.4,0.5-2.8,0.9-4.3l3.9,0.6L411.6,518.4z"/>
	<path id="path112" class="st0" d="M505.6,544.8l-0.4,4.5c-1.5,0-3.1-0.2-4.4-0.7c0.1-1.4,0.5-2.8,0.9-4.3L505.6,544.8z"/>
	<path id="path116" class="st0" d="M513.3,544.8l-0.4,4.5c-1.5,0-3.1-0.2-4.4-0.7c0.1-1.4,0.5-2.8,0.9-4.3L513.3,544.8z"/>
	<path id="path120" class="st0" d="M476.7,526.3c-2,0-4.6,0.1-7.4,0.8l-0.1,0.4c5.6,7.3,9.6,10.8,12.8,10.8c4.6,0,7.5-4.9,7.5-9.1
		C486.1,527.2,480.7,526.3,476.7,526.3 M439.1,526.5c-2.5,0-5.3,0.7-7.3,2.6c2,6.1,3.8,8.8,6.7,8.8c2.9,0,4.6-2.5,6.6-9
		C443.5,527.3,441.3,526.5,439.1,526.5 M391.4,526.1c-2.8,0-5.9,0.6-8.2,1.2c1.4,6,3.4,10.1,6.9,10.1c3.4,0,4.5-3.5,6.8-10
		C395.1,526.4,393.2,526.1,391.4,526.1 M523.7,524.6c1.6,1.2,2.6,3,2.7,6.2l0.4,29.2l-5-0.5l0.3-30.9c-1.7-1.2-3.2-1.5-5.4-1.5l0,0
		l0,0c-2.8,0-5.5,0.6-7.4,1.6l0.4,11.9l-4.6-0.3l-0.5-11.7c-2-1.1-4-1.6-7.3-1.6l0,0l0,0c-1.2,0-2.6,0.2-4.2,0.5
		c0.4,0.7,0.6,1.6,0.6,2.7c0,5.4-3.9,12.9-10.6,12.9c-5.1,0-10.9-5.4-17.4-14.8l-2.7,1.4l1.3,7.5L460,537l-0.9-5.9
		c-0.6-3.3-2.3-4-5.9-4.1l0,0l0,0c-2.4,0-3.4,1.6-4.2,3.8c-2.2,6.5-3.9,11.9-9.6,11.9c-5.4,0-8-5-11-13.1c-1.1-2-2.6-2.6-4.3-2.6
		c-2.8,0-5.5,0.6-7.4,1.6l0.4,11.9l-4.6-0.3l-0.5-11.7c-2-1.1-4-1.6-7.3-1.6l0,0l0,0c-2.8,0-3.8,1.6-4.3,3.1
		c-1.8,5.3-3.8,12.2-9.6,12.2c-5.7,0-8.7-6.3-10.8-14.1c-0.6,0.2-1.1,0.2-1.4,0.2c-1.3-0.2-2.6-1.7-2.6-3.1c0-1.5,0.1-3,0.1-5.1
		l0.6-12.9h4.7l-1.4,16.4l0.3,0.2c3-1.2,7-2.1,10.7-2.1s6.1,0.9,7.8,2.5h0.3c1.2-1.3,2.9-1.9,5.6-1.9l0,0l0,0c3.4,0,6.9,0.8,9.6,2.9
		h0.4c2.5-2,5.8-2.9,9.4-2.9c2.6,0.1,4.2,0.6,6,3h0.4c2.1-2,4.9-3.5,8.5-3.5c2.6,0,5.2,0.8,7.7,3.7h0.4c1.6-2.4,3.6-3.2,6.1-3.2l0,0
		l0,0c3.4,0,6.3,0.9,8.1,3.5h0.4c4.2-2.9,9.6-3.8,14.4-3.8c5.2,0,10.1,1,13.4,2.6h0.4c2.7-1.7,5.2-2.2,7.5-2.2l0,0l0,0
		c3.4,0,6.9,0.8,9.6,2.9h0.4c2.5-2,5.8-2.9,9.4-2.9l0,0l0,0C519.5,522.2,521.9,523.1,523.7,524.6"/>
	<path id="path124" class="st0" d="M536.4,522.2h4.4l0.3,37.5l-4.9-0.5L536.4,522.2z"/>
	<path id="path128" class="st0" d="M558.2,526.9c-4.2,0-6.1,1.4-6.4,2.7c0.1,3,2.6,7.3,5.9,7.3c3.2,0,5.5-3.6,5.8-9.2
		C562.1,527.2,560.2,526.9,558.2,526.9 M554.5,515.9c-1.6,0-3.7,0.2-5.7,0.9l-0.6-4.1c1.7-0.8,4.1-1.4,6.5-1.4
		c8.1,0,12.8,6.7,12.8,15.8c0,9.1-4.7,14.6-9.4,14.6c-5,0-9.9-6.3-9.9-11.7c0-4.9,3.9-7.2,8.8-7.2c1.8,0,4.2,0.3,6.4,1.2
		C563,518.7,560.2,515.9,554.5,515.9"/>
	<path id="path132" class="st0" d="M604.5,536.4l1.7-14.3c-2.4-3.3-5.9-4.6-10-4.6c-6.2,0-9.3,2.9-9.3,8.8c0,2.2,0.4,4.5,1.1,7
		l-3.6,0.8c-1.3-3.5-1.8-6.5-1.8-9c0-8.1,5.3-12.4,13-12.4s14.3,4.3,14.3,11.9c0,2-0.4,7.3-1,12.4L604.5,536.4z"/>
	<path id="path136" class="st0" d="M598,539.8l-0.4,4.5c-1.5,0-3.1-0.2-4.4-0.7c0.1-1.4,0.5-2.8,0.9-4.3L598,539.8z"/>
	<path id="path140" class="st0" d="M646.7,544.2l3.9,0.6l-0.4,4.5c-1.5,0-3.1-0.2-4.4-0.7C645.9,547.2,646.3,545.8,646.7,544.2"/>
	<path id="path144" class="st0" d="M668.8,549.7l3.9,0.6l-0.4,4.5c-1.5,0-3.1-0.2-4.4-0.7C668,552.7,668.4,551.3,668.8,549.7"/>
	<path id="path148" class="st0" d="M669.8,529.2c-3,1.7-5.1,4.2-5.4,6.9c0.6,2.6,3.3,5,5.9,5c2.7,0,5.3-1.5,6.2-6.5
		c-1.3-2.3-3.4-3.9-6.3-5.3h-0.4V529.2z M627,526.6c-4.2,0-7.2,0.7-7.6,3.3c0.3,2.8,2.2,6.6,5.4,6.6c3.5,0,5.8-4.5,6-9.9L627,526.6
		L627,526.6z M708.3,524.6c1.6,1.2,2.6,3,2.7,6.2l0.4,29.2l-5-0.5l0.3-30.9c-1.7-1.2-3.2-1.5-5.4-1.5l0,0l0,0c-2.6,0-5,0.6-6.8,1.7
		l0.3,31.2l-5-0.5l0.2-30.7c-1.8-1.2-3.7-1.7-6.7-1.7l0,0l0,0h-4.1c-1.5,0-3.1,0.2-4.6,0.5l-0.2,0.2c3.3,2.4,5.4,5.2,5.4,8
		c0,4.6-3.7,10.2-9.1,10.2c-5.1,0-9.9-5.5-9.9-10.3c0-2.6,1.4-5.4,4-7.7l-0.2-0.2c-2.1-0.4-4.4-0.6-7-0.6c-2.8,0-5.5,0.6-7.4,1.6
		l0.4,11.9l-4.6-0.3l-0.5-11.7c-2-1.1-4-1.6-7.3-1.6l0,0l0,0h-3.6c-0.4,9.8-5,14.3-9.2,14.3c-5.1,0-9.7-5.8-9.7-11.5
		c0-5,3.8-7.3,10.4-7.3h4.3c-0.8-4.3-3.8-6.5-8.8-6.5c-1.6,0-3.8,0.3-5.7,0.9l-0.5-4.1c1.6-0.8,4-1.4,6.4-1.4
		c6.9,0,11.3,4.6,12.5,10.9h3.9l0,0l0,0c3.4,0,6.9,0.8,9.6,2.9h0.4c2.5-2,5.8-2.9,9.4-2.9c4,0,8,0.9,11.5,2.3h0.4
		c3.8-1.8,8.1-2.3,13.6-2.3l0,0l0,0c3.2,0,6.3,0.8,9,3h0.4c2.4-2,5.6-3,8.7-3l0,0l0,0C704.1,522.2,706.5,523.1,708.3,524.6"/>
	<path id="path152" class="st0" d="M744.6,554.3l3.9,0.6l-0.4,4.4c-1.5,0-3.1-0.2-4.4-0.7C743.8,557.2,744.1,555.9,744.6,554.3"/>
	<path id="path156" class="st0" d="M736.9,554.3l3.9,0.6l-0.4,4.4c-1.5,0-3.1-0.2-4.4-0.7C736,557.2,736.4,555.9,736.9,554.3"/>
	<path id="path160" class="st0" d="M757.4,518.4c-1.5,0-3.1-0.2-4.4-0.7c0.1-1.4,0.5-2.8,0.9-4.3l3.9,0.6L757.4,518.4z"/>
	<path id="path164" class="st0" d="M765.3,518.4c-1.5,0-3.1-0.2-4.4-0.7c0.1-1.4,0.5-2.8,0.9-4.3l3.9,0.6L765.3,518.4z"/>
	<path id="path168" class="st0" d="M784.3,538c2.9,0,4.6-2.5,6.6-9c-1.6-1.7-3.8-2.5-6-2.5c-2.5,0-5.3,0.7-7.3,2.6
		C779.6,535.2,781.5,538,784.3,538 M736.9,532.1c-2.7,0-4.8,0.5-5.5,2.2c0.6,3.9,3.5,6.9,9.6,8.5l0.5-10.3
		C739.9,532.2,738.2,532.1,736.9,532.1 M792.3,525.4h0.4c1.6-2.4,3.6-3.2,6.1-3.2l0,0l0,0c4.1,0,7.7,1,9.7,2.6
		c1.6,1.2,2.5,3,2.5,6.1c0,1.8-0.3,7.6-0.7,11.4l-4.7-0.5l1.2-13.3c-2.4-1.2-4.9-1.6-8-1.6l0,0l0,0c-2.4,0-3.4,1.6-4.2,3.8
		c-2.3,6.5-3.9,11.9-9.6,11.9c-5.4,0-8-5-11-13.1c-1.1-2-2.6-2.6-4.3-2.6l0,0l0,0c-2.8,0-5.5,0.6-7.4,1.6l0.4,11.9l-4.6-0.3
		l-0.5-11.7c-2-1.1-4-1.6-7.3-1.6c-3.8,0-4.7,1-4.9,4.9l-0.6,18.6l-4.3-0.6l0.2-2.9c-10.3-3.3-12.8-9.2-12.8-13
		c0-3.4,2.8-6.2,8.6-6.2c1.4,0,3.3,0.1,5.2,0.7l0.4-0.2c0.7-4.3,3.1-6.1,8.2-6.1c3.4,0,6.9,0.8,9.6,2.9h0.4c2.5-2,5.8-2.9,9.4-2.9
		l0,0l0,0c2.6,0.1,4.2,0.6,6,3h0.4c2.1-2,4.9-3.5,8.5-3.5C787.2,521.7,789.8,522.6,792.3,525.4"/>
	<path id="path172" class="st0" d="M807.6,517.8c0.1-1.4,0.5-2.8,0.9-4.3l3.9,0.6l-0.4,4.4C810.5,518.5,808.9,518.3,807.6,517.8"/>
	<path id="path176" class="st0" d="M800.6,513.4l3.9,0.6l-0.4,4.4c-1.5,0-3.1-0.2-4.4-0.7C799.8,516.4,800.1,515,800.6,513.4"/>
	<path id="path180" class="st0" d="M824.8,521.7c7.1,0,12.4,3.5,12.4,8.7s-3.4,13.1-10.7,18.6l-3.1-3.8c5.8-4.5,9.6-10.3,10-15.8
		c-2.2-2.5-5.5-2.9-8.2-2.9s-5,0.6-5,2.1c0,0.3,0.1,0.8,0.1,1.3l-3.6,0.4c-0.3-1-0.5-2.1-0.5-3C816.2,522.9,820.8,521.7,824.8,521.7
		"/>
	<path id="path184" class="st0" d="M869.9,524.8c1.8,1.1,2.9,2.5,2.9,4.7c0,3.7-3.4,11.2-10.9,17.3v0.4l12.2,8.2l-0.4,4.9
		l-17.1-12.5v-3.3l2.6-1.3c5.7-5.1,8.6-9.7,9.9-14.2c-3.6-1.9-7.8-2-14.6-2l0,0l0,0c-3.6,0-5,0.7-5,3.7v29.1l-4.9-0.5l0.5-29
		c0.1-6,2.7-8,9.5-8l0,0l0,0C862.1,522.2,866.8,522.8,869.9,524.8"/>
	<path id="path188" class="st0" d="M884.7,522.2l0.2,31.4l-5.1-0.6l0.6-30.8L884.7,522.2L884.7,522.2z"/>
	<path id="path192" class="st0" d="M882.7,564.3c0.9,0,1.8-0.2,2.7-0.6l0.4,3c-1,0.5-1.9,0.7-2.9,0.7c-3,0-4.9-2.4-4.9-4.7
		c0-1.3,0.7-2.5,1.9-3.5l-2.9-0.4v-2.5l10.8,1.1v2.9l-3-0.4c-2.4,0.8-4.2,1.9-4.6,3.2C880.9,563.8,881.7,564.3,882.7,564.3"/>
	<path id="path196" class="st0" d="M906.8,530c0,1.2,0.2,2.4,0.8,3.3c1.9,1.1,4.2,1.1,6.4,1.1c1.3,0,2.4,0,3.5-0.2v-5.5
		c-1.9-2-4.2-2.9-6.3-2.9C908.4,525.8,906.8,527.5,906.8,530 M917.6,525.2l0.3-0.1l0.4-2.9h4.1V539c0,6.3-3.4,9.2-9.6,9.2
		c-3,0-6-0.6-8.8-1.4l-0.3-3.9c2.8,0.8,5.9,1.3,8.3,1.3c4.7,0,5.6-2,5.6-6v-0.5c-1,0.1-1.9,0.1-3,0.1c-2.8,0-6.1-0.2-8.3-1.4
		c-2.6-1.2-4.1-3.8-4.1-7.1s2.2-7.4,7.7-7.4C912.8,521.9,915.4,523.1,917.6,525.2"/>
	<path id="path200" class="st0" d="M946.1,522.2h4.8v18c0,5.5-2.5,7.8-7.2,7.8c-3.7,0-6.7-1.4-9-2.9l-0.4,0.1l-0.2,2.7l-4.5-0.6
		v-25.1h4.8v19.5c2.8,1.6,5.1,2.1,7.1,2.1c3.1,0,4.6-1.3,4.6-4.6L946.1,522.2z"/>
	<path id="path204" class="st0" d="M964.2,543.1c1.6,0.8,3.1,1.1,5,1.1c1.4,0,2.9-0.2,4.2-0.6v-15c-2.4-2.5-4.6-2.8-5.7-2.8
		c-4.2,0-6.3,3.3-6.3,9C961.4,538.5,962.4,541.4,964.2,543.1 M966.2,521.8c2.4,0,5.1,0.8,7.3,3.1l0.4-0.2l0.4-2.6h4v36l-4.8-0.6
		v-10.1c-1.3,0.4-2.5,0.5-3.8,0.5c-6.9,0-13.1-4.6-13.1-14.1C956.5,526.1,960.7,521.8,966.2,521.8"/>
	<path id="path208" class="st0" d="M1001.5,549.6c1.5,0.2,2.9,0.2,4.4,0.2c6.4,0,10.4-2.8,10.4-11.3c0-6-1.8-9.6-5.6-11.9
		c-1.7-0.5-3.2-0.6-4.7-0.6s-3,0-4.6,0.2L1001.5,549.6L1001.5,549.6z M1021.6,539.1c0,12.1-8,14.8-15,14.8c-2.1,0-5.3,0-10-0.6v-31
		c3.9-0.3,6.2-0.4,9.1-0.4C1015.8,521.9,1021.6,527.7,1021.6,539.1"/>
	<path id="path212" class="st0" d="M1033.1,542.9c1.3,1.1,3.1,1.5,4.6,1.5c3.6,0,5.4-2.3,5.6-7.2H1031
		C1031.2,539.9,1032.1,541.7,1033.1,542.9 M1046.5,526.7c-2.7-0.8-5.4-1.1-7.5-1.1c-5,0-7.9,2.4-8.2,8.4h16.7
		c0.3,1.4,0.3,2.6,0.3,3.9c0,6.7-3.9,10.2-10,10.2c-7.7,0-11.8-5.8-11.8-13.5c0-8.2,4.7-12.9,12.3-12.9c2.1,0,5.2,0.4,7.9,1.4
		L1046.5,526.7z"/>
	<path id="path216" class="st0" d="M1069.5,529.2c0,7.6-12.5,8.6-12.5,12.7c0,0.8,0.4,1.4,1,1.9c0.8,0.4,2.2,0.7,3.7,0.7
		c1.6,0,3.9-0.4,6.3-1.5l0.8,3.8c-2.4,0.9-4.6,1.3-6.8,1.3c-5.5,0-9.6-2.6-9.6-6.8c0-7.4,12.3-7.8,12.3-12.8c0-0.9-0.4-1.6-0.9-2.2
		c-1-0.6-2.3-0.9-3.7-0.9c-1.9,0-4.5,0.6-7.3,1.9l-0.9-3.8c2.4-1.2,4.8-1.8,7.6-1.8C1066.2,521.7,1069.5,525.2,1069.5,529.2"/>
	<path id="path220" class="st0" d="M1075.9,556.5c0.1-1.8,0.2-3.3,0.5-5.1l4.7,0.1l0.3,5.1C1079.4,556.8,1077.4,556.7,1075.9,556.5"
		/>
	<path id="path224" class="st0" d="M1081.5,522.2v25.2h-8.4l-0.2-3.6l3.9-0.2v-21.4H1081.5z"/>
	<path id="path228" class="st0" d="M1091.4,519.6c0,1.7,0.9,3.1,2.4,4.7l2.7-0.5c5.1-0.7,9.3-0.9,9.3-4.1c0-2.7-3.3-4.6-7.5-4.6
		C1094.5,515.1,1091.4,516.5,1091.4,519.6 M1094.2,543.8c1.5,0.7,2.6,0.9,3.6,0.9c3.7,0,5.3-2.1,5.3-5.3c0-2-0.7-3.4-1.8-4.3
		c-1.1-0.6-2.3-0.7-3.3-0.7c-3.9,0-5.7,2.1-5.7,5.1C1092.3,541.2,1093.1,542.6,1094.2,543.8 M1109.9,520.7c0,5.3-5.2,6.2-12.3,7.2
		c-1.1,0.2-2,0.3-3.8,0.6l0.7,2.8c0.8-0.2,1.8-0.3,2.7-0.3c5.7,0,10.7,2.9,10.7,8.4c0,2.2-0.8,3.8-2.5,5.1v0.4l5.4-0.2l0.3,3.4
		l-9.3-0.4c-1.2,0.2-2.3,0.4-3.6,0.4c-5.9,0-10.6-3.5-10.6-9.1c0-3,1.4-5.1,3.6-6.4v-0.4c-1-1.4-1.4-2.6-1.4-3.8
		c0-1.1,0.4-2,1.1-2.8v-0.4c-2.3-1.9-3.7-4-3.7-6.7c0-5.5,5.1-7.2,10.1-7.2C1104.9,511.4,1109.9,515.5,1109.9,520.7"/>
	<path id="path232" class="st0" d="M1136.3,522.2v18c0,5.5-2.5,7.8-7.2,7.8c-3.7,0-6.6-1.4-9-2.9l-0.4,0.1l-0.2,2.7l-4.5-0.6v-25.1
		h4.8v19.5c2.8,1.6,5.1,2.1,7.1,2.1c3.1,0,4.6-1.3,4.6-4.6v-17.1L1136.3,522.2z"/>
	<path id="path236" class="st0" d="M371.4,477.7l1.5-13.3c-3.5-0.2-6.8,0.6-10.2,2.1l1,9.3l-4.3-0.2l-0.9-9.8
		c-1.6-1-3.5-1.3-5.1-1.3c-1.4,0-2.7,0.2-4,0.7c-0.2,2.6-0.5,6.1-0.9,9.7l-4.5-0.6l1.7-14.3c-2.4-3.3-5.9-4.6-10-4.6
		c-6.2,0-9.3,2.9-9.3,8.8c0,2.2,0.4,4.4,1.1,7l-3.6,0.8c-1.3-3.5-1.8-6.5-1.8-9c0-8.1,5.3-12.4,13-12.4c7.1,0,13.2,3.6,14.2,10
		c1.2-0.4,2.5-0.7,3.8-0.7c2.8,0,5.6,0.9,8.1,2.9h0.4c3-1.7,5.8-2.9,9.4-2.9c2.1,0,3.5,0.5,4.1,1.1c1,0.8,1.6,2.3,1.6,4.3
		s-0.5,8.1-1,12.8L371.4,477.7z"/>
	<path id="path240" class="st0" d="M415.7,487.6l3.9,0.6l-0.4,4.5c-1.5,0-3.1-0.2-4.4-0.7C414.9,490.6,415.2,489.2,415.7,487.6"/>
	<path id="path244" class="st0" d="M426.9,492.6c-1.5,0-3.1-0.2-4.4-0.7c0.1-1.4,0.5-2.8,0.9-4.3l3.9,0.6L426.9,492.6z"/>
	<path id="path248" class="st0" d="M420.5,467.1c-3,1.7-5.1,4.2-5.4,6.9c0.6,2.6,3.3,5,5.9,5c2.7,0,5.3-1.5,6.2-6.5
		c-1.3-2.3-3.4-3.9-6.3-5.3h-0.4V467.1z M439.2,466.4c-1.7-1.2-3.2-1.5-5.4-1.5l0,0l0,0h-3.9c-1.5,0-3.1,0.2-4.6,0.5l-0.2,0.2
		c3.3,2.4,5.4,5.2,5.4,8c0,4.6-3.7,10.2-9.1,10.2c-5.1,0-9.9-5.5-9.9-10.3c0-2.6,1.4-5.4,4-7.7l-0.2-0.2c-2.1-0.4-4.4-0.6-7-0.6l0,0
		l0,0c-2.2,0-4.2,0.7-5.7,5l-5.1,15.1l-4.4-0.7l6.4-17.6l-0.2-0.3c-3-1.6-5.9-2.3-9-2.3c-3.4,0-4.4,0.8-4.4,2.5c0,0.4,0,0.6,0.1,1.1
		l-3.6,0.4c-0.3-1-0.5-2.1-0.5-3.1c0-3.9,2.6-5.6,7.7-5.6s8.6,1.6,11.3,3.8h0.4c1.7-2.3,3.9-3.2,6.9-3.2l0,0l0,0c4,0,8,0.9,11.5,2.3
		h0.4c3.8-1.8,8.1-2.2,13.6-2.3l0,0l0,0c2.9,0,5.4,0.8,7.1,2.4c1.6,1.2,2.6,3,2.7,6.2l0.4,29.2l-5-0.5L439.2,466.4z"/>
	<path id="path252" class="st0" d="M453.6,460.1h4.4l0.3,37.5l-4.9-0.5L453.6,460.1z"/>
	<path id="path256" class="st0" d="M495.9,464.3h-13.1v18.5c2.6,0.2,4.7,0.3,6.3,0.3c3.1,0,5.1-0.1,6.6-0.3c0.1-1.3,0.2-2.7,0.2-4.7
		V464.3z M488.2,487c-3.5,0-7.5-0.3-10.8-0.6l0.4-4v-22.3H501v17.4C501,486.1,499.1,487,488.2,487"/>
	<path id="path260" class="st0" d="M509.1,486.9c-1.2,0-2.8,0-4,0l0.4-4.1h3.7v-11.7h5v11.5C514.1,486.3,513,486.9,509.1,486.9"/>
	<path id="path264" class="st0" d="M522.6,486.8l-0.5,8.2l-4.5-0.5l0.4-7.7l0.6-4.1h14.2l0.1-0.4l-10.1-22.2h5.4l9.7,23l-0.5,3.7
		H522.6z"/>
	<path id="path268" class="st0" d="M564.4,474.1c-0.8-8.1-4.5-10-10.9-10c-1.8,0-3.4,0-5,0.3l-0.6,5.2c4.9,0.6,8.6,2.5,9.4,7.8
		l1.6,9.5h-4.7l-1.1-7.8c-0.6-4-2.3-5.5-5.2-6h-0.4l-1.4,13.8h-4.8l2.4-21.3c0.2-1.5,0.4-3,0.7-4.9c2.9-0.7,6.5-0.8,9.4-0.8
		c7.8,0,13.9,2.8,15.1,12.7l1.7,14.3h-5L564.4,474.1z"/>
	<path id="path272" class="st0" d="M578.3,486.9c-1.3,0-2.7,0-3.9,0l0.3-4.1h3.7v-22.6h5v22.4C583.3,486.2,582.2,486.9,578.3,486.9"
		/>
	<path id="path276" class="st0" d="M595.7,487c-2.9,0-5.6-0.2-8-0.4l0.3-4.1c2.5,0.3,5.3,0.4,7.7,0.4c2.5,0,4.6-0.1,5.9-0.3
		c0.2-1.4,0.2-2.7,0.2-4.3V460h5v18C606.9,486,606,487,595.7,487"/>
	<path id="path280" class="st0" d="M615.6,486.9c-1.2,0-2.8,0-4,0l0.4-4.1h3.7v-11.7h5v11.5C620.6,486.3,619.5,486.9,615.6,486.9"/>
	<path id="path284" class="st0" d="M645.3,470.5c0-2-0.1-4.1-0.5-6.1c-1-0.4-1.9-0.5-3.4-0.5c-2,0-3.9,0.3-5.7,0.8l-0.3-3.8
		c1.6-0.8,3.4-1.3,5.7-1.3c2.7,0,5.1,0.5,6.6,2.1c1.8,1.9,2.5,5.5,2.5,10v19.6h-5L645.3,470.5z"/>
	<path id="path288" class="st0" d="M661.1,475.1c0.3,2.8,1.2,4.5,2.2,5.7c1.3,1.1,3.1,1.5,4.6,1.5c3.6,0,5.4-2.4,5.6-7.2H661.1z
		 M668,486c-7.7,0-11.8-5.8-11.8-13.5c0-8.2,4.7-12.9,12.3-12.9c2.1,0,5.2,0.4,7.9,1.4l0.3,3.6c-2.7-0.8-5.4-1.1-7.5-1.1
		c-5,0-7.9,2.4-8.2,8.4h16.7c0.3,1.4,0.3,2.6,0.3,3.9C678,482.5,674.1,486,668,486"/>
	<path id="path292" class="st0" d="M688.7,482.4l-0.3,0.1l-0.1,3.3l-4.5-0.6v-25.1h4.8V479c2.1,1.7,3.9,2.2,5.9,2.2
		c0.9,0,1.7-0.1,2.7-0.3l0.4,4.3c-0.9,0.4-1.8,0.5-2.7,0.5C692.8,485.8,690.8,484.7,688.7,482.4"/>
	<path id="path296" class="st0" d="M717.6,466.4c-2.7-2.4-4.7-2.9-6.6-2.9c-3.1,0-4.7,1.2-4.7,4.6v17.1h-4.8v-17.9
		c0-5.5,2.6-7.8,7.3-7.8c3.4,0,6.1,1.3,8.7,3.5l0.4-0.1l0.2-2.8h4.2v25.2h-4.8L717.6,466.4z"/>
	<path id="path300" class="st0" d="M733.2,479.8c0,0.8,0.4,1.4,1,1.9c0.8,0.4,2.2,0.7,3.7,0.7c1.6,0,3.9-0.4,6.3-1.5l0.8,3.8
		c-2.4,0.9-4.6,1.3-6.8,1.3c-5.5,0-9.6-2.6-9.6-6.8c0-7.4,12.3-7.8,12.3-12.8c0-0.9-0.4-1.6-0.9-2.2c-1-0.6-2.3-0.9-3.7-0.9
		c-1.9,0-4.5,0.6-7.3,1.9l-0.9-3.8c2.4-1.2,4.8-1.8,7.6-1.8c6.5,0,9.8,3.5,9.8,7.5C745.8,474.7,733.2,475.7,733.2,479.8"/>
	<path id="path304" class="st0" d="M765.3,466.6c-1.9-2-4.2-2.9-6.3-2.9c-2.9,0-4.5,1.7-4.5,4.2c0,1.2,0.2,2.4,0.8,3.3
		c1.9,1.1,4.2,1.1,6.4,1.1c1.3,0,2.4,0,3.5-0.2L765.3,466.6z M760.5,486c-3,0-6-0.6-8.8-1.4l-0.3-3.9c2.8,0.8,5.9,1.3,8.3,1.3
		c4.7,0,5.6-2,5.6-6v-0.5c-1,0.1-1.9,0.1-3,0.1c-2.8,0-6.1-0.2-8.3-1.4c-2.6-1.2-4.1-3.8-4.1-7.1c0-3.3,2.2-7.4,7.7-7.4
		c3,0,5.6,1.2,7.8,3.3l0.3-0.1l0.4-2.9h4.1v16.7C770.1,483.1,766.7,486,760.5,486"/>
	<path id="path308" class="st0" d="M781.9,466.3v29.8l-4.8-0.6v-30.2c0-2,0.1-3.5,1-4.4c1-0.9,2.3-1,3.9-1c1.4,0,2.8,0.2,4,0.4
		l0.3,3.6l-4.3,0.3C781.9,464.8,781.9,465.4,781.9,466.3"/>
	<path id="path312" class="st0" d="M794.5,475.1c0.3,2.8,1.2,4.5,2.2,5.7c1.3,1.1,3.1,1.5,4.6,1.5c3.6,0,5.4-2.4,5.6-7.2H794.5z
		 M801.5,486c-7.7,0-11.8-5.8-11.8-13.5c0-8.2,4.7-12.9,12.3-12.9c2.1,0,5.2,0.4,7.9,1.4l0.3,3.6c-2.7-0.8-5.4-1.1-7.5-1.1
		c-5,0-7.9,2.4-8.2,8.4h16.7c0.3,1.4,0.3,2.6,0.3,3.9C811.5,482.5,807.6,486,801.5,486"/>
	<path id="path316" class="st0" d="M846.8,485.9c-3.7,0-7-1.5-9.5-3l-0.4,0.2c-1.1,2-3.2,2.8-6.1,2.8c-3.3,0-6.2-1.3-8.5-2.9
		l-0.4,0.1l-0.2,2.7l-4.5-0.6v-25.1h4.8v19.6c2.6,1.5,4.9,2,6.6,2c3,0,4.5-1.3,4.5-4.6V460h4.8v18c0,0.7,0,1.2-0.1,1.7
		c2.7,1.4,4.9,1.9,6.8,1.9c3,0,4.4-1.3,4.4-4.6v-17.1h4.8v18C853.9,483.7,851.4,485.9,846.8,485.9"/>
	<path id="path320" class="st0" d="M888.4,478.8c0,7.2-1.9,8.2-10.3,8.2c-2.8,0-5.8-0.1-8.4-0.4l0.4-4.1c2.5,0.2,5.7,0.4,8.1,0.4
		c2,0,3.7-0.1,5.1-0.3c0.2-1.1,0.3-2.3,0.3-3.5v-14.6h-13.9v-4.3h22.9v4.1l-4,0.3L888.4,478.8z"/>
	<path id="path324" class="st0" d="M898,486.9c-1.3,0-2.7,0-3.9,0l0.3-4.1h3.7v-22.6h5v22.4C903,486.2,901.9,486.9,898,486.9"/>
	<path id="path328" class="st0" d="M929.9,486.8H925l-3.8-13.1h-0.3l-9,13.4l-5.2-0.5l8.5-12.1c2.7-3.7,5.2-6.9,7.5-9.7l-0.1-0.4
		l-14,0.1v-4.4h19.8l0.6,4l-5.2,6.3v0.4C926.3,475.1,927.9,479.9,929.9,486.8"/>
	<path id="path332" class="st0" d="M936.6,486.9c-1.2,0-2.8,0-4,0l0.4-4.1h3.7v-11.7h5v11.5C941.6,486.3,940.5,486.9,936.6,486.9"/>
	<path id="path336" class="st0" d="M962.8,474.7c-0.2-4.7-2.1-7.2-5.6-8.7l-6.2,21.1l-5-0.4l7.1-22.2l-6.9-2.2v-4.6l9.8,3.2
		c6.3,2,10.8,5.5,11.5,12.9l1.1,13h-5.2L962.8,474.7z"/>
	<path id="path340" class="st0" d="M976.5,486.9c-1.3,0-2.7,0-3.9,0l0.3-4.1h3.7v-22.6h5v22.4C981.5,486.2,980.4,486.9,976.5,486.9"
		/>
	<path id="path344" class="st0" d="M1011.6,487c-4.5,0-9.5-0.2-13.8-0.5l0.4-4.1l4.6,0.3v-15.2c0-2.2-0.6-3.2-3.1-3.2
		c-0.7,0-1.2,0-2.2,0.1v-4c0.9-0.3,2.2-0.4,3.4-0.4c5.5,0,6.9,2.4,6.9,6.6v16.3c1.6,0.1,3.1,0.1,4.3,0.1c2.7,0,5-0.1,6.9-0.5
		c0.2-1.8,0.2-3.5,0.2-5.1v-17.3h5v17.6C1024.1,485.9,1022.6,487,1011.6,487"/>
	<path id="path348" class="st0" d="M1033.1,486.9c-1.3,0-2.7,0-3.9,0l0.3-4.1h3.7v-22.6h5v22.4
		C1038.1,486.2,1036.9,486.9,1033.1,486.9"/>
	<path id="path352" class="st0" d="M1049.1,486.9c-1.9,0-2.8-0.1-4.1-0.1l0.3-4.1h5.3v-18.3h-6.8v-4.3h11.7v18
		C1055.5,484.7,1055.7,486.9,1049.1,486.9"/>
	<path id="path356" class="st0" d="M1077.8,487c-3.7,0-6.9-0.8-10.6-2.8l-1,2.9l-4.6-0.3l1.9-5.9l-2.1-20.8h5.1l1.7,20.9
		c3.2,1.4,6.3,1.7,8.7,1.7c1.2,0,2.1,0,3-0.2c0.3-2,0.3-4,0.3-6.1v-12h-7.6v-4.3h12.5v17.1C1085.1,485.2,1083.7,487,1077.8,487"/>
	<path id="path360" class="st0" d="M1112.9,479.5l0.7,7.4h-5l-0.4-6.3c-0.1-2.8-0.9-5.7-1.8-7.4l-0.4-0.2
		c-3.7,4.5-7.6,9.5-11.6,14.1l-5.5-0.4c2-2.1,4-4.5,6-6.8v-0.3c-1.9-2.5-3.2-5.8-3.6-9.9l-0.9-9.6h5l0.5,8.1c0.2,2.9,0.7,5.7,1.6,8
		h0.3c3.8-4.7,8.2-10.4,12.3-16.2h5.2v0.6c-2.1,3.2-4.3,6.1-6.5,9C1111.1,472,1112.6,475.5,1112.9,479.5"/>
	<path id="path364" class="st0" d="M1122.6,486.8l-0.5,8.2l-4.5-0.5l0.4-7.7l0.6-4.1h14.2l0.1-0.4l-10.1-22.2h5.4l9.7,23l-0.5,3.7
		H1122.6z"/>
	<path id="path368" class="st0" d="M1460.6,604.1h11.9l0.1-0.4l-8.8-19.9h9.1l8.6,21.2l-0.5,5.9h-13.2l-0.4,8.4l-7.8-0.7l0.3-7.8
		L1460.6,604.1z"/>
	<path id="path372" class="st0" d="M1491.3,603.1c-2.4-2.4-3.9-6.3-4.2-11l-0.5-8.3h8.3l0.2,6.4c0.1,2.7,0.3,4.9,0.7,7.4h0.4
		c3.1-4.4,6-9.1,8.8-13.8h8.9v0.6c-2,3.5-4,6.6-6,9.7c2.8,2.7,4,7.3,4.2,11.8l0.3,5.1h-8.1l-0.2-4.6c-0.1-2.5-0.2-4.9-0.7-6.9h-0.3
		c-2.8,4-5.5,7.8-8.4,11.7l-9.5-0.7c2.2-2.6,4.2-4.9,6.1-7.3L1491.3,603.1z"/>
	<path id="path376" class="st0" d="M1518.2,604.1h11.9l0.1-0.4l-8.8-19.9h9.1l8.6,21.2l-0.5,5.9h-13.2l-0.4,8.4l-7.8-0.7l0.3-7.8
		L1518.2,604.1z"/>
	<path id="path380" class="st0" d="M1555.8,591.4l-0.1-0.4h-11.3v-7.2h21.8l1.1,6l-4.8,5.1v0.4c2.8,3.5,4,7.5,5.6,15.7h-7.9l-2-11
		l-0.3-0.1l-6.8,11.4l-8.9-0.7l6.9-10C1552.1,596.2,1553.8,594.1,1555.8,591.4"/>
	<path id="path384" class="st0" d="M1581.5,604.1c1.3,0,2.6,0,3.6-0.2c0.1-0.7,0.2-1.5,0.2-2.7v-10h-11.7v-7.3h23.6v6.9l-3.4,0.3
		v9.7c0,9.2-2.8,10.5-11.5,10.5c-3,0-6-0.1-8.8-0.5l0.6-7.1C1576.4,603.9,1579.1,604.1,1581.5,604.1"/>
	<path id="path388" class="st0" d="M1466.7,513.4l-0.6,6c-1.9,0.2-4.2-0.2-6-0.7c0.1-2.2,0.6-4,1.2-5.9L1466.7,513.4z"/>
	<path id="path392" class="st0" d="M1474.8,519.4c-1.9,0.2-4.2-0.2-6-0.7c0.1-2.2,0.6-4,1.2-5.9l5.4,0.7L1474.8,519.4z"/>
	<path id="path396" class="st0" d="M1494.5,549.9l-2.4-0.5c-2.4,0.7-4.9,1.7-5.3,2.8c0.7,0.4,1.5,0.6,2.5,0.6c0.8,0,1.7-0.2,2.5-0.5
		l0.7,4.8c-1.2,0.5-2.1,0.6-3.1,0.6c-3.6,0-6-2.9-6-6.2c0-1.1,0.7-2.2,1.8-3.3l-2.9-0.6V544l12.3,2L1494.5,549.9L1494.5,549.9z"/>
	<path id="path400" class="st0" d="M1579.9,545.5l-0.6,6c-1.9,0.2-4.2-0.2-6-0.7c0.1-2.2,0.6-4,1.2-5.9L1579.9,545.5z"/>
	<path id="path404" class="st0" d="M1566.4,544.8l5.4,0.7l-0.6,6c-1.9,0.2-4.2-0.2-6-0.7C1565.3,548.5,1565.8,546.7,1566.4,544.8"/>
	<path id="path408" class="st0" d="M1586.6,518.7c0.1-2.2,0.6-4,1.2-5.9l5.4,0.7l-0.6,6C1590.6,519.6,1588.4,519.3,1586.6,518.7"/>
	<path id="path412" class="st0" d="M1595.6,532.9c0,2.1-0.2,6.7-0.5,10.7l-7.7-0.8l1.4-12.5c-2-0.7-3.8-1-6.6-1
		c-2.2,0-4.4,0.3-6.1,1l0.4,11.3l-7.4-0.4l-0.4-10.9c-1.5-0.6-3.2-0.9-6-0.9l0,0l0,0c-4.5,0-4.9,1.2-5.1,3.5l-0.8,8.7l-7.4-0.7
		l1.1-8.5c0.1-1,0.3-2,0.4-3c-1-0.2-2.1-0.3-3.2-0.3c-1.6,0-3.5,0.3-5.4,0.9l1.3,8.7l-7.2,0.3l-1-9c-1.2-0.7-2.1-0.9-3.5-0.9
		c-1.7,0-3,0.3-4.5,0.9l0.5,3.1l0.8,5.6l-7-0.2l-0.7-6.4c-0.2-2.2-1.7-2.8-4.7-2.8l0,0l0,0c-2,0-4.1,0.3-5.6,1l0.5,28.7l-8.4-0.7
		l0.5-28.1c-1.3-0.6-2.8-1-5.2-1l0,0l0,0c-2.2,0-4.4,0.3-6.1,1l0.4,11.3l-7.4-0.4l-0.4-10.9c-1.5-0.6-3.2-0.9-6-0.9l0,0l0,0
		c-2.2,0-4.4,0.3-6.1,1l0.4,11.3l-7.4-0.4l-0.4-10.9c-1.5-0.6-3.2-0.9-6-0.9l0,0l0,0c-1.8,0-4,0.2-5.8,1l0.3,28.8l-8.4-0.7l0.9-35.1
		c-2.4-1.3-4.9-2-7.8-2c-4.9,0-6.8,2.1-6.8,6.1c0,1.8,0.3,4,1.2,6.7l-6.3,1.1c-1.6-4-2.1-7.1-2.1-9.6c0-7.7,4.9-12.6,13.3-12.6
		c7.7,0,14.3,4,15.6,11l0,0l0.3,0.1c1.7-1.5,4-2.2,5.8-2.2l0,0l0,0c3.3,0,6.7,0.7,9.5,2.9h0.4c3-2.5,6-2.9,9.6-2.9l0,0l0,0
		c3.3,0,6.6,0.7,9.5,2.9h0.4c3-2.5,6-2.9,9.6-2.9l0,0l0,0c3.1,0,6.1,0.6,9.1,2.9h0.4c2.8-2.4,6.1-2.9,8.8-2.9l0,0l0,0
		c3.2,0,6.4,0.7,8.4,2.5h0.4c2.7-2.3,5.6-2.7,7.2-2.7c2.8,0,5.3,1,7.1,2.4h0.4c1.9-1.6,4.1-2.5,7.4-2.5c2.8,0,5.1,0.6,7.4,2.1h0.4
		c1.9-1.1,4.4-1.8,7.8-1.8l0,0l0,0c3.3,0,6.7,0.7,9.5,2.9h0.4c3-2.5,6-2.9,9.6-2.9c3.9,0,7.4,0.8,9.3,1.8
		C1594.3,525.1,1595.6,528.1,1595.6,532.9"/>
	<path id="path416" class="st0" d="M1443.3,465.5c-0.8-0.3-2.1-0.3-3.2-0.3s-1.5,0.1-2.3,0.2v7.4h2.7c2.8,0,4.2-1,4.2-4
		C1444.7,467.5,1444.4,466.5,1443.3,465.5 M1437.8,485.2c1,0.1,2,0.1,2.6,0.1c2.2,0,3.7-0.9,3.7-3.2c0-1.3-0.5-2.5-1.6-3.2
		c-0.7-0.2-1.8-0.2-3.3-0.2h-1.3L1437.8,485.2L1437.8,485.2z M1448,476.1v0.4c2.8,1.6,4.1,3.8,4.1,6.8c0,5.1-3.9,7.8-11.7,7.8
		c-2.3,0-7-0.2-10.7-0.8v-30.7c5.7-0.6,9.2-0.6,9.9-0.6c8.6,0,13.3,3.5,13.3,9.9C1452.9,472.9,1451.2,475.1,1448,476.1"/>
	<path id="path420" class="st0" d="M1465.9,475.2c0.2,1.4,0.5,2.8,1.1,3.8c1.1,0.8,2.6,0.9,3.2,0.9c2.5,0,3.4-1.4,3.6-4.8
		L1465.9,475.2z M1470.7,485.9c-8,0-12.8-5.3-12.8-13.9c0-8.7,5.2-13,13.2-13c2.6,0,5.7,0.4,8.5,1.3l0.4,5.7
		c-3.2-0.6-5.3-0.8-7.9-0.8c-3.7,0-5.7,1-6.2,5h15.2c0.5,2,0.5,3.6,0.5,5.2C1481.6,482.2,1477.5,485.9,1470.7,485.9"/>
	<path id="path424" class="st0" d="M1496.2,466.5l10.2,13.9l-0.1,5H1487l-0.4-6.1h10.2l0.1-0.4l-10.5-13.7l-0.3-5.6h19.8l0.7,6.5
		h-10.5L1496.2,466.5z"/>
	<path id="path428" class="st0" d="M1525.7,466.8c-1.7-1.3-3.3-1.5-4.2-1.5c-1.9,0-2.8,1-2.8,2.7c0,0.6,0.1,1.3,0.6,2.1
		c0.9,0.5,2.1,0.8,3.5,0.8c0.7,0,1.8-0.1,3-0.1L1525.7,466.8z M1522.7,486c-2.9,0-6.4-0.6-9.5-1.6l-0.5-6.4c2.9,0.8,6.4,1.2,8.6,1.2
		c4.5,0,4.6-1.7,4.5-4v-0.1c-0.6,0.1-1.4,0.1-2.4,0.1c-2.6,0-5.3-0.4-7.2-1.1c-3.4-1.3-5.3-4.1-5.3-7.4c0-3.1,1.8-7.6,8-7.6
		c2.6,0,4.8,0.9,7.1,3l0.3-0.1l0.8-2.5h6.4v16.9C1533.7,483,1529.5,486,1522.7,486"/>
	<path id="path432" class="st0" d="M1548.6,468.5v27.7l-7.9-1.1v-27.8c0-3.3,0.4-5.4,1.7-6.6c1.4-1.2,3.2-1.4,5.1-1.4
		c1.8,0,3.7,0.3,4.8,0.5l0.5,6.1l-4,0.3C1548.6,466.8,1548.6,467.5,1548.6,468.5"/>
	<path id="path436" class="st0" d="M1564.6,475.2c0.2,1.4,0.5,2.8,1.1,3.8c1.1,0.8,2.6,0.9,3.2,0.9c2.5,0,3.4-1.4,3.6-4.8
		L1564.6,475.2z M1569.4,485.9c-8,0-12.8-5.3-12.8-13.9c0-8.7,5.2-13,13.2-13c2.6,0,5.7,0.4,8.5,1.3l0.4,5.7
		c-3.2-0.6-5.3-0.8-7.9-0.8c-3.7,0-5.7,1-6.2,5h15.2c0.5,2,0.5,3.6,0.5,5.2C1580.3,482.2,1576.2,485.9,1569.4,485.9"/>
	<path id="path440" class="st0" d="M1594.1,466.1c-0.1,0.7-0.1,1.4-0.1,2.4v27.7l-7.9-1.1v-27.8c0-3.3,0.4-5.4,1.7-6.6
		c1.4-1.2,3.2-1.4,5.1-1.4c1.8,0,3.7,0.3,4.8,0.5l0.5,6.1L1594.1,466.1z"/>
	<path id="path444" class="st0" d="M1228.3,598c0.8,0,1.4,0.6,1.4,1.4c0,0.8-0.6,1.4-1.4,1.4s-1.4-0.6-1.4-1.4
		C1227,598.6,1227.6,598,1228.3,598"/>
	<path id="path448" class="st0" d="M1366.8,532.6l-3.5,0.1c0,3-0.1,7.3-0.3,9.9c-0.9,0-1.4,0-2.2-0.2c0.2-4.4,0.3-7.6,0.1-11.6
		l7.9-0.1c0,0.5-0.1,7.7-0.2,10.1l2.1,0.1c0.2-3.4,0.2-6.7,0.1-10.5c0.8-0.1,1.3-0.1,2.2-0.1c0.2,2.7-0.2,12.4-0.2,12.7l-6.3-0.4
		C1366.5,542.5,1366.8,535.5,1366.8,532.6"/>
	<path id="path452" class="st0" d="M1304.1,583.5c-0.3-0.1-1.1-0.1-1.7-0.4l0.8-1.3c0.4,0.3,1.2,0.4,0.8,1.2c-0.7-0.1,0-0.6-0.8-0.6
		c-0.2,0-0.3,0.1-0.3,0.2C1303,583.3,1304.3,582.9,1304.1,583.5"/>
	<path id="path456" class="st0" d="M1262.4,582.5c-0.8,0-0.1,0.4-0.8,0.6c-0.4-0.8,0.4-1,0.8-1.2l0.8,1.3c-0.6,0.3-1.4,0.3-1.7,0.4
		c-0.1-0.6,1.1-0.2,1.1-0.8C1262.7,582.6,1262.6,582.5,1262.4,582.5"/>
	<path id="path460" class="st0" d="M1322.3,482h13.2c0.5,0.5,1,1,1.5,1.6h-15.4c-12.6,3-25.7,4.6-38.8,4.6
		c-13.1,0-26.2-1.5-38.8-4.6h-15.4c0.5-0.5,1-1,1.5-1.6h13.2v-3.7h-9.2c13.1-11.3,30.1-18.1,48.7-18.1s35.6,6.8,48.7,18.1h-9.2
		L1322.3,482z"/>
	<path id="path464" class="st0" d="M1231.5,549.9c0.1-0.5,0.2-1,0.3-1.5l-21.5-21.4c-0.1,0.7-0.2,1.4-0.2,2.1L1231.5,549.9z
		 M1211.5,550.1l19.2,13.3c0-0.5,0-1-0.1-1.5l-19.5-13.9C1211.2,548.7,1211.3,549.4,1211.5,550.1 M1220.7,573.3l13.4,5.7
		c-0.2-0.5-0.4-1-0.5-1.4l-14-6.1C1219.9,572.1,1220.3,572.7,1220.7,573.3 M1235,590.2l6.3,1.2c-0.3-0.4-0.6-0.8-0.9-1.2l-7-1.5
		C1234,589.3,1234.5,589.7,1235,590.2 M1334.3,544.6v-2.3h-102.8v2.3H1334.3z M1272.2,548.7c-0.2,0-0.4,0.1-0.6,0.1
		c-0.5,5.2-1.4,9-2.9,12.1c0.2,1.6,0.2,3.8-0.3,5.8c1.6-1.8,3.4-2.9,5.4-3.6c2.4-0.8,1-1.7-0.3-1.7s-2.5,0.2-3.2,0.7
		c0.9-1.6,2.8-2.9,4.8-3.4c1.3-0.4,1.3-1.2,0-1.2c-0.1,0-0.1,0-0.2,0c-1.4,0.1-3.4,0.8-5.2,1.9c3.5-4.8,8.9-6.9,14.4-7.5
		c2.9-0.3,2.8-2.8-0.6-2.9c-4-0.1-7.5,0.3-11.5,2.8c2.2-2.6,7.4-4.8,11.9-5.6h-8.3C1275.5,546.6,1275.3,548.5,1272.2,548.7
		 M1272.9,574.8l-3-7.6c-0.2,0.2-0.3,0.3-0.5,0.5l-0.4,0.4l3.2,7C1272.4,575,1272.6,574.9,1272.9,574.8 M1278,573.3l-1.8-10.2
		c-0.1,0.2-0.3,0.4-0.5,0.5c-0.2,0.2-0.4,0.3-0.6,0.4l2.1,9.4C1277.5,573.4,1277.7,573.4,1278,573.3 M1283.7,553.4
		c-0.6,0.1-1.1,0.1-1.7,0.3l0.5,19.2c0.1,0,0.3,0,0.4,0s0.3,0,0.4,0L1283.7,553.4z M1266.6,581.4c0,1.3,0.2,2.6,0.4,3.7
		c3.9-4.4,9.6-7.1,15.9-7.1s11.9,2.8,15.9,7.1c0.2-1.2,0.3-2.4,0.3-3.8c-4.3-3.9-10-6.2-16.2-6.2
		C1276.6,575.2,1270.9,577.5,1266.6,581.4 M1268.1,589.2c3.2-4.7,8.6-7.8,14.7-7.8s11.5,3.1,14.7,7.7c0.2-0.4,0.3-0.9,0.5-1.3
		c-3.5-4.6-9-7.6-15.2-7.6s-11.7,3-15.2,7.6C1267.8,588.3,1267.9,588.8,1268.1,589.2 M1275.1,597.3c0.9-3.4,4-6,7.8-6
		c3.7,0,6.8,2.5,7.8,6c1.9-1.1,3.4-2.4,4.7-4.1c-2.3-4.6-7-7.7-12.4-7.7c-5.5,0-10.2,3.2-12.5,7.8
		C1271.7,594.8,1273.2,596.2,1275.1,597.3 M1279.3,606.6c0,0.5-0.1,1.4-0.3,1.8c1.2,0.1,2.6,0.1,3.9,0.1c1.2,0,2.6,0,3.9-0.1
		c-0.2-0.4-0.3-1.3-0.3-1.8c-1.1,0.5-2.3,0.9-3.5,0.8C1281.6,607.4,1280.4,607.1,1279.3,606.6 M1292.8,574.8
		c0.2,0.1,0.5,0.2,0.7,0.3l3.2-7l-0.4-0.4c-0.2-0.2-0.3-0.3-0.5-0.5L1292.8,574.8z M1287.8,573.3c0.3,0,0.5,0.1,0.8,0.2l2.1-9.4
		c-0.2-0.1-0.4-0.3-0.6-0.4c-0.2-0.2-0.4-0.3-0.5-0.5L1287.8,573.3z M1297.4,566.7c-0.5-2-0.6-4.2-0.3-5.8
		c-1.5-3.1-2.4-6.9-2.9-12.1c-0.2,0-0.4-0.1-0.7-0.1c-2.5-0.2-3.1-1.3-3.3-2.1c-1.4,0.2-2.9,0.4-4.2,0.6c2.3,0.8,3.9,1.6,5.2,2.4
		c1.2,0.8,2,1.5,2.6,2.1c-2-1.2-4.2-2-6.6-2.4c0.2,0.4,0.3,0.8,0.3,1.1c0,0.8-0.3,1.7-1.4,2.3c4.6,1.2,7.2,3.2,9.9,6.5
		c-1.8-1.1-3.8-1.8-5.2-1.9c-0.1,0-0.1,0-0.2,0c-1.2,0-1.3,0.8,0,1.2c2,0.6,3.8,1.9,4.8,3.4c-0.7-0.5-1.9-0.7-3.2-0.7
		c-1.3,0-2.7,0.9-0.3,1.7C1294,563.8,1295.9,564.9,1297.4,566.7 M1332.1,577.6c-0.2,0.5-0.4,1-0.5,1.4l13.5-5.7
		c0.4-0.6,0.8-1.2,1.1-1.9L1332.1,577.6z M1324.4,591.4l6.3-1.3c0.5-0.4,1.1-0.9,1.5-1.4l-7,1.5C1325,590.7,1324.6,591,1324.4,591.4
		 M1354.7,548l-19.6,13.9c0,0.5,0,1-0.1,1.5l19.2-13.3C1354.4,549.4,1354.6,548.7,1354.7,548 M1355.4,527l-21.5,21.4
		c0.1,0.5,0.2,1,0.3,1.5l21.4-20.8C1355.5,528.4,1355.5,527.6,1355.4,527 M1335.2,524.8l-6.9,9.8v2.4h0.2l8.9-12.2H1335.2z
		 M1326.7,533.5h-18.6c-1.6,1.5-3.4,2.6-5.3,3.5h23.9V533.5z M1320.9,524.8c-0.5,1.2-1.7,2.1-3.1,2.1s-2.6-0.9-3.1-2.1h-6.1v7.2
		h14.7l0.9-7.2H1320.9z M1316.1,517.6v6c0,1,0.8,1.7,1.7,1.7c0.9,0,1.7-0.8,1.7-1.7v-6c0-1-0.8-1.7-1.7-1.7
		C1316.9,515.9,1316.1,516.7,1316.1,517.6 M1325.3,516.4l1.4-10.9h-18.1v10.9h6.1c0.5-1.2,1.7-2.1,3.1-2.1s2.6,0.9,3,2.1H1325.3z
		 M1327.2,501.8h-18.6v2.1h18.3L1327.2,501.8z M1331.5,494.7h-22.9v5.6h22.9V494.7z M1283.6,494.7v21.7h23.5v-21.7H1283.6z
		 M1258.6,494.7v21.7h23.5v-21.7H1258.6z M1257,494.7h-22.9v5.6h22.9V494.7z M1238.7,504h18.3v-2.1h-18.6L1238.7,504z M1240.4,516.5
		h4.4c0.5-1.2,1.7-2.1,3.1-2.1s2.6,0.9,3.1,2.1h6.1v-10.9H1239L1240.4,516.5z M1249.6,523.6v-6c0-1-0.8-1.7-1.7-1.7
		c-0.9,0-1.7,0.8-1.7,1.7v6c0,1,0.8,1.7,1.7,1.7C1248.8,525.4,1249.6,524.6,1249.6,523.6 M1241.4,524.8l0.9,7.2h14.7v-7.2h-6.1
		c-0.5,1.2-1.7,2.1-3.1,2.1s-2.6-0.9-3.1-2.1H1241.4z M1238.9,537h23.9c-1.9-0.9-3.7-2-5.3-3.5h-18.6V537z M1234.7,538.6v2.2h96.3
		v-2.1L1234.7,538.6z M1307.1,524.8h-23.5v7.6c0.1,0.1,0.3,0.2,0.4,0.3c0.3,0.3,0.6,0.5,1,0.8c3,2.3,6.6,3.5,10.4,3.5h0.1
		c3.8,0,7.4-1.2,10.4-3.5c0.3-0.2,0.6-0.5,1-0.8c0.1-0.1,0.3-0.2,0.4-0.3L1307.1,524.8z M1314.5,523.2V518h-63.4v5.2H1314.5z
		 M1277.8,537h10.1c-1.8-0.8-3.5-1.9-5-3.2C1281.3,535.2,1279.6,536.2,1277.8,537 M1280.7,533.5c0.3-0.2,0.6-0.5,1-0.8l0.4-0.3v-7.6
		h-23.5v7.6c0.1,0.1,0.3,0.2,0.4,0.3c0.3,0.3,0.6,0.5,0.9,0.8c3,2.3,6.6,3.5,10.4,3.5h0.1C1274.1,537,1277.7,535.8,1280.7,533.5
		 M1230.5,524.8h-2.2l8.9,12.2h0.2v-2.5L1230.5,524.8z M1265.1,578.9c-0.5,0-1-0.1-1.6-0.4c-0.6,0.6-0.8,1.1-0.8,1.7
		c0.2-0.1,0.4-0.1,0.6-0.2c0.3-0.1,0.5,0.2,0.5,0.5c0,1.4,0.3,2.1,0.5,2.5c0.3,0,0.5,0.1,0.7,0.2c0.1,0.1,0.1,0.1,0.2,0.2
		C1265,582,1265,580.5,1265.1,578.9 M1258,585.1c0.5,2.2,2.3,2.9,3.8,2.7c1.5-0.1,3.1-1.2,3.2-2.8c0-0.3-0.1-0.8-0.4-1
		s-0.7-0.1-1,0.1C1262,584.7,1260,585.1,1258,585.1 M1255.7,582.1c0.1,0.6,0.1,1.3,0.1,2c1.5,0.2,3,0.2,4.4,0
		C1259.5,583.4,1258.2,582.3,1255.7,582.1 M1300.7,583.3c0.2-0.1,0.4-0.2,0.7-0.2c0.2-0.4,0.5-1.1,0.5-2.5c0-0.3,0.3-0.6,0.5-0.5
		c0.2,0,0.4,0.1,0.6,0.2c-0.1-0.6-0.3-1.1-0.8-1.7c-0.6,0.2-1.1,0.4-1.6,0.4c0.1,1.6,0.1,3.2-0.1,4.6
		C1300.6,583.5,1300.6,583.4,1300.7,583.3 M1303.9,587.8c0.1,0,0.3,0,0.4,0c1.1,0,2.2-0.4,2.9-1.6c-2.7,0-5.1-0.7-6.4-1.5
		c0,0.1,0,0.2,0,0.2C1300.8,586.6,1302.4,587.7,1303.9,587.8 M1307.5,585.6c0-0.2,0.1-0.4,0.2-0.6c-2,0-4-0.4-5.6-1
		c-0.3-0.1-0.7-0.2-1-0.1c-0.1,0.1-0.1,0.1-0.2,0.2C1302.3,585,1304.6,585.7,1307.5,585.6 M1309.9,584.1c0-0.3,0-0.7,0-1
		c-1.3,0.2-1.9,0.7-2.2,1.2C1308.4,584.2,1309.1,584.2,1309.9,584.1 M1310,582.1c-2.5,0.1-3.9,1.3-4.5,2c0.5,0.1,1,0.1,1.5,0.1
		c0.3-0.6,1.1-1.6,2.9-1.7C1310,582.4,1310,582.2,1310,582.1 M1208.9,523.3h35.6V518h-34.6c2.1-9,5.9-17.4,10.9-24.8h123.9
		c5.1,7.4,8.8,15.8,10.9,24.8H1321v5.2h35.7c0.6,3.9,0.9,7.8,0.9,11.9c0,32.1-20.3,59.5-48.7,70.1c-3.2,1.2-6.4,2.2-9.8,2.9
		c3.2-1.1,6.8-2.8,10.5-5.2c14.5-9.5,29.2-29.4,22.1-56.6c0-0.1-0.1-0.2-0.1-0.3h-2.1c0,0.1,0,0.3,0.1,0.5c0.2,0.6,0.3,1.1,0.6,2.3
		c-0.7-1-1.4-1.9-2.2-2.7h-3.5c0.9,1.1,1.4,2.3,1.6,3.7c-1-1.5-2.1-2.8-3.3-3.7h-2.6l0.1,0.1c1.2,0.8,4,3.9,3.9,7.6
		c-0.7-3.1-3.3-6.1-6.1-7.7h-2.8c0,0,0.1,0,0.1,0.1c1.5,0.7,4.4,2.7,5.2,4.4c-2.5-1.8-5.2-3.4-7.8-4.5h-4.3c3.6,1.6,6.8,3.5,8.3,6.9
		c-3.8-3.2-8.2-5.7-14.8-6.9h-10.4c0,0.4,0.6,0.9,1.9,1c9.2,0.8,21.4,5.1,24.2,12.9c-4.6-4.9-11.5-8.8-17.2-8.4
		c-2.1,0.2-2.7,1.8-0.3,2.2c7.7,1.2,15.1,5.7,16.1,12.7c-1.4-3.7-4.2-6.1-7.5-6.7c-1.2-0.2-2.1,0.6-0.4,1.2c2.1,0.7,4.9,2.8,5.2,5.2
		c-1-1.9-2.9-2.6-4.3-2.7c-1.1,0-1,0.5,0,0.9c0.2,0.1,0.5,0.2,0.7,0.4c1.4,1.1,2.3,3.7,2.3,7.4c0,0.3,0,0.6,0,0.9
		c-3.4-2.2-6.2-4.7-6.1-7.4c0.1-2.5-0.3-6.6-2.3-9.5c-1.2-0.4-2.5-0.7-3.8-0.9c-2.2-0.4-2.9-1.6-2.9-2.7c0.1-1.4,1.4-2.5,3.3-2.6
		c0.2,0,0.4,0,0.5,0c-1.9-0.5-3.9-0.9-5.9-1.2c0.9,7.7,2.2,11.8,5.7,16.5l-0.2,0.1c-1.1-0.9-1.9-2-2.7-3.2c-0.1,1.6,0.2,3.6,0.8,5.1
		c0.1-0.1,0.2-0.3,0.4-0.4l0.2-0.2l0.3,0.1c2.3,0.5,5.9,2.6,8.4,4.7l-0.3,0.4c-2.4-1.8-5.8-3.5-8-4c-0.9,0.8-1.9,1.8-1.3,5.1
		l-0.2,0.1c-0.4-1.1-0.6-2-0.6-2.8c-0.6,0.2-0.9,1.1-0.7,3.9c0.2,1.7,0.4,2.1,1.7,3c1.3,0.9,2.5,0.7,3.6,0.2c0.6-0.3,0.4-0.6,0-0.6
		s-1.3,0-1.3,0c0.8-0.4,1.2-0.7,1.5-0.9s0.3-0.6-0.4-0.5c-0.6,0.1-1.3,0.3-1.8,0.4c0.5-0.4,0.8-0.6,1.1-1c0.2-0.3-0.1-0.6-0.5-0.3
		s-1.1,0.6-1.8,0.6c0.5-0.3,0.8-0.5,1.1-0.7c0.3-0.2,0-0.5-0.3-0.3c-0.5,0.3-1.8-0.2-2.4,0.2l0.2-0.5c0.3-0.3,0.7-0.3,1.3-0.3h0.3
		c0.1,0,0.2,0,0.2,0c0.2-0.1,0.4-0.2,0.6-0.2c0.4,0,0.7,0.2,0.9,0.4c0.1,0,0.2,0,0.3,0c0.4,0,0.8,0.2,1,0.6c0.1,0.1,0.1,0.3,0.1,0.4
		c0.6,0,0.9,0.3,1,0.7c0.1,0.3,0.1,0.7-0.2,1.1c0.1,0.1,0.2,0.3,0.3,0.5c0,0.2,0.1,0.7-0.6,1.1c0.3,0.4,0.5,0.8,0.6,1.3
		c0.4,0,1.3,0.2,1.6,0.1c0-0.2-0.3-0.3-0.5-0.4V579c0.4,0.1,0.7,0.2,0.8,0.5c0.1,0.2,0.3,0.7-0.1,0.6c-0.4,0-1.2,0-1.6,0.1
		c0,0.1,0,0.2,0,0.4c0.2,0.2,0.3,0.4,0.4,0.6l-0.2,0.1c-0.2-0.2-0.6-0.4-1.2-0.4c-0.1,1.1-0.3,1.8-0.5,2.4c0.1,0,0.2,0.1,0.3,0.1
		c0.7,0.3,1.6,0.5,2.5,0.7c0.3-0.4,0.9-1.1,2-1.6c0.3-1.1-0.2-2.9-0.8-3.6c-0.2-0.1-0.4-0.2-0.6-0.3c-0.9-0.6-1.3-1.6-1.5-3
		c-0.5-0.1-1.1-0.4-1.4-1.1l0.2-0.1c0.2,0.5,1.2,0.6,1.9,0.4c0.2,1.3,0.7,2.6,1.4,3.1c0.6,0.5,1.6,0.8,2.7,0.6l0.1,0.4
		c-0.6,0.2-1.1,0.3-1.7,0.3c0.5,1.2,0.5,2.1,0.2,3.1c0.7-0.3,1.7-0.6,2.8-0.6c0.2-1.4,0.7-2.7,1.6-4l0.7,0.5l0,0l0,0
		c0.3,1.5,0.4,2.9,0.4,4.2c0,8.6-5.5,14.3-9.3,16.5c4.6-4,8.7-9.4,8-18.9c-0.5,1.4-0.7,2.9-0.7,4.6c0,0.2-0.2,0.4-0.4,0.4
		c-0.6,0.1-1.2,0.1-1.8,0.2c-0.6,2.9-2.9,3.7-4.6,3.6c-1.6-0.1-3.2-1.1-3.7-2.7c-1.2,6.1-4.7,10.8-10.2,13.4
		c-5.4,2.5-3.8,5.7-1.2,5.4c-0.7,0.9-1,2.1-0.5,3.1c0.4,0.8,1.4,1.4,3.2,1.6c-1.2,0.1-2.4,0.2-3.6,0.3c-1.6,0.1-3.3,0.2-5,0.2
		s-3.3-0.1-5-0.2c-1.2-0.1-2.4-0.2-3.5-0.3c1.7-0.2,2.7-0.8,3.1-1.6c0.5-1,0.2-2.2-0.5-3.1c2.5,0.3,4.1-2.9-1.3-5.4
		c-5.5-2.6-8.9-7.3-10.2-13.4c-0.5,1.6-2.2,2.5-3.8,2.7c-1.8,0.2-4.1-0.7-4.6-3.6c-0.6,0-1.2-0.1-1.8-0.2c-0.2,0-0.4-0.2-0.3-0.4
		c0-1.7-0.2-3.2-0.7-4.7c-0.7,9.5,3.4,15,8,18.9c-4.5-2.6-11.1-9.8-8.9-20.8l0.7-0.5c0.9,1.3,1.3,2.6,1.6,4c1.1,0.1,2.1,0.3,2.8,0.6
		c-0.3-1-0.3-1.9,0.1-3.1c-0.5,0-1.1-0.1-1.6-0.3l0.1-0.4c1.1,0.2,2-0.1,2.7-0.5c0.7-0.5,1.2-1.8,1.4-3.1c0.8,0.1,1.7,0.1,1.9-0.4
		l0.1,0.1c-0.3,0.6-0.9,1-1.4,1.1c-0.2,1.4-0.6,2.4-1.5,3c-0.2,0.1-0.4,0.2-0.6,0.3c-0.6,0.7-1.1,2.4-0.8,3.6c1,0.5,1.6,1.2,2,1.6
		c0.9-0.2,1.7-0.4,2.4-0.7c0.1,0,0.2-0.1,0.3-0.1c-0.2-0.5-0.4-1.3-0.5-2.4c-0.6,0.1-1,0.2-1.2,0.4l-0.2-0.1
		c0.1-0.3,0.2-0.5,0.4-0.6c0-0.1,0-0.2,0-0.4c-0.4-0.1-1.2-0.1-1.6-0.1s-0.2-0.4-0.1-0.6c0.1-0.2,0.4-0.4,0.8-0.5v0.2
		c-0.2,0.1-0.5,0.3-0.5,0.4c0.3,0.1,1.2,0,1.6,0c0.1-0.5,0.4-1,0.6-1.3c-0.6-0.4-0.6-0.9-0.5-1.1c0-0.2,0.1-0.3,0.3-0.5
		c-0.3-0.3-0.3-0.7-0.2-1.1c0.1-0.3,0.4-0.7,1-0.7c0-0.1,0-0.3,0.1-0.4c0.2-0.4,0.5-0.6,1-0.6c0.1,0,0.2,0,0.3,0
		c0.2-0.3,0.5-0.4,0.8-0.4c0.2,0,0.4,0.1,0.6,0.2c0,0,0.1,0,0.2,0h0.3c0.6,0,1,0.1,1.3,0.3l0.2,0.5c-0.7-0.4-1.9,0.1-2.4-0.2
		c-0.3-0.2-0.6,0.1-0.3,0.3c0.2,0.2,0.6,0.5,1.1,0.7c-0.7-0.1-1.4-0.3-1.8-0.6s-0.8,0-0.5,0.3c0.3,0.4,0.7,0.7,1.1,1
		c-0.4-0.1-1.1-0.3-1.8-0.4c-0.6-0.1-0.6,0.2-0.4,0.5c0.3,0.2,0.6,0.5,1.4,0.9c0,0-0.8,0.1-1.2,0c-0.4,0-0.6,0.3,0,0.5
		c1.1,0.5,2.3,0.7,3.6-0.2c1.3-1,1.5-1.3,1.7-3c0.3-2.8-0.1-3.7-0.7-3.9c0,0.8-0.2,1.7-0.6,2.8l-0.2-0.1c0.6-3.3-0.4-4.3-1.3-5.1
		c-2.2,0.5-5.7,2.1-8,4l-0.3-0.4c2.5-2.1,6.1-4.2,8.4-4.8l0.3-0.1l0.2,0.2c0.1,0.1,0.3,0.2,0.4,0.4c0.6-1.5,0.9-3.5,0.8-5.1
		c-0.8,1.2-1.6,2.2-2.7,3.2l-0.2-0.1c3.4-4.8,4.8-8.9,5.7-16.6c-2,0.3-4,0.6-5.9,1.2c0.2,0,0.4,0,0.5,0c1.9,0.1,3.2,1.2,3.3,2.6
		c0,1.1-0.7,2.3-2.9,2.7c-1.3,0.2-2.6,0.5-3.9,0.9c-2,2.9-2.4,7-2.3,9.5c0.1,2.7-2.7,5.2-6.1,7.4c0-0.3,0-0.6,0-0.9
		c0-3.7,0.9-6.3,2.3-7.4c0.2-0.2,0.4-0.3,0.7-0.4c1-0.4,1-1,0-0.9c-1.3,0-3.3,0.8-4.3,2.7c0.2-2.4,3.1-4.5,5.2-5.2
		c1.8-0.6,0.9-1.4-0.3-1.2c-3.3,0.5-6.1,2.9-7.5,6.7c1-7,8.4-11.4,16.1-12.7c2.4-0.4,1.8-2-0.3-2.2c-5.7-0.4-12.5,3.5-17.2,8.4
		c2.8-7.7,14.9-12.1,24.2-12.9c1.4-0.1,2-0.6,1.9-1h-10.4c-6.6,1.2-11,3.7-14.8,6.9c1.5-3.4,4.6-5.3,8.3-6.9h-4.3
		c-2.5,1.1-5.3,2.6-7.8,4.5c0.8-1.8,3.7-3.7,5.2-4.4c0,0,0.1,0,0.1-0.1h-2.8c-2.8,1.6-5.3,4.6-6.1,7.7c0-3.7,2.7-6.8,3.9-7.6
		l0.1-0.1h-2.6c-1.2,0.9-2.2,2.2-3.3,3.7c0.3-1.4,0.8-2.6,1.6-3.7h-3.5c-0.8,0.8-1.6,1.7-2.2,2.7c0.2-1.2,0.4-1.6,0.5-2.3
		c0.1-0.2,0.1-0.3,0.1-0.5h-2.1c0,0.1-0.1,0.2-0.1,0.3c-7.1,27.1,7.6,47,22.1,56.5c3.6,2.4,7.2,4.1,10.4,5.2
		c-3.3-0.8-6.6-1.7-9.8-2.9c-28.4-10.7-48.6-38.1-48.6-70.1C1208,531.1,1208.3,527.1,1208.9,523.3"/>
	<path id="path468" class="st0" d="M1282.9,440.4c-52.2,0-94.7,42.5-94.7,94.7s42.5,94.7,94.7,94.7s94.7-42.5,94.7-94.7
		C1377.6,482.9,1335.1,440.4,1282.9,440.4 M1282.9,632c-53.4,0-96.9-43.5-96.9-96.9s43.5-96.9,96.9-96.9s96.9,43.5,96.9,96.9
		C1379.8,588.6,1336.3,632,1282.9,632"/>
	<path id="path472" class="st0" d="M1233.8,611.4l1.4-2.3c3.8,2.3,8.3,4.7,11.8,6.7c1.1,0.6,1.1,0,1.5-0.9c0,0-3.3-2.8-5.2-4.5
		c-1.3-1-2.2-2.7-1-4.5l1-1.7l2.7,1.7l-1,1.8l-1.5-1c-0.4,0.6-0.5,1.3,1.8,2.9l6.2,4.6l-1.5,3.1c-1,2.1-1.5,1.9-3.2,1.2
		c-3.6-1.8-8.3-4.4-11.3-6.2l-0.6,1c-0.5,0.8-0.8,0.9-1.1,0.6c-0.9-0.5-1.5-1-2.2-1.5l1.1-1.8L1233.8,611.4z"/>
	<path id="path476" class="st0" d="M1255.6,617.4c-1.5-2.1-0.4-5.1,0.5-7.8c1.4,0.6,2.2,1,3.9,1.7l-1.1,2.2l-2.2-0.9
		c-0.4,1.3-0.9,3.5,0.3,4.6c8.1-1.3,11.3-0.8,14-3.3l0.6,0.3c-0.5,1.9-1.5,2.7-3.3,3.5c1.8,1.5,3,3.8,1.9,7.2
		c-1.8-0.1-3.2-0.4-4.6-0.6l0.4-2.4c1.1,0.3,2,0.4,3.2,0.5c-0.1-1.3-0.3-2.7-2.5-3.8c-5.5,1.4-9.7,1.3-14.1,2.8l-0.4-0.4
		C1252.8,618.8,1253.8,618,1255.6,617.4"/>
	<path id="path480" class="st0" d="M1274.2,625.3l0.1-2.7c4.6,0.1,9.5,0.1,13.6,0c1.3,0,0.9-0.6,0.9-1.5c0,0-4.2-0.9-6.7-1.4
		c-1.5-0.3-3.1-1.3-3.1-3.3v-2.1c0.9,0.1,2,0.1,3.2,0c0.1,0.6,0.3,1.2,0,2.2h-1.8c0,0.6,0.1,1.3,3.1,1.7l7.5,0.9l0.3,3.5
		c0.1,2.3-0.4,2.4-2.3,2.6c-3.9,0.3-9.3,0.3-12.9,0.1v1.3c0,0.8-0.3,1-0.6,1l-2.7-0.3l0.1-2H1274.2z"/>
	<path id="path484" class="st0" d="M1310,612.8c-0.6,0.9-1.1,1.4-1.8,2l2,1.8c0.8,0.6,1.2,1.5,1.5,2.6c0.4,1-0.1,1.5-0.9,1.8
		c-1.3,0.5-1.4,0.5-3.1,1l-0.9-2.7l2.7-0.9c-0.3-1-1-2.1-2-2.8l-7.2,5.8l-0.5,2.3c-1.4,0.4-2.4,0.5-4.1,0.8l-0.6-2.7l4.3-0.9
		c2.8-2.7,5.5-5.4,8.3-8.3c-4.5,1.4-9,2.6-13.5,3.5c-0.4-0.9-0.6-1.8-0.8-2.6c5-1,10.7-2.4,15.3-4.1
		C1309.4,610.5,1309.7,611.4,1310,612.8"/>
	<path id="path488" class="st0" d="M1322.6,610.1c0,1.2-2.3,1.3-1.9-0.8C1321.7,608.5,1322.9,609,1322.6,610.1"/>
	<path id="path492" class="st0" d="M1311.7,608.4c3.9-1.9,10-5.1,14-8.1l1.9,2.3c-0.6,0.5-1.4,1-2.3,1.5c2.9,0.6,3.1,0.9,4.1,2.3
		l1,1.4c1.1,1.7,0.8,2.6-0.5,3.5c-4.2,3-7.8,5-12.8,7.2l-1.3-2.4c5.1-2.2,8.1-4,12.6-7.2l-1.1-1.9c-0.8-1.2-1.4-1.4-3.4-2.1
		c-3.4,2.1-7,4.1-10.8,5.8L1311.7,608.4z"/>
	<path id="path496" class="st0" d="M1368.1,522.2l1.8-0.9c-0.1-1-0.2-1.9-0.5-2.7h-1.9L1368.1,522.2z M1360.5,526.1
		c1.9-1.1,3.6-1.9,5.6-3.1l-0.7-4.5l-6.4-0.4l-0.3-2.3l12.5,0.8c0.4,1.7,0.7,3.6,0.8,5.8l-11.3,6L1360.5,526.1z"/>
	<path id="path500" class="st0" d="M1354.6,503.2c2.8-1.5,4.8-2.3,7.1-3.5l0.9,2.1c-1.8,1-3.3,1.5-5.1,2.6c0.9,2.2,1.4,3.7,2.2,6
		l9.3-2.3l0.6,2.3l-11.4,2.8C1357.1,509.7,1355.9,506.5,1354.6,503.2"/>
	<path id="path504" class="st0" d="M1347.9,491.5l1.8-1.4c1.9,2.7,3.3,5,4.7,7.4l2.7-1.4c-1.3-2.7-2.7-5-4.3-7.9l1.8-1l4.6,8.1
		l1.7-0.9c-1.4-3.5-2.5-5.1-4.3-8.3l1.7-1.1c2.3,3.3,3.8,6.4,5.6,10.4l-10.4,5.2C1351.6,497.1,1350,494.7,1347.9,491.5"/>
	<path id="path508" class="st0" d="M1344.6,487l6.6-5.3l-6-0.4l0.8-6.3l-6.9,5.9l-1.5-1.7l9.3-7.7c0.6,0.5,1.3,1.2,1.8,1.9l-0.9,5.8
		l6.1,0.1l1.3,2l-9.3,7.3L1344.6,487z"/>
	<path id="path512" class="st0" d="M1339.6,592l3.8,3.4c-0.4,0.5-0.9,1-1.5,1.7c-1.2-1.3-3.6-3.4-5.4-5.2c2.7-2.5,4.2-4.2,6-6.1
		l8.9,7.2l-1.5,1.7c-2.4-2-4.9-3.9-7.3-5.9L1339.6,592z"/>
	<path id="path516" class="st0" d="M1351,573.1l1.8,1.3c-1.8,3.2-3.2,5.4-4.8,7.8l2.8,1.9c1.7-3,3.1-4.9,4.7-8l1.8,1l-4.7,8l1.7,1.2
		c1-1.5,3.8-5.8,4.8-8.1l1.9,1.2c-2.4,4.5-4.1,6.8-6.5,10.3l-9.5-6.9C1347,579.8,1349.1,576.5,1351,573.1"/>
	<path id="path520" class="st0" d="M1362.4,572.5c1.6-2.6,2.3-4.9,2.9-6.7c0.5-1.5-1.5-1.9-1.9-0.8c-0.8,2.2-1.7,4.4-2.8,6.5
		L1362.4,572.5z M1353.6,568l5.2,2.6c0.8-1.5,1.4-2.6,1.9-4.1l-4.8-4.2l0.9-2.4l5,4.7c1.8-3.7,6.7-1.5,5.5,2.2
		c-1.1,3.5-1.9,5-3.9,8.5c-3.4-1.5-7-3.6-10.6-5.2L1353.6,568z"/>
	<path id="path524" class="st0" d="M1360.2,546.2c4.6,0.5,7.7,1.2,11.6,1.8l-0.4,2c-3.3-0.6-5.7-1-9.2-1.5c-0.4,1.9-0.8,4-1.3,5.9
		c2.6,1,5.5,2,8.7,2.9l-0.6,2.2c-4.3-1.4-6.4-2-10.9-3.7C1358.9,552.4,1359.6,549.1,1360.2,546.2"/>
	<path id="path528" class="st0" d="M1325.7,468.6l-2.9-1.8l1.4-2.4l2,1.2c0.4,0.2,0.8,0.5,1.1,0l1.2-1.8l0.8,1.4l-2.2,3.2
		C1326.8,468.9,1326.5,469.1,1325.7,468.6"/>
	<path id="path532" class="st0" d="M1316.9,463.9c-2.7-1.3-7.3-3.3-12.6-5l0.9-2.7c6.2,1.9,8.8,3.2,12.4,4.7
		c0.9,0.3,1.6,0.6,2.1-0.6l3.1-6.8l1.6,1.9l-3.9,7.5C1319.7,464.7,1318.5,464.7,1316.9,463.9"/>
	<path id="path536" class="st0" d="M1299.6,457.8l-3.6-0.8l0.4-2.8l2.7,0.5c0.8,0.1,1.1,0.1,1.4-1c0.5-2.7,0.6-3.9,1.3-7.4l1.8,1.1
		l-2,8.8C1301.2,457.7,1300.6,458,1299.6,457.8"/>
	<path id="path540" class="st0" d="M1292.2,456.5l-3.3-0.1l0.1-2.8l2.9-0.1c0-1.7-0.1-3.6-0.2-4.4c-2.6-1.9-4.7-2-6.8-1.9l-2.7,0.1
		c0.5,1.7,1.3,3.4,2.1,5.2c0.3,0.6,0.5,1,1.5,1h0.8l-0.1,2.8c-1.8-0.1-3.1-0.1-5.2,0l-0.1-2.8h2.2l-2-3.3c-1.6-2.5-2.1-2.6-4.8-2.3
		l0.2,5c0,0.4,0.1,0.8,0.8,0.8h1.4l-0.1,2.8c-0.9,0-3.2,0.2-5.1,0.4l-0.2-2.8l1.5-0.2l-0.5-8.3c3.7-0.5,9.1-0.8,12.8-0.4
		c2.8,1.5,3.7,2.2,5.7,4.2c0.3,1.1,0.2,3.1,0.2,5.8C1293.6,456,1293.3,456.4,1292.2,456.5"/>
	<path id="path544" class="st0" d="M1269,457.3c-5.3,1.1-7,1.5-10.6,2.6l0.4,1.3c0.3,0.8-0.1,1-0.5,1.2l-2.3,0.8l-0.8-2.2l1.3-0.4
		l-0.8-2.6c4.6-1.4,9-2.4,11.7-3c1.9-0.4,1.5-0.3,1.3-1.8c0,0-4.1-0.3-6.1-0.4c-1.7-0.1-3.3-0.4-3.9-2.3l-0.6-1.9
		c1-0.4,1.8-0.6,3.1-0.9l0.6,1.9l-1.7,0.5c0.1,0.6,0.8,0.8,1.3,0.8l9-0.1l0.6,3.6C1271.5,456.6,1270.8,456.9,1269,457.3"/>
	<path id="path548" class="st0" d="M1249.4,458.4l-1.8-3.3c-5.5,2.3-8.6,4.1-13.3,7.5l1.2,1.9c0.8,1.1,1.4,1.4,3.4,2l9.5-5.3
		C1249.8,460.4,1250.2,459.9,1249.4,458.4 M1249.5,463.8c-3.9,1.9-8.5,4.4-12.4,7.4l-1.9-2.3c0.6-0.5,1.4-1,2.3-1.5
		c-2.9-0.6-3.1-0.9-4.1-2.3l-2.6-3.4c6.1-4.4,10.3-6.7,17.9-10l2.6,4.9C1253.4,460.9,1253.4,461.8,1249.5,463.8"/>
	<path id="path552" class="st0" d="M1216.3,483.9c-1.3,1.8-3,4.1-4,5.7c-2.4,3.5,1.1,5.1,2.7,2.7l4.3-6.2L1216.3,483.9z
		 M1213.5,481.9c-2.3,2.8-3.1,4-5.1,7.1c-0.9,1.3,0.4,2.2,1.4,0.8c2-2.9,3.4-4.5,5.1-6.9L1213.5,481.9z M1209.6,492.6
		c-2.9,0-4.9-2.2-2.2-6.1c1.7-2.6,4.4-6.1,5.8-7.6l9,6.8l-5.3,8C1214.6,497,1210,495.4,1209.6,492.6"/>
	<path id="path556" class="st0" d="M1208.5,510.3l-2-0.9c1.4-3.3,2.5-5.7,3.7-8.4l-2.8-1.4c-1.4,3-2.7,5.5-3.7,8.6l-1.9-0.9l3.6-8.6
		l-1.8-1c-0.7,1.4-3,6.7-3.7,8.9l-1.8-0.7c1.6-4.9,3-7.5,4.7-11.1c3.8,1.9,6.4,3.1,10.2,5.4C1211.5,503.3,1210,506.9,1208.5,510.3"
		/>
	<path id="path560" class="st0" d="M1196.3,519.9c1.8-1,8-5.6,9.6-6.9l1.7,0.6c-1,3.5-1.8,6.9-2.4,10.8l-2.2-0.4
		c0.2-2.4,0.8-5.1,1.3-7.2l-8.7,5.9l-2-0.4c0.6-4.2,1.8-8.2,2.9-12.1l2.2,0.7C1197.7,513.7,1197,516.4,1196.3,519.9"/>
	<path id="path564" class="st0" d="M1196.9,534.4l-1.9,1.4v2.3l1.9,1V534.4z M1204.8,529.3c-2.2,1.4-3.7,2.3-5.8,4
		c0,2.6,0.2,4.6,0.3,6.7l5.5,3l0.2,2.5c-4.4-2.3-8.3-4.1-12-6.4c-0.1-1.8-0.2-2.9,0-4.1c5.2-4.2,10.2-7.6,12.1-8.5L1204.8,529.3z"/>
	<path id="path568" class="st0" d="M1208,559.5l-6.8,2.4l-0.8-2.2l4.8-1.7c-0.7-2.2-1.4-4.7-1.9-7.2l-9.1,1.5l-0.4-2.3l11.4-1.8
		C1206,552.2,1206.8,555.4,1208,559.5"/>
	<path id="path572" class="st0" d="M1214.3,574.3l-1.9,0.9c-1.7-3.1-3-5.9-4.3-9.2l-2.9,1.3c1.2,3.2,2.9,6.5,4.3,9.4l-1.9,0.9
		c-1.7-2.7-3.3-6.6-4.6-9.4l-1.4,0.7c1.4,4,2.5,6.1,4.3,9.7l-1.9,0.9c-2.1-3.7-3.9-7.8-5.5-12c3.7-1.6,7.2-3,11-4.4
		C1210.8,566.8,1212.7,570.9,1214.3,574.3"/>
	<path id="path576" class="st0" d="M1222.7,586.9l-6.6,5.1l-1.3-1.9l4.8-3.5l-4-5.6l-7.7,5.1l-1.2-2c3.7-2.3,6.1-4,9.7-6.1
		C1218.4,580.9,1220.8,583.9,1222.7,586.9"/>
	<path id="path580" class="st0" d="M1335.2,600.1c0.7,0.2,1.2,0.9,1.1,1.6c-0.2,0.7-0.9,1.2-1.6,1.1c-0.7-0.2-1.2-0.9-1.1-1.6
		C1333.7,600.4,1334.5,599.9,1335.2,600.1"/>
	<path id="path584" class="st0" d="M1335.7,470.8c-0.8,0-1.4-0.6-1.4-1.3c0-0.8,0.6-1.4,1.3-1.4c0.8,0,1.4,0.6,1.4,1.3
		C1337.1,470.2,1336.5,470.8,1335.7,470.8"/>
	<path id="path588" class="st0" d="M1225.6,474.5c-0.8-0.1-1.3-0.8-1.2-1.5c0.1-0.8,0.8-1.3,1.5-1.2c0.8,0.1,1.3,0.8,1.2,1.5
		C1227,474.1,1226.3,474.6,1225.6,474.5"/>
	<path id="path590" class="st0" d="M1283.3,589.9h-0.9v-3h0.9V589.9z"/>
	<path id="path594" class="st0" d="M1280.8,590.1l-0.8,0.2l-0.8-2.9l0.8-0.2L1280.8,590.1z"/>
	<path id="path598" class="st0" d="M1277,588.3l1.5,2.6l-0.8,0.4l-1.5-2.6L1277,588.3z"/>
	<path id="path602" class="st0" d="M1274.4,590.2l2.1,2.2l-0.6,0.6l-2.1-2.2L1274.4,590.2z"/>
	<path id="path606" class="st0" d="M1274.5,595l-2.6-1.5l0.4-0.8l2.6,1.5L1274.5,595z"/>
	<path id="path610" class="st0" d="M1286.5,587.4l-0.8,2.9l-0.8-0.2l0.8-2.9L1286.5,587.4z"/>
	<path id="path614" class="st0" d="M1289.5,588.7l-1.5,2.6l-0.8-0.4l1.5-2.6L1289.5,588.7z"/>
	<path id="path618" class="st0" d="M1292,590.8l-2.1,2.2l-0.6-0.6l2.1-2.2L1292,590.8z"/>
	<path id="path622" class="st0" d="M1293.9,593.5l-2.6,1.5l-0.4-0.8l2.6-1.5L1293.9,593.5z"/>
</g>
</svg>
